<mxfile host="app.diagrams.net" agent="Mozilla/5.0 (Windows NT 10.0; Win64; x64) AppleWebKit/537.36 (KHTML, like Gecko) Chrome/131.0.0.0 Safari/537.36" version="25.0.3">
  <diagram name="Страница — 1" id="MnRugIP0ohj_izYfE41F">
    <mxGraphModel dx="5736" dy="4289" grid="1" gridSize="10" guides="1" tooltips="1" connect="1" arrows="1" fold="1" page="1" pageScale="1" pageWidth="827" pageHeight="1169" math="0" shadow="0">
      <root>
        <mxCell id="0" />
        <mxCell id="1" parent="0" />
        <mxCell id="cfNoZpCfBE-vQEOSdoyF-1" value="&lt;span style=&quot;color: rgba(0, 0, 0, 0.85); font-family: &amp;quot;YS Text&amp;quot;, sans-serif; font-size: 18px; text-align: start; white-space-collapse: preserve; background-color: rgb(255, 255, 255);&quot;&gt;Безопасность данных&lt;/span&gt;" style="ellipse;whiteSpace=wrap;html=1;align=center;newEdgeStyle={&quot;edgeStyle&quot;:&quot;entityRelationEdgeStyle&quot;,&quot;startArrow&quot;:&quot;none&quot;,&quot;endArrow&quot;:&quot;none&quot;,&quot;segment&quot;:10,&quot;curved&quot;:1,&quot;sourcePerimeterSpacing&quot;:0,&quot;targetPerimeterSpacing&quot;:0};treeFolding=1;treeMoving=1;" parent="1" vertex="1">
          <mxGeometry x="100" y="130" width="210" height="80" as="geometry" />
        </mxCell>
        <mxCell id="0ImZA-_981zlYSz6AfB6-2" style="edgeStyle=entityRelationEdgeStyle;rounded=0;orthogonalLoop=1;jettySize=auto;html=1;startArrow=none;endArrow=none;segment=10;curved=1;sourcePerimeterSpacing=0;targetPerimeterSpacing=0;entryX=0;entryY=0.5;entryDx=0;entryDy=0;" edge="1" parent="1" source="cfNoZpCfBE-vQEOSdoyF-2" target="0ImZA-_981zlYSz6AfB6-1">
          <mxGeometry relative="1" as="geometry" />
        </mxCell>
        <mxCell id="0ImZA-_981zlYSz6AfB6-6" style="edgeStyle=entityRelationEdgeStyle;rounded=0;orthogonalLoop=1;jettySize=auto;html=1;startArrow=none;endArrow=none;segment=10;curved=1;sourcePerimeterSpacing=0;targetPerimeterSpacing=0;entryX=0;entryY=0.5;entryDx=0;entryDy=0;" edge="1" parent="1" source="cfNoZpCfBE-vQEOSdoyF-2" target="0ImZA-_981zlYSz6AfB6-3">
          <mxGeometry relative="1" as="geometry" />
        </mxCell>
        <mxCell id="cfNoZpCfBE-vQEOSdoyF-2" value="&lt;ul style=&quot;box-sizing: inherit; margin-top: var(--size-300, var(--base-unit, calc(1rem * var(--base-ratio, 1)))); padding: 0 0 0 var(--size-700, calc(var(--base-unit, calc(1rem * var(--base-ratio, 1))) * 2)); white-space-collapse: preserve-breaks; list-style: none; color: rgba(0, 0, 0, 0.85); font-family: &amp;quot;YS Text&amp;quot;, sans-serif; font-size: 18px; text-align: start; background-color: rgb(255, 255, 255);&quot;&gt;&lt;li style=&quot;box-sizing: inherit; position: relative; margin: 0 0 var(--size-100, calc(var(--base-unit, calc(1rem * var(--base-ratio, 1))) * 0.5));&quot;&gt;публичные данные&lt;/li&gt;&lt;/ul&gt;" style="whiteSpace=wrap;html=1;rounded=1;arcSize=50;align=center;verticalAlign=middle;strokeWidth=1;autosize=1;spacing=4;treeFolding=1;treeMoving=1;newEdgeStyle={&quot;edgeStyle&quot;:&quot;entityRelationEdgeStyle&quot;,&quot;startArrow&quot;:&quot;none&quot;,&quot;endArrow&quot;:&quot;none&quot;,&quot;segment&quot;:10,&quot;curved&quot;:1,&quot;sourcePerimeterSpacing&quot;:0,&quot;targetPerimeterSpacing&quot;:0};" parent="1" vertex="1">
          <mxGeometry x="420" y="30" width="230" height="60" as="geometry" />
        </mxCell>
        <mxCell id="cfNoZpCfBE-vQEOSdoyF-3" value="" style="edgeStyle=entityRelationEdgeStyle;startArrow=none;endArrow=none;segment=10;curved=1;sourcePerimeterSpacing=0;targetPerimeterSpacing=0;rounded=0;exitX=1;exitY=0.5;exitDx=0;exitDy=0;" parent="1" source="cfNoZpCfBE-vQEOSdoyF-1" target="cfNoZpCfBE-vQEOSdoyF-2" edge="1">
          <mxGeometry relative="1" as="geometry">
            <mxPoint x="420" y="152" as="sourcePoint" />
          </mxGeometry>
        </mxCell>
        <mxCell id="0ImZA-_981zlYSz6AfB6-8" style="edgeStyle=entityRelationEdgeStyle;rounded=0;orthogonalLoop=1;jettySize=auto;html=1;startArrow=none;endArrow=none;segment=10;curved=1;sourcePerimeterSpacing=0;targetPerimeterSpacing=0;entryX=0;entryY=0.5;entryDx=0;entryDy=0;" edge="1" parent="1" source="cfNoZpCfBE-vQEOSdoyF-4" target="0ImZA-_981zlYSz6AfB6-7">
          <mxGeometry relative="1" as="geometry" />
        </mxCell>
        <mxCell id="0ImZA-_981zlYSz6AfB6-10" style="edgeStyle=entityRelationEdgeStyle;rounded=0;orthogonalLoop=1;jettySize=auto;html=1;startArrow=none;endArrow=none;segment=10;curved=1;sourcePerimeterSpacing=0;targetPerimeterSpacing=0;entryX=0;entryY=0.5;entryDx=0;entryDy=0;" edge="1" parent="1" source="cfNoZpCfBE-vQEOSdoyF-4" target="0ImZA-_981zlYSz6AfB6-9">
          <mxGeometry relative="1" as="geometry" />
        </mxCell>
        <mxCell id="cfNoZpCfBE-vQEOSdoyF-4" value="&lt;span style=&quot;color: rgba(0, 0, 0, 0.85); font-family: &amp;quot;YS Text&amp;quot;, sans-serif; font-size: 18px; text-align: left; white-space-collapse: preserve-breaks; background-color: rgb(255, 255, 255);&quot;&gt;внутренние данные&lt;/span&gt;" style="whiteSpace=wrap;html=1;rounded=1;arcSize=50;align=center;verticalAlign=middle;strokeWidth=1;autosize=1;spacing=4;treeFolding=1;treeMoving=1;newEdgeStyle={&quot;edgeStyle&quot;:&quot;entityRelationEdgeStyle&quot;,&quot;startArrow&quot;:&quot;none&quot;,&quot;endArrow&quot;:&quot;none&quot;,&quot;segment&quot;:10,&quot;curved&quot;:1,&quot;sourcePerimeterSpacing&quot;:0,&quot;targetPerimeterSpacing&quot;:0};" parent="1" vertex="1">
          <mxGeometry x="440" y="280" width="210" height="40" as="geometry" />
        </mxCell>
        <mxCell id="cfNoZpCfBE-vQEOSdoyF-5" value="" style="edgeStyle=entityRelationEdgeStyle;startArrow=none;endArrow=none;segment=10;curved=1;sourcePerimeterSpacing=0;targetPerimeterSpacing=0;rounded=0;exitX=0.991;exitY=0.629;exitDx=0;exitDy=0;exitPerimeter=0;" parent="1" source="cfNoZpCfBE-vQEOSdoyF-1" target="cfNoZpCfBE-vQEOSdoyF-4" edge="1">
          <mxGeometry relative="1" as="geometry">
            <mxPoint x="400" y="330" as="sourcePoint" />
          </mxGeometry>
        </mxCell>
        <mxCell id="0ImZA-_981zlYSz6AfB6-14" style="edgeStyle=entityRelationEdgeStyle;rounded=0;orthogonalLoop=1;jettySize=auto;html=1;startArrow=none;endArrow=none;segment=10;curved=1;sourcePerimeterSpacing=0;targetPerimeterSpacing=0;entryX=0;entryY=0.5;entryDx=0;entryDy=0;" edge="1" parent="1" source="cfNoZpCfBE-vQEOSdoyF-8" target="0ImZA-_981zlYSz6AfB6-13">
          <mxGeometry relative="1" as="geometry" />
        </mxCell>
        <mxCell id="0ImZA-_981zlYSz6AfB6-16" style="edgeStyle=entityRelationEdgeStyle;rounded=0;orthogonalLoop=1;jettySize=auto;html=1;startArrow=none;endArrow=none;segment=10;curved=1;sourcePerimeterSpacing=0;targetPerimeterSpacing=0;entryX=0;entryY=0.5;entryDx=0;entryDy=0;" edge="1" parent="1" source="cfNoZpCfBE-vQEOSdoyF-8" target="0ImZA-_981zlYSz6AfB6-15">
          <mxGeometry relative="1" as="geometry" />
        </mxCell>
        <mxCell id="0ImZA-_981zlYSz6AfB6-19" style="edgeStyle=entityRelationEdgeStyle;rounded=0;orthogonalLoop=1;jettySize=auto;html=1;startArrow=none;endArrow=none;segment=10;curved=1;sourcePerimeterSpacing=0;targetPerimeterSpacing=0;entryX=0;entryY=0.5;entryDx=0;entryDy=0;" edge="1" parent="1" source="cfNoZpCfBE-vQEOSdoyF-8" target="0ImZA-_981zlYSz6AfB6-17">
          <mxGeometry relative="1" as="geometry" />
        </mxCell>
        <mxCell id="0ImZA-_981zlYSz6AfB6-22" style="edgeStyle=entityRelationEdgeStyle;rounded=0;orthogonalLoop=1;jettySize=auto;html=1;startArrow=none;endArrow=none;segment=10;curved=1;sourcePerimeterSpacing=0;targetPerimeterSpacing=0;entryX=0;entryY=0.5;entryDx=0;entryDy=0;" edge="1" parent="1" source="cfNoZpCfBE-vQEOSdoyF-8" target="0ImZA-_981zlYSz6AfB6-21">
          <mxGeometry relative="1" as="geometry" />
        </mxCell>
        <mxCell id="0ImZA-_981zlYSz6AfB6-24" style="edgeStyle=entityRelationEdgeStyle;rounded=0;orthogonalLoop=1;jettySize=auto;html=1;startArrow=none;endArrow=none;segment=10;curved=1;sourcePerimeterSpacing=0;targetPerimeterSpacing=0;" edge="1" parent="1" source="cfNoZpCfBE-vQEOSdoyF-8" target="0ImZA-_981zlYSz6AfB6-23">
          <mxGeometry relative="1" as="geometry" />
        </mxCell>
        <mxCell id="0ImZA-_981zlYSz6AfB6-31" style="edgeStyle=entityRelationEdgeStyle;rounded=0;orthogonalLoop=1;jettySize=auto;html=1;startArrow=none;endArrow=none;segment=10;curved=1;sourcePerimeterSpacing=0;targetPerimeterSpacing=0;" edge="1" parent="1" source="cfNoZpCfBE-vQEOSdoyF-8" target="0ImZA-_981zlYSz6AfB6-29">
          <mxGeometry relative="1" as="geometry" />
        </mxCell>
        <mxCell id="cfNoZpCfBE-vQEOSdoyF-8" value="&lt;span style=&quot;color: rgba(0, 0, 0, 0.85); font-family: &amp;quot;YS Text&amp;quot;, sans-serif; font-size: 18px; text-align: left; white-space-collapse: preserve-breaks; background-color: rgb(255, 255, 255);&quot;&gt;конфиденциальные данные&lt;/span&gt;&lt;div&gt;&lt;span style=&quot;color: rgba(0, 0, 0, 0.85); font-family: &amp;quot;YS Text&amp;quot;, sans-serif; font-size: 18px; text-align: left; white-space-collapse: preserve-breaks; background-color: rgb(255, 255, 255);&quot;&gt;&lt;br&gt;&lt;/span&gt;&lt;/div&gt;" style="whiteSpace=wrap;html=1;rounded=1;arcSize=50;align=center;verticalAlign=middle;strokeWidth=1;autosize=1;spacing=4;treeFolding=1;treeMoving=1;newEdgeStyle={&quot;edgeStyle&quot;:&quot;entityRelationEdgeStyle&quot;,&quot;startArrow&quot;:&quot;none&quot;,&quot;endArrow&quot;:&quot;none&quot;,&quot;segment&quot;:10,&quot;curved&quot;:1,&quot;sourcePerimeterSpacing&quot;:0,&quot;targetPerimeterSpacing&quot;:0};" parent="1" vertex="1">
          <mxGeometry x="480" y="1340" width="280" height="60" as="geometry" />
        </mxCell>
        <mxCell id="cfNoZpCfBE-vQEOSdoyF-9" value="" style="edgeStyle=entityRelationEdgeStyle;startArrow=none;endArrow=none;segment=10;curved=1;sourcePerimeterSpacing=0;targetPerimeterSpacing=0;rounded=0;exitX=0.978;exitY=0.736;exitDx=0;exitDy=0;exitPerimeter=0;entryX=0;entryY=0.5;entryDx=0;entryDy=0;" parent="1" source="cfNoZpCfBE-vQEOSdoyF-1" target="cfNoZpCfBE-vQEOSdoyF-8" edge="1">
          <mxGeometry relative="1" as="geometry">
            <mxPoint x="400" y="330" as="sourcePoint" />
            <mxPoint x="410" y="290" as="targetPoint" />
            <Array as="points">
              <mxPoint x="290" y="160" />
              <mxPoint x="290" y="160" />
              <mxPoint x="300" y="170" />
            </Array>
          </mxGeometry>
        </mxCell>
        <mxCell id="0ImZA-_981zlYSz6AfB6-52" style="edgeStyle=entityRelationEdgeStyle;rounded=0;orthogonalLoop=1;jettySize=auto;html=1;startArrow=none;endArrow=none;segment=10;curved=1;sourcePerimeterSpacing=0;targetPerimeterSpacing=0;entryX=0;entryY=0.5;entryDx=0;entryDy=0;" edge="1" parent="1" source="cfNoZpCfBE-vQEOSdoyF-10" target="0ImZA-_981zlYSz6AfB6-25">
          <mxGeometry relative="1" as="geometry" />
        </mxCell>
        <mxCell id="0ImZA-_981zlYSz6AfB6-53" style="edgeStyle=entityRelationEdgeStyle;rounded=0;orthogonalLoop=1;jettySize=auto;html=1;startArrow=none;endArrow=none;segment=10;curved=1;sourcePerimeterSpacing=0;targetPerimeterSpacing=0;entryX=0;entryY=0.5;entryDx=0;entryDy=0;" edge="1" parent="1" source="cfNoZpCfBE-vQEOSdoyF-10" target="0ImZA-_981zlYSz6AfB6-26">
          <mxGeometry relative="1" as="geometry" />
        </mxCell>
        <mxCell id="cfNoZpCfBE-vQEOSdoyF-10" value="&lt;span style=&quot;color: rgba(0, 0, 0, 0.85); font-family: &amp;quot;YS Text&amp;quot;, sans-serif; font-size: 18px; text-align: left; white-space-collapse: preserve-breaks; background-color: rgb(255, 255, 255);&quot;&gt;секретные данные&lt;/span&gt;" style="whiteSpace=wrap;html=1;rounded=1;arcSize=50;align=center;verticalAlign=middle;strokeWidth=1;autosize=1;spacing=4;treeFolding=1;treeMoving=1;newEdgeStyle={&quot;edgeStyle&quot;:&quot;entityRelationEdgeStyle&quot;,&quot;startArrow&quot;:&quot;none&quot;,&quot;endArrow&quot;:&quot;none&quot;,&quot;segment&quot;:10,&quot;curved&quot;:1,&quot;sourcePerimeterSpacing&quot;:0,&quot;targetPerimeterSpacing&quot;:0};" parent="1" vertex="1">
          <mxGeometry x="410" y="2930" width="200" height="40" as="geometry" />
        </mxCell>
        <mxCell id="cfNoZpCfBE-vQEOSdoyF-11" value="" style="edgeStyle=entityRelationEdgeStyle;startArrow=none;endArrow=none;segment=10;curved=1;sourcePerimeterSpacing=0;targetPerimeterSpacing=0;rounded=0;exitX=1;exitY=1;exitDx=0;exitDy=0;" parent="1" source="cfNoZpCfBE-vQEOSdoyF-1" target="cfNoZpCfBE-vQEOSdoyF-10" edge="1">
          <mxGeometry relative="1" as="geometry">
            <mxPoint x="410" y="412" as="sourcePoint" />
          </mxGeometry>
        </mxCell>
        <mxCell id="0ImZA-_981zlYSz6AfB6-43" style="edgeStyle=entityRelationEdgeStyle;rounded=0;orthogonalLoop=1;jettySize=auto;html=1;startArrow=none;endArrow=none;segment=10;curved=1;sourcePerimeterSpacing=0;targetPerimeterSpacing=0;entryX=0;entryY=0.5;entryDx=0;entryDy=0;" edge="1" parent="1" source="0ImZA-_981zlYSz6AfB6-1" target="0ImZA-_981zlYSz6AfB6-41">
          <mxGeometry relative="1" as="geometry" />
        </mxCell>
        <mxCell id="0ImZA-_981zlYSz6AfB6-1" value="&lt;ul style=&quot;box-sizing: inherit; margin-top: var(--size-300, var(--base-unit, calc(1rem * var(--base-ratio, 1)))); padding: 0 0 0 var(--size-700, calc(var(--base-unit, calc(1rem * var(--base-ratio, 1))) * 2)); white-space-collapse: preserve-breaks; list-style: none; color: rgba(0, 0, 0, 0.85); font-family: &amp;quot;YS Text&amp;quot;, sans-serif; font-size: 18px; text-align: start; background-color: rgb(255, 255, 255);&quot;&gt;&lt;li style=&quot;box-sizing: inherit; position: relative; margin: 0 0 var(--size-100, calc(var(--base-unit, calc(1rem * var(--base-ratio, 1))) * 0.5));&quot;&gt;контент сайта&lt;/li&gt;&lt;/ul&gt;" style="whiteSpace=wrap;html=1;rounded=1;arcSize=50;align=center;verticalAlign=middle;strokeWidth=1;autosize=1;spacing=4;treeFolding=1;treeMoving=1;newEdgeStyle={&quot;edgeStyle&quot;:&quot;entityRelationEdgeStyle&quot;,&quot;startArrow&quot;:&quot;none&quot;,&quot;endArrow&quot;:&quot;none&quot;,&quot;segment&quot;:10,&quot;curved&quot;:1,&quot;sourcePerimeterSpacing&quot;:0,&quot;targetPerimeterSpacing&quot;:0};" vertex="1" parent="1">
          <mxGeometry x="820" y="10" width="160" height="80" as="geometry" />
        </mxCell>
        <mxCell id="0ImZA-_981zlYSz6AfB6-45" style="edgeStyle=entityRelationEdgeStyle;rounded=0;orthogonalLoop=1;jettySize=auto;html=1;startArrow=none;endArrow=none;segment=10;curved=1;sourcePerimeterSpacing=0;targetPerimeterSpacing=0;entryX=0;entryY=0.5;entryDx=0;entryDy=0;" edge="1" parent="1" source="0ImZA-_981zlYSz6AfB6-3" target="0ImZA-_981zlYSz6AfB6-44">
          <mxGeometry relative="1" as="geometry" />
        </mxCell>
        <mxCell id="0ImZA-_981zlYSz6AfB6-3" value="&lt;ul style=&quot;box-sizing: inherit; margin-top: var(--size-300, var(--base-unit, calc(1rem * var(--base-ratio, 1)))); padding: 0 0 0 var(--size-700, calc(var(--base-unit, calc(1rem * var(--base-ratio, 1))) * 2)); white-space-collapse: preserve-breaks; list-style: none; color: rgba(0, 0, 0, 0.85); font-family: &amp;quot;YS Text&amp;quot;, sans-serif; font-size: 18px; text-align: start; background-color: rgb(255, 255, 255);&quot;&gt;&lt;li style=&quot;box-sizing: inherit; position: relative; margin: 0 0 var(--size-100, calc(var(--base-unit, calc(1rem * var(--base-ratio, 1))) * 0.5));&quot;&gt;данные о работах на объектах ЖКУ&lt;/li&gt;&lt;/ul&gt;" style="whiteSpace=wrap;html=1;rounded=1;arcSize=50;align=center;verticalAlign=middle;strokeWidth=1;autosize=1;spacing=4;treeFolding=1;treeMoving=1;newEdgeStyle={&quot;edgeStyle&quot;:&quot;entityRelationEdgeStyle&quot;,&quot;startArrow&quot;:&quot;none&quot;,&quot;endArrow&quot;:&quot;none&quot;,&quot;segment&quot;:10,&quot;curved&quot;:1,&quot;sourcePerimeterSpacing&quot;:0,&quot;targetPerimeterSpacing&quot;:0};" vertex="1" parent="1">
          <mxGeometry x="810" y="130" width="343" height="70" as="geometry" />
        </mxCell>
        <mxCell id="0ImZA-_981zlYSz6AfB6-48" style="edgeStyle=entityRelationEdgeStyle;rounded=0;orthogonalLoop=1;jettySize=auto;html=1;startArrow=none;endArrow=none;segment=10;curved=1;sourcePerimeterSpacing=0;targetPerimeterSpacing=0;entryX=0;entryY=0.5;entryDx=0;entryDy=0;" edge="1" parent="1" source="0ImZA-_981zlYSz6AfB6-7" target="0ImZA-_981zlYSz6AfB6-46">
          <mxGeometry relative="1" as="geometry" />
        </mxCell>
        <mxCell id="0ImZA-_981zlYSz6AfB6-49" style="edgeStyle=entityRelationEdgeStyle;rounded=0;orthogonalLoop=1;jettySize=auto;html=1;startArrow=none;endArrow=none;segment=10;curved=1;sourcePerimeterSpacing=0;targetPerimeterSpacing=0;" edge="1" parent="1" source="0ImZA-_981zlYSz6AfB6-7" target="0ImZA-_981zlYSz6AfB6-47">
          <mxGeometry relative="1" as="geometry" />
        </mxCell>
        <mxCell id="0ImZA-_981zlYSz6AfB6-7" value="&lt;ul style=&quot;box-sizing: inherit; margin-top: var(--size-300, var(--base-unit, calc(1rem * var(--base-ratio, 1)))); padding: 0 0 0 var(--size-700, calc(var(--base-unit, calc(1rem * var(--base-ratio, 1))) * 2)); white-space-collapse: preserve-breaks; list-style: none; color: rgba(0, 0, 0, 0.85); font-family: &amp;quot;YS Text&amp;quot;, sans-serif; font-size: 18px; text-align: start; background-color: rgb(255, 255, 255);&quot;&gt;&lt;li style=&quot;box-sizing: inherit; position: relative; margin: 0 0 var(--size-100, calc(var(--base-unit, calc(1rem * var(--base-ratio, 1))) * 0.5));&quot;&gt;конфигурация инфраструктуры&lt;/li&gt;&lt;/ul&gt;" style="whiteSpace=wrap;html=1;rounded=1;arcSize=50;align=center;verticalAlign=middle;strokeWidth=1;autosize=1;spacing=4;treeFolding=1;treeMoving=1;newEdgeStyle={&quot;edgeStyle&quot;:&quot;entityRelationEdgeStyle&quot;,&quot;startArrow&quot;:&quot;none&quot;,&quot;endArrow&quot;:&quot;none&quot;,&quot;segment&quot;:10,&quot;curved&quot;:1,&quot;sourcePerimeterSpacing&quot;:0,&quot;targetPerimeterSpacing&quot;:0};" vertex="1" parent="1">
          <mxGeometry x="760" y="265" width="340" height="70" as="geometry" />
        </mxCell>
        <mxCell id="0ImZA-_981zlYSz6AfB6-54" style="edgeStyle=entityRelationEdgeStyle;rounded=0;orthogonalLoop=1;jettySize=auto;html=1;startArrow=none;endArrow=none;segment=10;curved=1;sourcePerimeterSpacing=0;targetPerimeterSpacing=0;entryX=0;entryY=0.5;entryDx=0;entryDy=0;" edge="1" parent="1" source="0ImZA-_981zlYSz6AfB6-9" target="0ImZA-_981zlYSz6AfB6-50">
          <mxGeometry relative="1" as="geometry" />
        </mxCell>
        <mxCell id="0ImZA-_981zlYSz6AfB6-9" value="&lt;ul style=&quot;box-sizing: inherit; margin-top: var(--size-300, var(--base-unit, calc(1rem * var(--base-ratio, 1)))); padding: 0 0 0 var(--size-700, calc(var(--base-unit, calc(1rem * var(--base-ratio, 1))) * 2)); white-space-collapse: preserve-breaks; list-style: none; color: rgba(0, 0, 0, 0.85); font-family: &amp;quot;YS Text&amp;quot;, sans-serif; font-size: 18px; text-align: start; background-color: rgb(255, 255, 255);&quot;&gt;&lt;li style=&quot;box-sizing: inherit; position: relative; margin: 0 0 var(--size-100, calc(var(--base-unit, calc(1rem * var(--base-ratio, 1))) * 0.5));&quot;&gt;внутренние инструкции и положения&lt;/li&gt;&lt;/ul&gt;" style="whiteSpace=wrap;html=1;rounded=1;arcSize=50;align=center;verticalAlign=middle;strokeWidth=1;autosize=1;spacing=4;treeFolding=1;treeMoving=1;newEdgeStyle={&quot;edgeStyle&quot;:&quot;entityRelationEdgeStyle&quot;,&quot;startArrow&quot;:&quot;none&quot;,&quot;endArrow&quot;:&quot;none&quot;,&quot;segment&quot;:10,&quot;curved&quot;:1,&quot;sourcePerimeterSpacing&quot;:0,&quot;targetPerimeterSpacing&quot;:0};" vertex="1" parent="1">
          <mxGeometry x="740" y="450" width="390" height="60" as="geometry" />
        </mxCell>
        <mxCell id="0ImZA-_981zlYSz6AfB6-57" style="edgeStyle=entityRelationEdgeStyle;rounded=0;orthogonalLoop=1;jettySize=auto;html=1;startArrow=none;endArrow=none;segment=10;curved=1;sourcePerimeterSpacing=0;targetPerimeterSpacing=0;" edge="1" parent="1" source="0ImZA-_981zlYSz6AfB6-11" target="0ImZA-_981zlYSz6AfB6-55">
          <mxGeometry relative="1" as="geometry" />
        </mxCell>
        <mxCell id="0ImZA-_981zlYSz6AfB6-58" style="edgeStyle=entityRelationEdgeStyle;rounded=0;orthogonalLoop=1;jettySize=auto;html=1;startArrow=none;endArrow=none;segment=10;curved=1;sourcePerimeterSpacing=0;targetPerimeterSpacing=0;entryX=0;entryY=0.5;entryDx=0;entryDy=0;" edge="1" parent="1" source="0ImZA-_981zlYSz6AfB6-11" target="0ImZA-_981zlYSz6AfB6-56">
          <mxGeometry relative="1" as="geometry" />
        </mxCell>
        <mxCell id="0ImZA-_981zlYSz6AfB6-11" value="&lt;ul style=&quot;box-sizing: inherit; margin-top: var(--size-300, var(--base-unit, calc(1rem * var(--base-ratio, 1)))); padding: 0 0 0 var(--size-700, calc(var(--base-unit, calc(1rem * var(--base-ratio, 1))) * 2)); white-space-collapse: preserve-breaks; list-style: none; color: rgba(0, 0, 0, 0.85); font-family: &amp;quot;YS Text&amp;quot;, sans-serif; font-size: 18px; text-align: start; background-color: rgb(255, 255, 255);&quot;&gt;&lt;li style=&quot;box-sizing: inherit; position: relative; margin: 0 0 var(--size-100, calc(var(--base-unit, calc(1rem * var(--base-ratio, 1))) * 0.5));&quot;&gt;данные онлайн туров&lt;/li&gt;&lt;/ul&gt;" style="whiteSpace=wrap;html=1;rounded=1;arcSize=50;align=center;verticalAlign=middle;strokeWidth=1;autosize=1;spacing=4;treeFolding=1;treeMoving=1;newEdgeStyle={&quot;edgeStyle&quot;:&quot;entityRelationEdgeStyle&quot;,&quot;startArrow&quot;:&quot;none&quot;,&quot;endArrow&quot;:&quot;none&quot;,&quot;segment&quot;:10,&quot;curved&quot;:1,&quot;sourcePerimeterSpacing&quot;:0,&quot;targetPerimeterSpacing&quot;:0};" vertex="1" parent="1">
          <mxGeometry x="785" y="640" width="260" height="70" as="geometry" />
        </mxCell>
        <mxCell id="0ImZA-_981zlYSz6AfB6-12" style="edgeStyle=entityRelationEdgeStyle;rounded=0;orthogonalLoop=1;jettySize=auto;html=1;startArrow=none;endArrow=none;segment=10;curved=1;sourcePerimeterSpacing=0;targetPerimeterSpacing=0;entryX=0;entryY=0.6;entryDx=0;entryDy=0;entryPerimeter=0;" edge="1" parent="1" source="cfNoZpCfBE-vQEOSdoyF-4" target="0ImZA-_981zlYSz6AfB6-11">
          <mxGeometry relative="1" as="geometry" />
        </mxCell>
        <mxCell id="0ImZA-_981zlYSz6AfB6-37" style="edgeStyle=entityRelationEdgeStyle;rounded=0;orthogonalLoop=1;jettySize=auto;html=1;startArrow=none;endArrow=none;segment=10;curved=1;sourcePerimeterSpacing=0;targetPerimeterSpacing=0;" edge="1" parent="1" source="0ImZA-_981zlYSz6AfB6-13" target="0ImZA-_981zlYSz6AfB6-36">
          <mxGeometry relative="1" as="geometry" />
        </mxCell>
        <mxCell id="0ImZA-_981zlYSz6AfB6-39" style="edgeStyle=entityRelationEdgeStyle;rounded=0;orthogonalLoop=1;jettySize=auto;html=1;startArrow=none;endArrow=none;segment=10;curved=1;sourcePerimeterSpacing=0;targetPerimeterSpacing=0;entryX=0;entryY=0.5;entryDx=0;entryDy=0;" edge="1" parent="1" source="0ImZA-_981zlYSz6AfB6-13" target="0ImZA-_981zlYSz6AfB6-38">
          <mxGeometry relative="1" as="geometry" />
        </mxCell>
        <mxCell id="0ImZA-_981zlYSz6AfB6-91" style="edgeStyle=entityRelationEdgeStyle;rounded=0;orthogonalLoop=1;jettySize=auto;html=1;startArrow=none;endArrow=none;segment=10;curved=1;sourcePerimeterSpacing=0;targetPerimeterSpacing=0;entryX=0;entryY=0.5;entryDx=0;entryDy=0;" edge="1" parent="1" source="0ImZA-_981zlYSz6AfB6-13" target="0ImZA-_981zlYSz6AfB6-89">
          <mxGeometry relative="1" as="geometry" />
        </mxCell>
        <mxCell id="0ImZA-_981zlYSz6AfB6-13" value="&lt;ul style=&quot;box-sizing: inherit; margin-top: var(--size-300, var(--base-unit, calc(1rem * var(--base-ratio, 1)))); padding: 0 0 0 var(--size-700, calc(var(--base-unit, calc(1rem * var(--base-ratio, 1))) * 2)); white-space-collapse: preserve-breaks; list-style: none; color: rgba(0, 0, 0, 0.85); font-family: &amp;quot;YS Text&amp;quot;, sans-serif; font-size: 18px; text-align: start; background-color: rgb(255, 255, 255);&quot;&gt;&lt;li style=&quot;box-sizing: inherit; position: relative; margin: 0 0 var(--size-100, calc(var(--base-unit, calc(1rem * var(--base-ratio, 1))) * 0.5));&quot;&gt;финансовые данные&lt;/li&gt;&lt;/ul&gt;" style="whiteSpace=wrap;html=1;rounded=1;arcSize=50;align=center;verticalAlign=middle;strokeWidth=1;autosize=1;spacing=4;treeFolding=1;treeMoving=1;newEdgeStyle={&quot;edgeStyle&quot;:&quot;entityRelationEdgeStyle&quot;,&quot;startArrow&quot;:&quot;none&quot;,&quot;endArrow&quot;:&quot;none&quot;,&quot;segment&quot;:10,&quot;curved&quot;:1,&quot;sourcePerimeterSpacing&quot;:0,&quot;targetPerimeterSpacing&quot;:0};" vertex="1" parent="1">
          <mxGeometry x="805" y="910" width="250" height="70" as="geometry" />
        </mxCell>
        <mxCell id="0ImZA-_981zlYSz6AfB6-63" style="edgeStyle=entityRelationEdgeStyle;rounded=0;orthogonalLoop=1;jettySize=auto;html=1;startArrow=none;endArrow=none;segment=10;curved=1;sourcePerimeterSpacing=0;targetPerimeterSpacing=0;entryX=0;entryY=0.5;entryDx=0;entryDy=0;" edge="1" parent="1" source="0ImZA-_981zlYSz6AfB6-15" target="0ImZA-_981zlYSz6AfB6-59">
          <mxGeometry relative="1" as="geometry" />
        </mxCell>
        <mxCell id="0ImZA-_981zlYSz6AfB6-64" style="edgeStyle=entityRelationEdgeStyle;rounded=0;orthogonalLoop=1;jettySize=auto;html=1;startArrow=none;endArrow=none;segment=10;curved=1;sourcePerimeterSpacing=0;targetPerimeterSpacing=0;entryX=0;entryY=0.5;entryDx=0;entryDy=0;" edge="1" parent="1" source="0ImZA-_981zlYSz6AfB6-15" target="0ImZA-_981zlYSz6AfB6-60">
          <mxGeometry relative="1" as="geometry" />
        </mxCell>
        <mxCell id="0ImZA-_981zlYSz6AfB6-65" style="edgeStyle=entityRelationEdgeStyle;rounded=0;orthogonalLoop=1;jettySize=auto;html=1;startArrow=none;endArrow=none;segment=10;curved=1;sourcePerimeterSpacing=0;targetPerimeterSpacing=0;entryX=0;entryY=0.5;entryDx=0;entryDy=0;" edge="1" parent="1" source="0ImZA-_981zlYSz6AfB6-15" target="0ImZA-_981zlYSz6AfB6-61">
          <mxGeometry relative="1" as="geometry" />
        </mxCell>
        <mxCell id="0ImZA-_981zlYSz6AfB6-66" style="edgeStyle=entityRelationEdgeStyle;rounded=0;orthogonalLoop=1;jettySize=auto;html=1;startArrow=none;endArrow=none;segment=10;curved=1;sourcePerimeterSpacing=0;targetPerimeterSpacing=0;entryX=0;entryY=0.5;entryDx=0;entryDy=0;" edge="1" parent="1" source="0ImZA-_981zlYSz6AfB6-15" target="0ImZA-_981zlYSz6AfB6-62">
          <mxGeometry relative="1" as="geometry" />
        </mxCell>
        <mxCell id="0ImZA-_981zlYSz6AfB6-15" value="&lt;ul style=&quot;box-sizing: inherit; margin-top: var(--size-300, var(--base-unit, calc(1rem * var(--base-ratio, 1)))); padding: 0 0 0 var(--size-700, calc(var(--base-unit, calc(1rem * var(--base-ratio, 1))) * 2)); white-space-collapse: preserve-breaks; list-style: none; color: rgba(0, 0, 0, 0.85); font-family: &amp;quot;YS Text&amp;quot;, sans-serif; font-size: 18px; text-align: start; background-color: rgb(255, 255, 255);&quot;&gt;&lt;li style=&quot;box-sizing: inherit; position: relative; margin: 0 0 var(--size-100, calc(var(--base-unit, calc(1rem * var(--base-ratio, 1))) * 0.5));&quot;&gt;каталог недвижимости&lt;/li&gt;&lt;/ul&gt;" style="whiteSpace=wrap;html=1;rounded=1;arcSize=50;align=center;verticalAlign=middle;strokeWidth=1;autosize=1;spacing=4;treeFolding=1;treeMoving=1;newEdgeStyle={&quot;edgeStyle&quot;:&quot;entityRelationEdgeStyle&quot;,&quot;startArrow&quot;:&quot;none&quot;,&quot;endArrow&quot;:&quot;none&quot;,&quot;segment&quot;:10,&quot;curved&quot;:1,&quot;sourcePerimeterSpacing&quot;:0,&quot;targetPerimeterSpacing&quot;:0};" vertex="1" parent="1">
          <mxGeometry x="860" y="1110" width="270" height="70" as="geometry" />
        </mxCell>
        <mxCell id="0ImZA-_981zlYSz6AfB6-69" style="edgeStyle=entityRelationEdgeStyle;rounded=0;orthogonalLoop=1;jettySize=auto;html=1;startArrow=none;endArrow=none;segment=10;curved=1;sourcePerimeterSpacing=0;targetPerimeterSpacing=0;entryX=0;entryY=0.5;entryDx=0;entryDy=0;" edge="1" parent="1" source="0ImZA-_981zlYSz6AfB6-17" target="0ImZA-_981zlYSz6AfB6-67">
          <mxGeometry relative="1" as="geometry" />
        </mxCell>
        <mxCell id="0ImZA-_981zlYSz6AfB6-70" style="edgeStyle=entityRelationEdgeStyle;rounded=0;orthogonalLoop=1;jettySize=auto;html=1;startArrow=none;endArrow=none;segment=10;curved=1;sourcePerimeterSpacing=0;targetPerimeterSpacing=0;entryX=0;entryY=0.75;entryDx=0;entryDy=0;" edge="1" parent="1" source="0ImZA-_981zlYSz6AfB6-17" target="0ImZA-_981zlYSz6AfB6-68">
          <mxGeometry relative="1" as="geometry" />
        </mxCell>
        <mxCell id="0ImZA-_981zlYSz6AfB6-17" value="&lt;ul style=&quot;box-sizing: inherit; margin-top: var(--size-300, var(--base-unit, calc(1rem * var(--base-ratio, 1)))); padding: 0 0 0 var(--size-700, calc(var(--base-unit, calc(1rem * var(--base-ratio, 1))) * 2)); white-space-collapse: preserve-breaks; list-style: none; color: rgba(0, 0, 0, 0.85); font-family: &amp;quot;YS Text&amp;quot;, sans-serif; font-size: 18px; text-align: start; background-color: rgb(255, 255, 255);&quot;&gt;&lt;li style=&quot;box-sizing: inherit; position: relative; margin: 0 0 var(--size-100, calc(var(--base-unit, calc(1rem * var(--base-ratio, 1))) * 0.5));&quot;&gt;персональные данные клиентов и собственников&lt;/li&gt;&lt;/ul&gt;" style="whiteSpace=wrap;html=1;rounded=1;arcSize=50;align=center;verticalAlign=middle;strokeWidth=1;autosize=1;spacing=4;treeFolding=1;treeMoving=1;newEdgeStyle={&quot;edgeStyle&quot;:&quot;entityRelationEdgeStyle&quot;,&quot;startArrow&quot;:&quot;none&quot;,&quot;endArrow&quot;:&quot;none&quot;,&quot;segment&quot;:10,&quot;curved&quot;:1,&quot;sourcePerimeterSpacing&quot;:0,&quot;targetPerimeterSpacing&quot;:0};" vertex="1" parent="1">
          <mxGeometry x="820" y="1550" width="490" height="70" as="geometry" />
        </mxCell>
        <mxCell id="0ImZA-_981zlYSz6AfB6-73" style="edgeStyle=entityRelationEdgeStyle;rounded=0;orthogonalLoop=1;jettySize=auto;html=1;startArrow=none;endArrow=none;segment=10;curved=1;sourcePerimeterSpacing=0;targetPerimeterSpacing=0;" edge="1" parent="1" source="0ImZA-_981zlYSz6AfB6-18" target="0ImZA-_981zlYSz6AfB6-71">
          <mxGeometry relative="1" as="geometry" />
        </mxCell>
        <mxCell id="0ImZA-_981zlYSz6AfB6-74" style="edgeStyle=entityRelationEdgeStyle;rounded=0;orthogonalLoop=1;jettySize=auto;html=1;startArrow=none;endArrow=none;segment=10;curved=1;sourcePerimeterSpacing=0;targetPerimeterSpacing=0;entryX=0;entryY=0.75;entryDx=0;entryDy=0;" edge="1" parent="1" source="0ImZA-_981zlYSz6AfB6-18" target="0ImZA-_981zlYSz6AfB6-72">
          <mxGeometry relative="1" as="geometry" />
        </mxCell>
        <mxCell id="0ImZA-_981zlYSz6AfB6-18" value="&lt;ul style=&quot;box-sizing: inherit; margin-top: var(--size-300, var(--base-unit, calc(1rem * var(--base-ratio, 1)))); padding: 0 0 0 var(--size-700, calc(var(--base-unit, calc(1rem * var(--base-ratio, 1))) * 2)); white-space-collapse: preserve-breaks; list-style: none; color: rgba(0, 0, 0, 0.85); font-family: &amp;quot;YS Text&amp;quot;, sans-serif; font-size: 18px; text-align: start; background-color: rgb(255, 255, 255);&quot;&gt;&lt;li style=&quot;box-sizing: inherit; position: relative; margin: 0 0 var(--size-100, calc(var(--base-unit, calc(1rem * var(--base-ratio, 1))) * 0.5));&quot;&gt;персональные данные сотрудников компании&lt;/li&gt;&lt;/ul&gt;" style="whiteSpace=wrap;html=1;rounded=1;arcSize=50;align=center;verticalAlign=middle;strokeWidth=1;autosize=1;spacing=4;treeFolding=1;treeMoving=1;newEdgeStyle={&quot;edgeStyle&quot;:&quot;entityRelationEdgeStyle&quot;,&quot;startArrow&quot;:&quot;none&quot;,&quot;endArrow&quot;:&quot;none&quot;,&quot;segment&quot;:10,&quot;curved&quot;:1,&quot;sourcePerimeterSpacing&quot;:0,&quot;targetPerimeterSpacing&quot;:0};" vertex="1" parent="1">
          <mxGeometry x="820" y="1770" width="460" height="70" as="geometry" />
        </mxCell>
        <mxCell id="0ImZA-_981zlYSz6AfB6-20" style="edgeStyle=entityRelationEdgeStyle;rounded=0;orthogonalLoop=1;jettySize=auto;html=1;startArrow=none;endArrow=none;segment=10;curved=1;sourcePerimeterSpacing=0;targetPerimeterSpacing=0;entryX=-0.002;entryY=0.614;entryDx=0;entryDy=0;entryPerimeter=0;" edge="1" parent="1" source="cfNoZpCfBE-vQEOSdoyF-8" target="0ImZA-_981zlYSz6AfB6-18">
          <mxGeometry relative="1" as="geometry" />
        </mxCell>
        <mxCell id="0ImZA-_981zlYSz6AfB6-78" style="edgeStyle=entityRelationEdgeStyle;rounded=0;orthogonalLoop=1;jettySize=auto;html=1;startArrow=none;endArrow=none;segment=10;curved=1;sourcePerimeterSpacing=0;targetPerimeterSpacing=0;entryX=0;entryY=0.5;entryDx=0;entryDy=0;" edge="1" parent="1" source="0ImZA-_981zlYSz6AfB6-21" target="0ImZA-_981zlYSz6AfB6-75">
          <mxGeometry relative="1" as="geometry" />
        </mxCell>
        <mxCell id="0ImZA-_981zlYSz6AfB6-79" style="edgeStyle=entityRelationEdgeStyle;rounded=0;orthogonalLoop=1;jettySize=auto;html=1;startArrow=none;endArrow=none;segment=10;curved=1;sourcePerimeterSpacing=0;targetPerimeterSpacing=0;entryX=0;entryY=0.5;entryDx=0;entryDy=0;" edge="1" parent="1" source="0ImZA-_981zlYSz6AfB6-21" target="0ImZA-_981zlYSz6AfB6-76">
          <mxGeometry relative="1" as="geometry" />
        </mxCell>
        <mxCell id="0ImZA-_981zlYSz6AfB6-80" style="edgeStyle=entityRelationEdgeStyle;rounded=0;orthogonalLoop=1;jettySize=auto;html=1;startArrow=none;endArrow=none;segment=10;curved=1;sourcePerimeterSpacing=0;targetPerimeterSpacing=0;entryX=0;entryY=0.5;entryDx=0;entryDy=0;" edge="1" parent="1" source="0ImZA-_981zlYSz6AfB6-21" target="0ImZA-_981zlYSz6AfB6-77">
          <mxGeometry relative="1" as="geometry" />
        </mxCell>
        <mxCell id="0ImZA-_981zlYSz6AfB6-21" value="&lt;ul style=&quot;box-sizing: inherit; margin-top: var(--size-300, var(--base-unit, calc(1rem * var(--base-ratio, 1)))); padding: 0 0 0 var(--size-700, calc(var(--base-unit, calc(1rem * var(--base-ratio, 1))) * 2)); white-space-collapse: preserve-breaks; list-style: none; color: rgba(0, 0, 0, 0.85); font-family: &amp;quot;YS Text&amp;quot;, sans-serif; font-size: 18px; text-align: start; background-color: rgb(255, 255, 255);&quot;&gt;&lt;li style=&quot;box-sizing: inherit; position: relative; margin: 0 0 var(--size-100, calc(var(--base-unit, calc(1rem * var(--base-ratio, 1))) * 0.5));&quot;&gt;данные о сделках&lt;/li&gt;&lt;/ul&gt;" style="whiteSpace=wrap;html=1;rounded=1;arcSize=50;align=center;verticalAlign=middle;strokeWidth=1;autosize=1;spacing=4;treeFolding=1;treeMoving=1;newEdgeStyle={&quot;edgeStyle&quot;:&quot;entityRelationEdgeStyle&quot;,&quot;startArrow&quot;:&quot;none&quot;,&quot;endArrow&quot;:&quot;none&quot;,&quot;segment&quot;:10,&quot;curved&quot;:1,&quot;sourcePerimeterSpacing&quot;:0,&quot;targetPerimeterSpacing&quot;:0};" vertex="1" parent="1">
          <mxGeometry x="837" y="2060" width="230" height="70" as="geometry" />
        </mxCell>
        <mxCell id="0ImZA-_981zlYSz6AfB6-83" style="edgeStyle=entityRelationEdgeStyle;rounded=0;orthogonalLoop=1;jettySize=auto;html=1;startArrow=none;endArrow=none;segment=10;curved=1;sourcePerimeterSpacing=0;targetPerimeterSpacing=0;entryX=0;entryY=0.5;entryDx=0;entryDy=0;" edge="1" parent="1" source="0ImZA-_981zlYSz6AfB6-23" target="0ImZA-_981zlYSz6AfB6-81">
          <mxGeometry relative="1" as="geometry" />
        </mxCell>
        <mxCell id="0ImZA-_981zlYSz6AfB6-84" style="edgeStyle=entityRelationEdgeStyle;rounded=0;orthogonalLoop=1;jettySize=auto;html=1;startArrow=none;endArrow=none;segment=10;curved=1;sourcePerimeterSpacing=0;targetPerimeterSpacing=0;entryX=0;entryY=0.5;entryDx=0;entryDy=0;" edge="1" parent="1" source="0ImZA-_981zlYSz6AfB6-23" target="0ImZA-_981zlYSz6AfB6-82">
          <mxGeometry relative="1" as="geometry" />
        </mxCell>
        <mxCell id="0ImZA-_981zlYSz6AfB6-23" value="&lt;ul style=&quot;box-sizing: inherit; margin-top: var(--size-300, var(--base-unit, calc(1rem * var(--base-ratio, 1)))); padding: 0 0 0 var(--size-700, calc(var(--base-unit, calc(1rem * var(--base-ratio, 1))) * 2)); white-space-collapse: preserve-breaks; list-style: none; color: rgba(0, 0, 0, 0.85); font-family: &amp;quot;YS Text&amp;quot;, sans-serif; font-size: 18px; text-align: start; background-color: rgb(255, 255, 255);&quot;&gt;&lt;li style=&quot;box-sizing: inherit; position: relative; margin: 0 0 var(--size-100, calc(var(--base-unit, calc(1rem * var(--base-ratio, 1))) * 0.5));&quot;&gt;данные умных устройств&lt;/li&gt;&lt;/ul&gt;" style="whiteSpace=wrap;html=1;rounded=1;arcSize=50;align=center;verticalAlign=middle;strokeWidth=1;autosize=1;spacing=4;treeFolding=1;treeMoving=1;newEdgeStyle={&quot;edgeStyle&quot;:&quot;entityRelationEdgeStyle&quot;,&quot;startArrow&quot;:&quot;none&quot;,&quot;endArrow&quot;:&quot;none&quot;,&quot;segment&quot;:10,&quot;curved&quot;:1,&quot;sourcePerimeterSpacing&quot;:0,&quot;targetPerimeterSpacing&quot;:0};" vertex="1" parent="1">
          <mxGeometry x="810" y="2320" width="290" height="70" as="geometry" />
        </mxCell>
        <mxCell id="0ImZA-_981zlYSz6AfB6-34" style="edgeStyle=entityRelationEdgeStyle;rounded=0;orthogonalLoop=1;jettySize=auto;html=1;startArrow=none;endArrow=none;segment=10;curved=1;sourcePerimeterSpacing=0;targetPerimeterSpacing=0;" edge="1" parent="1" source="0ImZA-_981zlYSz6AfB6-25" target="0ImZA-_981zlYSz6AfB6-32">
          <mxGeometry relative="1" as="geometry" />
        </mxCell>
        <mxCell id="0ImZA-_981zlYSz6AfB6-25" value="&lt;ul style=&quot;box-sizing: inherit; margin-top: var(--size-300, var(--base-unit, calc(1rem * var(--base-ratio, 1)))); padding: 0 0 0 var(--size-700, calc(var(--base-unit, calc(1rem * var(--base-ratio, 1))) * 2)); white-space-collapse: preserve-breaks; list-style: none; color: rgba(0, 0, 0, 0.85); font-family: &amp;quot;YS Text&amp;quot;, sans-serif; font-size: 18px; text-align: start; background-color: rgb(255, 255, 255);&quot;&gt;&lt;li style=&quot;box-sizing: inherit; position: relative; margin: 0 0 var(--size-100, calc(var(--base-unit, calc(1rem * var(--base-ratio, 1))) * 0.5));&quot;&gt;ЭЦП и сертификаты&lt;/li&gt;&lt;/ul&gt;" style="whiteSpace=wrap;html=1;rounded=1;arcSize=50;align=center;verticalAlign=middle;strokeWidth=1;autosize=1;spacing=4;treeFolding=1;treeMoving=1;newEdgeStyle={&quot;edgeStyle&quot;:&quot;entityRelationEdgeStyle&quot;,&quot;startArrow&quot;:&quot;none&quot;,&quot;endArrow&quot;:&quot;none&quot;,&quot;segment&quot;:10,&quot;curved&quot;:1,&quot;sourcePerimeterSpacing&quot;:0,&quot;targetPerimeterSpacing&quot;:0};" vertex="1" parent="1">
          <mxGeometry x="940" y="2860" width="250" height="70" as="geometry" />
        </mxCell>
        <mxCell id="0ImZA-_981zlYSz6AfB6-35" style="edgeStyle=entityRelationEdgeStyle;rounded=0;orthogonalLoop=1;jettySize=auto;html=1;startArrow=none;endArrow=none;segment=10;curved=1;sourcePerimeterSpacing=0;targetPerimeterSpacing=0;entryX=0;entryY=0.5;entryDx=0;entryDy=0;" edge="1" parent="1" source="0ImZA-_981zlYSz6AfB6-26" target="0ImZA-_981zlYSz6AfB6-33">
          <mxGeometry relative="1" as="geometry" />
        </mxCell>
        <mxCell id="0ImZA-_981zlYSz6AfB6-26" value="&lt;ul style=&quot;box-sizing: inherit; margin-top: var(--size-300, var(--base-unit, calc(1rem * var(--base-ratio, 1)))); padding: 0 0 0 var(--size-700, calc(var(--base-unit, calc(1rem * var(--base-ratio, 1))) * 2)); white-space-collapse: preserve-breaks; list-style: none; color: rgba(0, 0, 0, 0.85); font-family: &amp;quot;YS Text&amp;quot;, sans-serif; font-size: 18px; text-align: start; background-color: rgb(255, 255, 255);&quot;&gt;&lt;li style=&quot;box-sizing: inherit; position: relative; margin: 0 0 var(--size-100, calc(var(--base-unit, calc(1rem * var(--base-ratio, 1))) * 0.5));&quot;&gt;ключи и пароли&lt;/li&gt;&lt;/ul&gt;" style="whiteSpace=wrap;html=1;rounded=1;arcSize=50;align=center;verticalAlign=middle;strokeWidth=1;autosize=1;spacing=4;treeFolding=1;treeMoving=1;newEdgeStyle={&quot;edgeStyle&quot;:&quot;entityRelationEdgeStyle&quot;,&quot;startArrow&quot;:&quot;none&quot;,&quot;endArrow&quot;:&quot;none&quot;,&quot;segment&quot;:10,&quot;curved&quot;:1,&quot;sourcePerimeterSpacing&quot;:0,&quot;targetPerimeterSpacing&quot;:0};" vertex="1" parent="1">
          <mxGeometry x="960" y="2970" width="210" height="70" as="geometry" />
        </mxCell>
        <mxCell id="0ImZA-_981zlYSz6AfB6-87" style="edgeStyle=entityRelationEdgeStyle;rounded=0;orthogonalLoop=1;jettySize=auto;html=1;startArrow=none;endArrow=none;segment=10;curved=1;sourcePerimeterSpacing=0;targetPerimeterSpacing=0;entryX=0;entryY=0.5;entryDx=0;entryDy=0;" edge="1" parent="1" source="0ImZA-_981zlYSz6AfB6-29" target="0ImZA-_981zlYSz6AfB6-85">
          <mxGeometry relative="1" as="geometry" />
        </mxCell>
        <mxCell id="0ImZA-_981zlYSz6AfB6-88" style="edgeStyle=entityRelationEdgeStyle;rounded=0;orthogonalLoop=1;jettySize=auto;html=1;startArrow=none;endArrow=none;segment=10;curved=1;sourcePerimeterSpacing=0;targetPerimeterSpacing=0;entryX=0;entryY=0.5;entryDx=0;entryDy=0;" edge="1" parent="1" source="0ImZA-_981zlYSz6AfB6-29" target="0ImZA-_981zlYSz6AfB6-86">
          <mxGeometry relative="1" as="geometry" />
        </mxCell>
        <mxCell id="0ImZA-_981zlYSz6AfB6-29" value="&lt;ul style=&quot;box-sizing: inherit; margin-top: var(--size-300, var(--base-unit, calc(1rem * var(--base-ratio, 1)))); padding: 0 0 0 var(--size-700, calc(var(--base-unit, calc(1rem * var(--base-ratio, 1))) * 2)); white-space-collapse: preserve-breaks; list-style: none; color: rgba(0, 0, 0, 0.85); font-family: &amp;quot;YS Text&amp;quot;, sans-serif; font-size: 18px; text-align: start; background-color: rgb(255, 255, 255);&quot;&gt;&lt;li style=&quot;box-sizing: inherit; position: relative; margin: 0 0 var(--size-100, calc(var(--base-unit, calc(1rem * var(--base-ratio, 1))) * 0.5));&quot;&gt;исходный под&lt;/li&gt;&lt;/ul&gt;" style="whiteSpace=wrap;html=1;rounded=1;arcSize=50;align=center;verticalAlign=middle;strokeWidth=1;autosize=1;spacing=4;treeFolding=1;treeMoving=1;newEdgeStyle={&quot;edgeStyle&quot;:&quot;entityRelationEdgeStyle&quot;,&quot;startArrow&quot;:&quot;none&quot;,&quot;endArrow&quot;:&quot;none&quot;,&quot;segment&quot;:10,&quot;curved&quot;:1,&quot;sourcePerimeterSpacing&quot;:0,&quot;targetPerimeterSpacing&quot;:0};" vertex="1" parent="1">
          <mxGeometry x="790" y="2610" width="190" height="70" as="geometry" />
        </mxCell>
        <mxCell id="0ImZA-_981zlYSz6AfB6-196" style="edgeStyle=entityRelationEdgeStyle;rounded=0;orthogonalLoop=1;jettySize=auto;html=1;startArrow=none;endArrow=none;segment=10;curved=1;sourcePerimeterSpacing=0;targetPerimeterSpacing=0;entryX=0;entryY=0.5;entryDx=0;entryDy=0;" edge="1" parent="1" source="0ImZA-_981zlYSz6AfB6-32" target="0ImZA-_981zlYSz6AfB6-195">
          <mxGeometry relative="1" as="geometry" />
        </mxCell>
        <mxCell id="0ImZA-_981zlYSz6AfB6-32" value="&lt;ul style=&quot;box-sizing: inherit; margin-top: var(--size-300, var(--base-unit, calc(1rem * var(--base-ratio, 1)))); padding: 0 0 0 var(--size-700, calc(var(--base-unit, calc(1rem * var(--base-ratio, 1))) * 2)); white-space-collapse: preserve-breaks; list-style: none; color: rgba(0, 0, 0, 0.85); font-family: &amp;quot;YS Text&amp;quot;, sans-serif; font-size: 18px; text-align: start; background-color: rgb(255, 255, 255);&quot;&gt;&lt;li style=&quot;box-sizing: inherit; position: relative; margin: 0 0 var(--size-100, calc(var(--base-unit, calc(1rem * var(--base-ratio, 1))) * 0.5));&quot;&gt;Утечка данных&lt;/li&gt;&lt;/ul&gt;" style="whiteSpace=wrap;html=1;rounded=1;arcSize=50;align=center;verticalAlign=middle;strokeWidth=1;autosize=1;spacing=4;treeFolding=1;treeMoving=1;newEdgeStyle={&quot;edgeStyle&quot;:&quot;entityRelationEdgeStyle&quot;,&quot;startArrow&quot;:&quot;none&quot;,&quot;endArrow&quot;:&quot;none&quot;,&quot;segment&quot;:10,&quot;curved&quot;:1,&quot;sourcePerimeterSpacing&quot;:0,&quot;targetPerimeterSpacing&quot;:0};" vertex="1" parent="1">
          <mxGeometry x="1305" y="2860" width="200" height="70" as="geometry" />
        </mxCell>
        <mxCell id="0ImZA-_981zlYSz6AfB6-200" style="edgeStyle=entityRelationEdgeStyle;rounded=0;orthogonalLoop=1;jettySize=auto;html=1;startArrow=none;endArrow=none;segment=10;curved=1;sourcePerimeterSpacing=0;targetPerimeterSpacing=0;entryX=0;entryY=0.5;entryDx=0;entryDy=0;" edge="1" parent="1" source="0ImZA-_981zlYSz6AfB6-33" target="0ImZA-_981zlYSz6AfB6-199">
          <mxGeometry relative="1" as="geometry" />
        </mxCell>
        <mxCell id="0ImZA-_981zlYSz6AfB6-33" value="&lt;ul style=&quot;box-sizing: inherit; margin-top: var(--size-300, var(--base-unit, calc(1rem * var(--base-ratio, 1)))); padding: 0 0 0 var(--size-700, calc(var(--base-unit, calc(1rem * var(--base-ratio, 1))) * 2)); white-space-collapse: preserve-breaks; list-style: none; color: rgba(0, 0, 0, 0.85); font-family: &amp;quot;YS Text&amp;quot;, sans-serif; font-size: 18px; text-align: start; background-color: rgb(255, 255, 255);&quot;&gt;&lt;li style=&quot;box-sizing: inherit; position: relative; margin: 0 0 var(--size-100, calc(var(--base-unit, calc(1rem * var(--base-ratio, 1))) * 0.5));&quot;&gt;Утечка данных&lt;/li&gt;&lt;/ul&gt;" style="whiteSpace=wrap;html=1;rounded=1;arcSize=50;align=center;verticalAlign=middle;strokeWidth=1;autosize=1;spacing=4;treeFolding=1;treeMoving=1;newEdgeStyle={&quot;edgeStyle&quot;:&quot;entityRelationEdgeStyle&quot;,&quot;startArrow&quot;:&quot;none&quot;,&quot;endArrow&quot;:&quot;none&quot;,&quot;segment&quot;:10,&quot;curved&quot;:1,&quot;sourcePerimeterSpacing&quot;:0,&quot;targetPerimeterSpacing&quot;:0};" vertex="1" parent="1">
          <mxGeometry x="1310" y="2970" width="200" height="70" as="geometry" />
        </mxCell>
        <mxCell id="0ImZA-_981zlYSz6AfB6-132" style="edgeStyle=entityRelationEdgeStyle;rounded=0;orthogonalLoop=1;jettySize=auto;html=1;startArrow=none;endArrow=none;segment=10;curved=1;sourcePerimeterSpacing=0;targetPerimeterSpacing=0;entryX=0;entryY=0.5;entryDx=0;entryDy=0;" edge="1" parent="1" source="0ImZA-_981zlYSz6AfB6-36" target="0ImZA-_981zlYSz6AfB6-131">
          <mxGeometry relative="1" as="geometry" />
        </mxCell>
        <mxCell id="0ImZA-_981zlYSz6AfB6-36" value="&lt;ul style=&quot;box-sizing: inherit; margin-top: var(--size-300, var(--base-unit, calc(1rem * var(--base-ratio, 1)))); padding: 0 0 0 var(--size-700, calc(var(--base-unit, calc(1rem * var(--base-ratio, 1))) * 2)); white-space-collapse: preserve-breaks; list-style: none; color: rgba(0, 0, 0, 0.85); font-family: &amp;quot;YS Text&amp;quot;, sans-serif; font-size: 18px; text-align: start; background-color: rgb(255, 255, 255);&quot;&gt;&lt;li style=&quot;box-sizing: inherit; position: relative; margin: 0 0 var(--size-100, calc(var(--base-unit, calc(1rem * var(--base-ratio, 1))) * 0.5));&quot;&gt;Утечка данных&lt;/li&gt;&lt;/ul&gt;" style="whiteSpace=wrap;html=1;rounded=1;arcSize=50;align=center;verticalAlign=middle;strokeWidth=1;autosize=1;spacing=4;treeFolding=1;treeMoving=1;newEdgeStyle={&quot;edgeStyle&quot;:&quot;entityRelationEdgeStyle&quot;,&quot;startArrow&quot;:&quot;none&quot;,&quot;endArrow&quot;:&quot;none&quot;,&quot;segment&quot;:10,&quot;curved&quot;:1,&quot;sourcePerimeterSpacing&quot;:0,&quot;targetPerimeterSpacing&quot;:0};" vertex="1" parent="1">
          <mxGeometry x="1250" y="840" width="200" height="70" as="geometry" />
        </mxCell>
        <mxCell id="0ImZA-_981zlYSz6AfB6-136" style="edgeStyle=entityRelationEdgeStyle;rounded=0;orthogonalLoop=1;jettySize=auto;html=1;startArrow=none;endArrow=none;segment=10;curved=1;sourcePerimeterSpacing=0;targetPerimeterSpacing=0;entryX=0;entryY=0.5;entryDx=0;entryDy=0;" edge="1" parent="1" source="0ImZA-_981zlYSz6AfB6-38" target="0ImZA-_981zlYSz6AfB6-135">
          <mxGeometry relative="1" as="geometry" />
        </mxCell>
        <mxCell id="0ImZA-_981zlYSz6AfB6-38" value="&lt;ul style=&quot;box-sizing: inherit; margin-top: var(--size-300, var(--base-unit, calc(1rem * var(--base-ratio, 1)))); padding: 0 0 0 var(--size-700, calc(var(--base-unit, calc(1rem * var(--base-ratio, 1))) * 2)); white-space-collapse: preserve-breaks; list-style: none; color: rgba(0, 0, 0, 0.85); font-family: &amp;quot;YS Text&amp;quot;, sans-serif; font-size: 18px; text-align: start; background-color: rgb(255, 255, 255);&quot;&gt;&lt;li style=&quot;box-sizing: inherit; position: relative; margin: 0 0 var(--size-100, calc(var(--base-unit, calc(1rem * var(--base-ratio, 1))) * 0.5));&quot;&gt;Искажение данных&lt;/li&gt;&lt;/ul&gt;" style="whiteSpace=wrap;html=1;rounded=1;arcSize=50;align=center;verticalAlign=middle;strokeWidth=1;autosize=1;spacing=4;treeFolding=1;treeMoving=1;newEdgeStyle={&quot;edgeStyle&quot;:&quot;entityRelationEdgeStyle&quot;,&quot;startArrow&quot;:&quot;none&quot;,&quot;endArrow&quot;:&quot;none&quot;,&quot;segment&quot;:10,&quot;curved&quot;:1,&quot;sourcePerimeterSpacing&quot;:0,&quot;targetPerimeterSpacing&quot;:0};" vertex="1" parent="1">
          <mxGeometry x="1230" y="1010" width="240" height="70" as="geometry" />
        </mxCell>
        <mxCell id="0ImZA-_981zlYSz6AfB6-93" style="edgeStyle=entityRelationEdgeStyle;rounded=0;orthogonalLoop=1;jettySize=auto;html=1;startArrow=none;endArrow=none;segment=10;curved=1;sourcePerimeterSpacing=0;targetPerimeterSpacing=0;entryX=0;entryY=0.5;entryDx=0;entryDy=0;" edge="1" parent="1" source="0ImZA-_981zlYSz6AfB6-40" target="0ImZA-_981zlYSz6AfB6-92">
          <mxGeometry relative="1" as="geometry" />
        </mxCell>
        <mxCell id="0ImZA-_981zlYSz6AfB6-40" value="&lt;ul style=&quot;box-sizing: inherit; margin-top: var(--size-300, var(--base-unit, calc(1rem * var(--base-ratio, 1)))); padding: 0 0 0 var(--size-700, calc(var(--base-unit, calc(1rem * var(--base-ratio, 1))) * 2)); white-space-collapse: preserve-breaks; list-style: none; color: rgba(0, 0, 0, 0.85); font-family: &amp;quot;YS Text&amp;quot;, sans-serif; font-size: 18px; text-align: start; background-color: rgb(255, 255, 255);&quot;&gt;&lt;li style=&quot;box-sizing: inherit; position: relative; margin: 0 0 var(--size-100, calc(var(--base-unit, calc(1rem * var(--base-ratio, 1))) * 0.5));&quot;&gt;Потеря данных&lt;/li&gt;&lt;/ul&gt;" style="whiteSpace=wrap;html=1;rounded=1;arcSize=50;align=center;verticalAlign=middle;strokeWidth=1;autosize=1;spacing=4;treeFolding=1;treeMoving=1;newEdgeStyle={&quot;edgeStyle&quot;:&quot;entityRelationEdgeStyle&quot;,&quot;startArrow&quot;:&quot;none&quot;,&quot;endArrow&quot;:&quot;none&quot;,&quot;segment&quot;:10,&quot;curved&quot;:1,&quot;sourcePerimeterSpacing&quot;:0,&quot;targetPerimeterSpacing&quot;:0};" vertex="1" parent="1">
          <mxGeometry x="1280" y="-60" width="180" height="70" as="geometry" />
        </mxCell>
        <mxCell id="0ImZA-_981zlYSz6AfB6-97" style="edgeStyle=entityRelationEdgeStyle;rounded=0;orthogonalLoop=1;jettySize=auto;html=1;startArrow=none;endArrow=none;segment=10;curved=1;sourcePerimeterSpacing=0;targetPerimeterSpacing=0;entryX=0;entryY=0.5;entryDx=0;entryDy=0;" edge="1" parent="1" source="0ImZA-_981zlYSz6AfB6-41" target="0ImZA-_981zlYSz6AfB6-96">
          <mxGeometry relative="1" as="geometry" />
        </mxCell>
        <mxCell id="0ImZA-_981zlYSz6AfB6-41" value="&lt;ul style=&quot;box-sizing: inherit; margin-top: var(--size-300, var(--base-unit, calc(1rem * var(--base-ratio, 1)))); padding: 0 0 0 var(--size-700, calc(var(--base-unit, calc(1rem * var(--base-ratio, 1))) * 2)); white-space-collapse: preserve-breaks; list-style: none; color: rgba(0, 0, 0, 0.85); font-family: &amp;quot;YS Text&amp;quot;, sans-serif; font-size: 18px; text-align: start; background-color: rgb(255, 255, 255);&quot;&gt;&lt;li style=&quot;box-sizing: inherit; position: relative; margin: 0 0 var(--size-100, calc(var(--base-unit, calc(1rem * var(--base-ratio, 1))) * 0.5));&quot;&gt;Искажение данных&lt;/li&gt;&lt;/ul&gt;" style="whiteSpace=wrap;html=1;rounded=1;arcSize=50;align=center;verticalAlign=middle;strokeWidth=1;autosize=1;spacing=4;treeFolding=1;treeMoving=1;newEdgeStyle={&quot;edgeStyle&quot;:&quot;entityRelationEdgeStyle&quot;,&quot;startArrow&quot;:&quot;none&quot;,&quot;endArrow&quot;:&quot;none&quot;,&quot;segment&quot;:10,&quot;curved&quot;:1,&quot;sourcePerimeterSpacing&quot;:0,&quot;targetPerimeterSpacing&quot;:0};" vertex="1" parent="1">
          <mxGeometry x="1270" y="40" width="220" height="70" as="geometry" />
        </mxCell>
        <mxCell id="0ImZA-_981zlYSz6AfB6-42" style="edgeStyle=entityRelationEdgeStyle;rounded=0;orthogonalLoop=1;jettySize=auto;html=1;startArrow=none;endArrow=none;segment=10;curved=1;sourcePerimeterSpacing=0;targetPerimeterSpacing=0;entryX=-0.017;entryY=0.414;entryDx=0;entryDy=0;entryPerimeter=0;" edge="1" parent="1" source="0ImZA-_981zlYSz6AfB6-1" target="0ImZA-_981zlYSz6AfB6-40">
          <mxGeometry relative="1" as="geometry" />
        </mxCell>
        <mxCell id="0ImZA-_981zlYSz6AfB6-102" style="edgeStyle=entityRelationEdgeStyle;rounded=0;orthogonalLoop=1;jettySize=auto;html=1;startArrow=none;endArrow=none;segment=10;curved=1;sourcePerimeterSpacing=0;targetPerimeterSpacing=0;entryX=0;entryY=0.5;entryDx=0;entryDy=0;" edge="1" parent="1" source="0ImZA-_981zlYSz6AfB6-44" target="0ImZA-_981zlYSz6AfB6-101">
          <mxGeometry relative="1" as="geometry" />
        </mxCell>
        <mxCell id="0ImZA-_981zlYSz6AfB6-44" value="&lt;ul style=&quot;box-sizing: inherit; margin-top: var(--size-300, var(--base-unit, calc(1rem * var(--base-ratio, 1)))); padding: 0 0 0 var(--size-700, calc(var(--base-unit, calc(1rem * var(--base-ratio, 1))) * 2)); white-space-collapse: preserve-breaks; list-style: none; color: rgba(0, 0, 0, 0.85); font-family: &amp;quot;YS Text&amp;quot;, sans-serif; font-size: 18px; text-align: start; background-color: rgb(255, 255, 255);&quot;&gt;&lt;li style=&quot;box-sizing: inherit; position: relative; margin: 0 0 var(--size-100, calc(var(--base-unit, calc(1rem * var(--base-ratio, 1))) * 0.5));&quot;&gt;Потеря данных&lt;/li&gt;&lt;/ul&gt;" style="whiteSpace=wrap;html=1;rounded=1;arcSize=50;align=center;verticalAlign=middle;strokeWidth=1;autosize=1;spacing=4;treeFolding=1;treeMoving=1;newEdgeStyle={&quot;edgeStyle&quot;:&quot;entityRelationEdgeStyle&quot;,&quot;startArrow&quot;:&quot;none&quot;,&quot;endArrow&quot;:&quot;none&quot;,&quot;segment&quot;:10,&quot;curved&quot;:1,&quot;sourcePerimeterSpacing&quot;:0,&quot;targetPerimeterSpacing&quot;:0};" vertex="1" parent="1">
          <mxGeometry x="1280" y="130" width="180" height="70" as="geometry" />
        </mxCell>
        <mxCell id="0ImZA-_981zlYSz6AfB6-106" style="edgeStyle=entityRelationEdgeStyle;rounded=0;orthogonalLoop=1;jettySize=auto;html=1;startArrow=none;endArrow=none;segment=10;curved=1;sourcePerimeterSpacing=0;targetPerimeterSpacing=0;entryX=0;entryY=0.5;entryDx=0;entryDy=0;" edge="1" parent="1" source="0ImZA-_981zlYSz6AfB6-46" target="0ImZA-_981zlYSz6AfB6-105">
          <mxGeometry relative="1" as="geometry" />
        </mxCell>
        <mxCell id="0ImZA-_981zlYSz6AfB6-46" value="&lt;ul style=&quot;box-sizing: inherit; margin-top: var(--size-300, var(--base-unit, calc(1rem * var(--base-ratio, 1)))); padding: 0 0 0 var(--size-700, calc(var(--base-unit, calc(1rem * var(--base-ratio, 1))) * 2)); white-space-collapse: preserve-breaks; list-style: none; color: rgba(0, 0, 0, 0.85); font-family: &amp;quot;YS Text&amp;quot;, sans-serif; font-size: 18px; text-align: start; background-color: rgb(255, 255, 255);&quot;&gt;&lt;li style=&quot;box-sizing: inherit; position: relative; margin: 0 0 var(--size-100, calc(var(--base-unit, calc(1rem * var(--base-ratio, 1))) * 0.5));&quot;&gt;Утечка данных&lt;/li&gt;&lt;/ul&gt;" style="whiteSpace=wrap;html=1;rounded=1;arcSize=50;align=center;verticalAlign=middle;strokeWidth=1;autosize=1;spacing=4;treeFolding=1;treeMoving=1;newEdgeStyle={&quot;edgeStyle&quot;:&quot;entityRelationEdgeStyle&quot;,&quot;startArrow&quot;:&quot;none&quot;,&quot;endArrow&quot;:&quot;none&quot;,&quot;segment&quot;:10,&quot;curved&quot;:1,&quot;sourcePerimeterSpacing&quot;:0,&quot;targetPerimeterSpacing&quot;:0};" vertex="1" parent="1">
          <mxGeometry x="1270" y="230" width="200" height="70" as="geometry" />
        </mxCell>
        <mxCell id="0ImZA-_981zlYSz6AfB6-47" value="&lt;ul style=&quot;box-sizing: inherit; margin-top: var(--size-300, var(--base-unit, calc(1rem * var(--base-ratio, 1)))); padding: 0 0 0 var(--size-700, calc(var(--base-unit, calc(1rem * var(--base-ratio, 1))) * 2)); white-space-collapse: preserve-breaks; list-style: none; color: rgba(0, 0, 0, 0.85); font-family: &amp;quot;YS Text&amp;quot;, sans-serif; font-size: 18px; text-align: start; background-color: rgb(255, 255, 255);&quot;&gt;&lt;li style=&quot;box-sizing: inherit; position: relative; margin: 0 0 var(--size-100, calc(var(--base-unit, calc(1rem * var(--base-ratio, 1))) * 0.5));&quot;&gt;Потеря данных&lt;/li&gt;&lt;/ul&gt;" style="whiteSpace=wrap;html=1;rounded=1;arcSize=50;align=center;verticalAlign=middle;strokeWidth=1;autosize=1;spacing=4;treeFolding=1;treeMoving=1;newEdgeStyle={&quot;edgeStyle&quot;:&quot;entityRelationEdgeStyle&quot;,&quot;startArrow&quot;:&quot;none&quot;,&quot;endArrow&quot;:&quot;none&quot;,&quot;segment&quot;:10,&quot;curved&quot;:1,&quot;sourcePerimeterSpacing&quot;:0,&quot;targetPerimeterSpacing&quot;:0};" vertex="1" parent="1">
          <mxGeometry x="1260" y="335" width="200" height="70" as="geometry" />
        </mxCell>
        <mxCell id="0ImZA-_981zlYSz6AfB6-114" style="edgeStyle=entityRelationEdgeStyle;rounded=0;orthogonalLoop=1;jettySize=auto;html=1;startArrow=none;endArrow=none;segment=10;curved=1;sourcePerimeterSpacing=0;targetPerimeterSpacing=0;entryX=0;entryY=0.5;entryDx=0;entryDy=0;" edge="1" parent="1" source="0ImZA-_981zlYSz6AfB6-50" target="0ImZA-_981zlYSz6AfB6-113">
          <mxGeometry relative="1" as="geometry" />
        </mxCell>
        <mxCell id="0ImZA-_981zlYSz6AfB6-50" value="&lt;ul style=&quot;box-sizing: inherit; margin-top: var(--size-300, var(--base-unit, calc(1rem * var(--base-ratio, 1)))); padding: 0 0 0 var(--size-700, calc(var(--base-unit, calc(1rem * var(--base-ratio, 1))) * 2)); white-space-collapse: preserve-breaks; list-style: none; color: rgba(0, 0, 0, 0.85); font-family: &amp;quot;YS Text&amp;quot;, sans-serif; font-size: 18px; text-align: start; background-color: rgb(255, 255, 255);&quot;&gt;&lt;li style=&quot;box-sizing: inherit; position: relative; margin: 0 0 var(--size-100, calc(var(--base-unit, calc(1rem * var(--base-ratio, 1))) * 0.5));&quot;&gt;Утечка данных&lt;/li&gt;&lt;/ul&gt;" style="whiteSpace=wrap;html=1;rounded=1;arcSize=50;align=center;verticalAlign=middle;strokeWidth=1;autosize=1;spacing=4;treeFolding=1;treeMoving=1;newEdgeStyle={&quot;edgeStyle&quot;:&quot;entityRelationEdgeStyle&quot;,&quot;startArrow&quot;:&quot;none&quot;,&quot;endArrow&quot;:&quot;none&quot;,&quot;segment&quot;:10,&quot;curved&quot;:1,&quot;sourcePerimeterSpacing&quot;:0,&quot;targetPerimeterSpacing&quot;:0};" vertex="1" parent="1">
          <mxGeometry x="1260" y="445" width="200" height="70" as="geometry" />
        </mxCell>
        <mxCell id="0ImZA-_981zlYSz6AfB6-118" style="edgeStyle=entityRelationEdgeStyle;rounded=0;orthogonalLoop=1;jettySize=auto;html=1;startArrow=none;endArrow=none;segment=10;curved=1;sourcePerimeterSpacing=0;targetPerimeterSpacing=0;entryX=0;entryY=0.5;entryDx=0;entryDy=0;" edge="1" parent="1" source="0ImZA-_981zlYSz6AfB6-55" target="0ImZA-_981zlYSz6AfB6-117">
          <mxGeometry relative="1" as="geometry" />
        </mxCell>
        <mxCell id="0ImZA-_981zlYSz6AfB6-55" value="&lt;ul style=&quot;box-sizing: inherit; margin-top: var(--size-300, var(--base-unit, calc(1rem * var(--base-ratio, 1)))); padding: 0 0 0 var(--size-700, calc(var(--base-unit, calc(1rem * var(--base-ratio, 1))) * 2)); white-space-collapse: preserve-breaks; list-style: none; color: rgba(0, 0, 0, 0.85); font-family: &amp;quot;YS Text&amp;quot;, sans-serif; font-size: 18px; text-align: start; background-color: rgb(255, 255, 255);&quot;&gt;&lt;li style=&quot;box-sizing: inherit; position: relative; margin: 0 0 var(--size-100, calc(var(--base-unit, calc(1rem * var(--base-ratio, 1))) * 0.5));&quot;&gt;Потеря данных&lt;/li&gt;&lt;/ul&gt;" style="whiteSpace=wrap;html=1;rounded=1;arcSize=50;align=center;verticalAlign=middle;strokeWidth=1;autosize=1;spacing=4;treeFolding=1;treeMoving=1;newEdgeStyle={&quot;edgeStyle&quot;:&quot;entityRelationEdgeStyle&quot;,&quot;startArrow&quot;:&quot;none&quot;,&quot;endArrow&quot;:&quot;none&quot;,&quot;segment&quot;:10,&quot;curved&quot;:1,&quot;sourcePerimeterSpacing&quot;:0,&quot;targetPerimeterSpacing&quot;:0};" vertex="1" parent="1">
          <mxGeometry x="1260" y="580" width="200" height="70" as="geometry" />
        </mxCell>
        <mxCell id="0ImZA-_981zlYSz6AfB6-122" style="edgeStyle=entityRelationEdgeStyle;rounded=0;orthogonalLoop=1;jettySize=auto;html=1;startArrow=none;endArrow=none;segment=10;curved=1;sourcePerimeterSpacing=0;targetPerimeterSpacing=0;entryX=0;entryY=0.5;entryDx=0;entryDy=0;" edge="1" parent="1" source="0ImZA-_981zlYSz6AfB6-56" target="0ImZA-_981zlYSz6AfB6-121">
          <mxGeometry relative="1" as="geometry" />
        </mxCell>
        <mxCell id="0ImZA-_981zlYSz6AfB6-56" value="&lt;ul style=&quot;box-sizing: inherit; margin-top: var(--size-300, var(--base-unit, calc(1rem * var(--base-ratio, 1)))); padding: 0 0 0 var(--size-700, calc(var(--base-unit, calc(1rem * var(--base-ratio, 1))) * 2)); white-space-collapse: preserve-breaks; list-style: none; color: rgba(0, 0, 0, 0.85); font-family: &amp;quot;YS Text&amp;quot;, sans-serif; font-size: 18px; text-align: start; background-color: rgb(255, 255, 255);&quot;&gt;&lt;li style=&quot;box-sizing: inherit; position: relative; margin: 0 0 var(--size-100, calc(var(--base-unit, calc(1rem * var(--base-ratio, 1))) * 0.5));&quot;&gt;Утечка данных&lt;/li&gt;&lt;/ul&gt;" style="whiteSpace=wrap;html=1;rounded=1;arcSize=50;align=center;verticalAlign=middle;strokeWidth=1;autosize=1;spacing=4;treeFolding=1;treeMoving=1;newEdgeStyle={&quot;edgeStyle&quot;:&quot;entityRelationEdgeStyle&quot;,&quot;startArrow&quot;:&quot;none&quot;,&quot;endArrow&quot;:&quot;none&quot;,&quot;segment&quot;:10,&quot;curved&quot;:1,&quot;sourcePerimeterSpacing&quot;:0,&quot;targetPerimeterSpacing&quot;:0};" vertex="1" parent="1">
          <mxGeometry x="1260" y="700" width="200" height="70" as="geometry" />
        </mxCell>
        <mxCell id="0ImZA-_981zlYSz6AfB6-140" style="edgeStyle=entityRelationEdgeStyle;rounded=0;orthogonalLoop=1;jettySize=auto;html=1;startArrow=none;endArrow=none;segment=10;curved=1;sourcePerimeterSpacing=0;targetPerimeterSpacing=0;entryX=0;entryY=0.5;entryDx=0;entryDy=0;" edge="1" parent="1" source="0ImZA-_981zlYSz6AfB6-59" target="0ImZA-_981zlYSz6AfB6-139">
          <mxGeometry relative="1" as="geometry" />
        </mxCell>
        <mxCell id="0ImZA-_981zlYSz6AfB6-59" value="&lt;ul style=&quot;box-sizing: inherit; margin-top: var(--size-300, var(--base-unit, calc(1rem * var(--base-ratio, 1)))); padding: 0 0 0 var(--size-700, calc(var(--base-unit, calc(1rem * var(--base-ratio, 1))) * 2)); white-space-collapse: preserve-breaks; list-style: none; color: rgba(0, 0, 0, 0.85); font-family: &amp;quot;YS Text&amp;quot;, sans-serif; font-size: 18px; text-align: start; background-color: rgb(255, 255, 255);&quot;&gt;&lt;li style=&quot;box-sizing: inherit; position: relative; margin: 0 0 var(--size-100, calc(var(--base-unit, calc(1rem * var(--base-ratio, 1))) * 0.5));&quot;&gt;Утечка данных&lt;/li&gt;&lt;/ul&gt;" style="whiteSpace=wrap;html=1;rounded=1;arcSize=50;align=center;verticalAlign=middle;strokeWidth=1;autosize=1;spacing=4;treeFolding=1;treeMoving=1;newEdgeStyle={&quot;edgeStyle&quot;:&quot;entityRelationEdgeStyle&quot;,&quot;startArrow&quot;:&quot;none&quot;,&quot;endArrow&quot;:&quot;none&quot;,&quot;segment&quot;:10,&quot;curved&quot;:1,&quot;sourcePerimeterSpacing&quot;:0,&quot;targetPerimeterSpacing&quot;:0};" vertex="1" parent="1">
          <mxGeometry x="1240" y="1090" width="200" height="70" as="geometry" />
        </mxCell>
        <mxCell id="0ImZA-_981zlYSz6AfB6-142" style="edgeStyle=entityRelationEdgeStyle;rounded=0;orthogonalLoop=1;jettySize=auto;html=1;startArrow=none;endArrow=none;segment=10;curved=1;sourcePerimeterSpacing=0;targetPerimeterSpacing=0;entryX=0;entryY=0.5;entryDx=0;entryDy=0;" edge="1" parent="1" source="0ImZA-_981zlYSz6AfB6-60" target="0ImZA-_981zlYSz6AfB6-141">
          <mxGeometry relative="1" as="geometry" />
        </mxCell>
        <mxCell id="0ImZA-_981zlYSz6AfB6-60" value="&lt;ul style=&quot;box-sizing: inherit; margin-top: var(--size-300, var(--base-unit, calc(1rem * var(--base-ratio, 1)))); padding: 0 0 0 var(--size-700, calc(var(--base-unit, calc(1rem * var(--base-ratio, 1))) * 2)); white-space-collapse: preserve-breaks; list-style: none; color: rgba(0, 0, 0, 0.85); font-family: &amp;quot;YS Text&amp;quot;, sans-serif; font-size: 18px; text-align: start; background-color: rgb(255, 255, 255);&quot;&gt;&lt;li style=&quot;box-sizing: inherit; position: relative; margin: 0 0 var(--size-100, calc(var(--base-unit, calc(1rem * var(--base-ratio, 1))) * 0.5));&quot;&gt;Потеря данных&lt;/li&gt;&lt;/ul&gt;" style="whiteSpace=wrap;html=1;rounded=1;arcSize=50;align=center;verticalAlign=middle;strokeWidth=1;autosize=1;spacing=4;treeFolding=1;treeMoving=1;newEdgeStyle={&quot;edgeStyle&quot;:&quot;entityRelationEdgeStyle&quot;,&quot;startArrow&quot;:&quot;none&quot;,&quot;endArrow&quot;:&quot;none&quot;,&quot;segment&quot;:10,&quot;curved&quot;:1,&quot;sourcePerimeterSpacing&quot;:0,&quot;targetPerimeterSpacing&quot;:0};" vertex="1" parent="1">
          <mxGeometry x="1240" y="1200" width="200" height="70" as="geometry" />
        </mxCell>
        <mxCell id="0ImZA-_981zlYSz6AfB6-144" style="edgeStyle=entityRelationEdgeStyle;rounded=0;orthogonalLoop=1;jettySize=auto;html=1;startArrow=none;endArrow=none;segment=10;curved=1;sourcePerimeterSpacing=0;targetPerimeterSpacing=0;entryX=0;entryY=0.5;entryDx=0;entryDy=0;" edge="1" parent="1" source="0ImZA-_981zlYSz6AfB6-61" target="0ImZA-_981zlYSz6AfB6-143">
          <mxGeometry relative="1" as="geometry" />
        </mxCell>
        <mxCell id="0ImZA-_981zlYSz6AfB6-61" value="&lt;ul style=&quot;box-sizing: inherit; margin-top: var(--size-300, var(--base-unit, calc(1rem * var(--base-ratio, 1)))); padding: 0 0 0 var(--size-700, calc(var(--base-unit, calc(1rem * var(--base-ratio, 1))) * 2)); white-space-collapse: preserve-breaks; list-style: none; color: rgba(0, 0, 0, 0.85); font-family: &amp;quot;YS Text&amp;quot;, sans-serif; font-size: 18px; text-align: start; background-color: rgb(255, 255, 255);&quot;&gt;&lt;li style=&quot;box-sizing: inherit; position: relative; margin: 0 0 var(--size-100, calc(var(--base-unit, calc(1rem * var(--base-ratio, 1))) * 0.5));&quot;&gt;Искажение данных&lt;/li&gt;&lt;/ul&gt;" style="whiteSpace=wrap;html=1;rounded=1;arcSize=50;align=center;verticalAlign=middle;strokeWidth=1;autosize=1;spacing=4;treeFolding=1;treeMoving=1;newEdgeStyle={&quot;edgeStyle&quot;:&quot;entityRelationEdgeStyle&quot;,&quot;startArrow&quot;:&quot;none&quot;,&quot;endArrow&quot;:&quot;none&quot;,&quot;segment&quot;:10,&quot;curved&quot;:1,&quot;sourcePerimeterSpacing&quot;:0,&quot;targetPerimeterSpacing&quot;:0};" vertex="1" parent="1">
          <mxGeometry x="1240" y="1310" width="240" height="70" as="geometry" />
        </mxCell>
        <mxCell id="0ImZA-_981zlYSz6AfB6-146" style="edgeStyle=entityRelationEdgeStyle;rounded=0;orthogonalLoop=1;jettySize=auto;html=1;startArrow=none;endArrow=none;segment=10;curved=1;sourcePerimeterSpacing=0;targetPerimeterSpacing=0;" edge="1" parent="1" source="0ImZA-_981zlYSz6AfB6-62" target="0ImZA-_981zlYSz6AfB6-145">
          <mxGeometry relative="1" as="geometry" />
        </mxCell>
        <mxCell id="0ImZA-_981zlYSz6AfB6-62" value="&lt;ul style=&quot;box-sizing: inherit; margin-top: var(--size-300, var(--base-unit, calc(1rem * var(--base-ratio, 1)))); padding: 0 0 0 var(--size-700, calc(var(--base-unit, calc(1rem * var(--base-ratio, 1))) * 2)); white-space-collapse: preserve-breaks; list-style: none; color: rgba(0, 0, 0, 0.85); font-family: &amp;quot;YS Text&amp;quot;, sans-serif; font-size: 18px; text-align: start; background-color: rgb(255, 255, 255);&quot;&gt;&lt;li style=&quot;box-sizing: inherit; position: relative; margin: 0 0 var(--size-100, calc(var(--base-unit, calc(1rem * var(--base-ratio, 1))) * 0.5));&quot;&gt;Некачественные данные&lt;/li&gt;&lt;/ul&gt;" style="whiteSpace=wrap;html=1;rounded=1;arcSize=50;align=center;verticalAlign=middle;strokeWidth=1;autosize=1;spacing=4;treeFolding=1;treeMoving=1;newEdgeStyle={&quot;edgeStyle&quot;:&quot;entityRelationEdgeStyle&quot;,&quot;startArrow&quot;:&quot;none&quot;,&quot;endArrow&quot;:&quot;none&quot;,&quot;segment&quot;:10,&quot;curved&quot;:1,&quot;sourcePerimeterSpacing&quot;:0,&quot;targetPerimeterSpacing&quot;:0};" vertex="1" parent="1">
          <mxGeometry x="1240" y="1410" width="280" height="70" as="geometry" />
        </mxCell>
        <mxCell id="0ImZA-_981zlYSz6AfB6-155" style="edgeStyle=entityRelationEdgeStyle;rounded=0;orthogonalLoop=1;jettySize=auto;html=1;startArrow=none;endArrow=none;segment=10;curved=1;sourcePerimeterSpacing=0;targetPerimeterSpacing=0;entryX=0;entryY=0.5;entryDx=0;entryDy=0;" edge="1" parent="1" source="0ImZA-_981zlYSz6AfB6-67" target="0ImZA-_981zlYSz6AfB6-154">
          <mxGeometry relative="1" as="geometry" />
        </mxCell>
        <mxCell id="0ImZA-_981zlYSz6AfB6-67" value="&lt;ul style=&quot;box-sizing: inherit; margin-top: var(--size-300, var(--base-unit, calc(1rem * var(--base-ratio, 1)))); padding: 0 0 0 var(--size-700, calc(var(--base-unit, calc(1rem * var(--base-ratio, 1))) * 2)); white-space-collapse: preserve-breaks; list-style: none; color: rgba(0, 0, 0, 0.85); font-family: &amp;quot;YS Text&amp;quot;, sans-serif; font-size: 18px; text-align: start; background-color: rgb(255, 255, 255);&quot;&gt;&lt;li style=&quot;box-sizing: inherit; position: relative; margin: 0 0 var(--size-100, calc(var(--base-unit, calc(1rem * var(--base-ratio, 1))) * 0.5));&quot;&gt;Утечка данных&lt;/li&gt;&lt;/ul&gt;" style="whiteSpace=wrap;html=1;rounded=1;arcSize=50;align=center;verticalAlign=middle;strokeWidth=1;autosize=1;spacing=4;treeFolding=1;treeMoving=1;newEdgeStyle={&quot;edgeStyle&quot;:&quot;entityRelationEdgeStyle&quot;,&quot;startArrow&quot;:&quot;none&quot;,&quot;endArrow&quot;:&quot;none&quot;,&quot;segment&quot;:10,&quot;curved&quot;:1,&quot;sourcePerimeterSpacing&quot;:0,&quot;targetPerimeterSpacing&quot;:0};" vertex="1" parent="1">
          <mxGeometry x="1370" y="1510" width="200" height="70" as="geometry" />
        </mxCell>
        <mxCell id="0ImZA-_981zlYSz6AfB6-159" style="edgeStyle=entityRelationEdgeStyle;rounded=0;orthogonalLoop=1;jettySize=auto;html=1;startArrow=none;endArrow=none;segment=10;curved=1;sourcePerimeterSpacing=0;targetPerimeterSpacing=0;entryX=0;entryY=0.5;entryDx=0;entryDy=0;" edge="1" parent="1" source="0ImZA-_981zlYSz6AfB6-68" target="0ImZA-_981zlYSz6AfB6-158">
          <mxGeometry relative="1" as="geometry" />
        </mxCell>
        <mxCell id="0ImZA-_981zlYSz6AfB6-68" value="&lt;ul style=&quot;box-sizing: inherit; margin-top: var(--size-300, var(--base-unit, calc(1rem * var(--base-ratio, 1)))); padding: 0 0 0 var(--size-700, calc(var(--base-unit, calc(1rem * var(--base-ratio, 1))) * 2)); white-space-collapse: preserve-breaks; list-style: none; color: rgba(0, 0, 0, 0.85); font-family: &amp;quot;YS Text&amp;quot;, sans-serif; font-size: 18px; text-align: start; background-color: rgb(255, 255, 255);&quot;&gt;&lt;li style=&quot;box-sizing: inherit; position: relative; margin: 0 0 var(--size-100, calc(var(--base-unit, calc(1rem * var(--base-ratio, 1))) * 0.5));&quot;&gt;Потеря данных&lt;/li&gt;&lt;/ul&gt;" style="whiteSpace=wrap;html=1;rounded=1;arcSize=50;align=center;verticalAlign=middle;strokeWidth=1;autosize=1;spacing=4;treeFolding=1;treeMoving=1;newEdgeStyle={&quot;edgeStyle&quot;:&quot;entityRelationEdgeStyle&quot;,&quot;startArrow&quot;:&quot;none&quot;,&quot;endArrow&quot;:&quot;none&quot;,&quot;segment&quot;:10,&quot;curved&quot;:1,&quot;sourcePerimeterSpacing&quot;:0,&quot;targetPerimeterSpacing&quot;:0};" vertex="1" parent="1">
          <mxGeometry x="1370" y="1630" width="200" height="70" as="geometry" />
        </mxCell>
        <mxCell id="0ImZA-_981zlYSz6AfB6-163" style="edgeStyle=entityRelationEdgeStyle;rounded=0;orthogonalLoop=1;jettySize=auto;html=1;startArrow=none;endArrow=none;segment=10;curved=1;sourcePerimeterSpacing=0;targetPerimeterSpacing=0;entryX=0;entryY=0.5;entryDx=0;entryDy=0;" edge="1" parent="1" source="0ImZA-_981zlYSz6AfB6-71" target="0ImZA-_981zlYSz6AfB6-162">
          <mxGeometry relative="1" as="geometry" />
        </mxCell>
        <mxCell id="0ImZA-_981zlYSz6AfB6-71" value="&lt;ul style=&quot;box-sizing: inherit; margin-top: var(--size-300, var(--base-unit, calc(1rem * var(--base-ratio, 1)))); padding: 0 0 0 var(--size-700, calc(var(--base-unit, calc(1rem * var(--base-ratio, 1))) * 2)); white-space-collapse: preserve-breaks; list-style: none; color: rgba(0, 0, 0, 0.85); font-family: &amp;quot;YS Text&amp;quot;, sans-serif; font-size: 18px; text-align: start; background-color: rgb(255, 255, 255);&quot;&gt;&lt;li style=&quot;box-sizing: inherit; position: relative; margin: 0 0 var(--size-100, calc(var(--base-unit, calc(1rem * var(--base-ratio, 1))) * 0.5));&quot;&gt;Утечка данных&lt;/li&gt;&lt;/ul&gt;" style="whiteSpace=wrap;html=1;rounded=1;arcSize=50;align=center;verticalAlign=middle;strokeWidth=1;autosize=1;spacing=4;treeFolding=1;treeMoving=1;newEdgeStyle={&quot;edgeStyle&quot;:&quot;entityRelationEdgeStyle&quot;,&quot;startArrow&quot;:&quot;none&quot;,&quot;endArrow&quot;:&quot;none&quot;,&quot;segment&quot;:10,&quot;curved&quot;:1,&quot;sourcePerimeterSpacing&quot;:0,&quot;targetPerimeterSpacing&quot;:0};" vertex="1" parent="1">
          <mxGeometry x="1380" y="1730" width="200" height="70" as="geometry" />
        </mxCell>
        <mxCell id="0ImZA-_981zlYSz6AfB6-166" style="edgeStyle=entityRelationEdgeStyle;rounded=0;orthogonalLoop=1;jettySize=auto;html=1;startArrow=none;endArrow=none;segment=10;curved=1;sourcePerimeterSpacing=0;targetPerimeterSpacing=0;entryX=0;entryY=0.5;entryDx=0;entryDy=0;" edge="1" parent="1" source="0ImZA-_981zlYSz6AfB6-72" target="0ImZA-_981zlYSz6AfB6-162">
          <mxGeometry relative="1" as="geometry" />
        </mxCell>
        <mxCell id="0ImZA-_981zlYSz6AfB6-72" value="&lt;ul style=&quot;box-sizing: inherit; margin-top: var(--size-300, var(--base-unit, calc(1rem * var(--base-ratio, 1)))); padding: 0 0 0 var(--size-700, calc(var(--base-unit, calc(1rem * var(--base-ratio, 1))) * 2)); white-space-collapse: preserve-breaks; list-style: none; color: rgba(0, 0, 0, 0.85); font-family: &amp;quot;YS Text&amp;quot;, sans-serif; font-size: 18px; text-align: start; background-color: rgb(255, 255, 255);&quot;&gt;&lt;li style=&quot;box-sizing: inherit; position: relative; margin: 0 0 var(--size-100, calc(var(--base-unit, calc(1rem * var(--base-ratio, 1))) * 0.5));&quot;&gt;Потеря данных&lt;/li&gt;&lt;/ul&gt;" style="whiteSpace=wrap;html=1;rounded=1;arcSize=50;align=center;verticalAlign=middle;strokeWidth=1;autosize=1;spacing=4;treeFolding=1;treeMoving=1;newEdgeStyle={&quot;edgeStyle&quot;:&quot;entityRelationEdgeStyle&quot;,&quot;startArrow&quot;:&quot;none&quot;,&quot;endArrow&quot;:&quot;none&quot;,&quot;segment&quot;:10,&quot;curved&quot;:1,&quot;sourcePerimeterSpacing&quot;:0,&quot;targetPerimeterSpacing&quot;:0};" vertex="1" parent="1">
          <mxGeometry x="1380" y="1850" width="200" height="70" as="geometry" />
        </mxCell>
        <mxCell id="0ImZA-_981zlYSz6AfB6-168" style="edgeStyle=entityRelationEdgeStyle;rounded=0;orthogonalLoop=1;jettySize=auto;html=1;startArrow=none;endArrow=none;segment=10;curved=1;sourcePerimeterSpacing=0;targetPerimeterSpacing=0;entryX=0;entryY=0.5;entryDx=0;entryDy=0;" edge="1" parent="1" source="0ImZA-_981zlYSz6AfB6-75" target="0ImZA-_981zlYSz6AfB6-167">
          <mxGeometry relative="1" as="geometry" />
        </mxCell>
        <mxCell id="0ImZA-_981zlYSz6AfB6-75" value="&lt;ul style=&quot;box-sizing: inherit; margin-top: var(--size-300, var(--base-unit, calc(1rem * var(--base-ratio, 1)))); padding: 0 0 0 var(--size-700, calc(var(--base-unit, calc(1rem * var(--base-ratio, 1))) * 2)); white-space-collapse: preserve-breaks; list-style: none; color: rgba(0, 0, 0, 0.85); font-family: &amp;quot;YS Text&amp;quot;, sans-serif; font-size: 18px; text-align: start; background-color: rgb(255, 255, 255);&quot;&gt;&lt;li style=&quot;box-sizing: inherit; position: relative; margin: 0 0 var(--size-100, calc(var(--base-unit, calc(1rem * var(--base-ratio, 1))) * 0.5));&quot;&gt;Утечка данных&lt;/li&gt;&lt;/ul&gt;" style="whiteSpace=wrap;html=1;rounded=1;arcSize=50;align=center;verticalAlign=middle;strokeWidth=1;autosize=1;spacing=4;treeFolding=1;treeMoving=1;newEdgeStyle={&quot;edgeStyle&quot;:&quot;entityRelationEdgeStyle&quot;,&quot;startArrow&quot;:&quot;none&quot;,&quot;endArrow&quot;:&quot;none&quot;,&quot;segment&quot;:10,&quot;curved&quot;:1,&quot;sourcePerimeterSpacing&quot;:0,&quot;targetPerimeterSpacing&quot;:0};" vertex="1" parent="1">
          <mxGeometry x="1350" y="1950" width="200" height="70" as="geometry" />
        </mxCell>
        <mxCell id="0ImZA-_981zlYSz6AfB6-172" style="edgeStyle=entityRelationEdgeStyle;rounded=0;orthogonalLoop=1;jettySize=auto;html=1;startArrow=none;endArrow=none;segment=10;curved=1;sourcePerimeterSpacing=0;targetPerimeterSpacing=0;entryX=0;entryY=0.5;entryDx=0;entryDy=0;" edge="1" parent="1" source="0ImZA-_981zlYSz6AfB6-76" target="0ImZA-_981zlYSz6AfB6-171">
          <mxGeometry relative="1" as="geometry" />
        </mxCell>
        <mxCell id="0ImZA-_981zlYSz6AfB6-76" value="&lt;ul style=&quot;box-sizing: inherit; margin-top: var(--size-300, var(--base-unit, calc(1rem * var(--base-ratio, 1)))); padding: 0 0 0 var(--size-700, calc(var(--base-unit, calc(1rem * var(--base-ratio, 1))) * 2)); white-space-collapse: preserve-breaks; list-style: none; color: rgba(0, 0, 0, 0.85); font-family: &amp;quot;YS Text&amp;quot;, sans-serif; font-size: 18px; text-align: start; background-color: rgb(255, 255, 255);&quot;&gt;&lt;li style=&quot;box-sizing: inherit; position: relative; margin: 0 0 var(--size-100, calc(var(--base-unit, calc(1rem * var(--base-ratio, 1))) * 0.5));&quot;&gt;Потеря данных&lt;/li&gt;&lt;/ul&gt;" style="whiteSpace=wrap;html=1;rounded=1;arcSize=50;align=center;verticalAlign=middle;strokeWidth=1;autosize=1;spacing=4;treeFolding=1;treeMoving=1;newEdgeStyle={&quot;edgeStyle&quot;:&quot;entityRelationEdgeStyle&quot;,&quot;startArrow&quot;:&quot;none&quot;,&quot;endArrow&quot;:&quot;none&quot;,&quot;segment&quot;:10,&quot;curved&quot;:1,&quot;sourcePerimeterSpacing&quot;:0,&quot;targetPerimeterSpacing&quot;:0};" vertex="1" parent="1">
          <mxGeometry x="1350" y="2060" width="200" height="70" as="geometry" />
        </mxCell>
        <mxCell id="0ImZA-_981zlYSz6AfB6-176" style="edgeStyle=entityRelationEdgeStyle;rounded=0;orthogonalLoop=1;jettySize=auto;html=1;startArrow=none;endArrow=none;segment=10;curved=1;sourcePerimeterSpacing=0;targetPerimeterSpacing=0;entryX=0;entryY=0.5;entryDx=0;entryDy=0;" edge="1" parent="1" source="0ImZA-_981zlYSz6AfB6-77" target="0ImZA-_981zlYSz6AfB6-175">
          <mxGeometry relative="1" as="geometry" />
        </mxCell>
        <mxCell id="0ImZA-_981zlYSz6AfB6-77" value="&lt;ul style=&quot;box-sizing: inherit; margin-top: var(--size-300, var(--base-unit, calc(1rem * var(--base-ratio, 1)))); padding: 0 0 0 var(--size-700, calc(var(--base-unit, calc(1rem * var(--base-ratio, 1))) * 2)); white-space-collapse: preserve-breaks; list-style: none; color: rgba(0, 0, 0, 0.85); font-family: &amp;quot;YS Text&amp;quot;, sans-serif; font-size: 18px; text-align: start; background-color: rgb(255, 255, 255);&quot;&gt;&lt;li style=&quot;box-sizing: inherit; position: relative; margin: 0 0 var(--size-100, calc(var(--base-unit, calc(1rem * var(--base-ratio, 1))) * 0.5));&quot;&gt;Искажение данных&lt;/li&gt;&lt;/ul&gt;" style="whiteSpace=wrap;html=1;rounded=1;arcSize=50;align=center;verticalAlign=middle;strokeWidth=1;autosize=1;spacing=4;treeFolding=1;treeMoving=1;newEdgeStyle={&quot;edgeStyle&quot;:&quot;entityRelationEdgeStyle&quot;,&quot;startArrow&quot;:&quot;none&quot;,&quot;endArrow&quot;:&quot;none&quot;,&quot;segment&quot;:10,&quot;curved&quot;:1,&quot;sourcePerimeterSpacing&quot;:0,&quot;targetPerimeterSpacing&quot;:0};" vertex="1" parent="1">
          <mxGeometry x="1350" y="2170" width="240" height="70" as="geometry" />
        </mxCell>
        <mxCell id="0ImZA-_981zlYSz6AfB6-180" style="edgeStyle=entityRelationEdgeStyle;rounded=0;orthogonalLoop=1;jettySize=auto;html=1;startArrow=none;endArrow=none;segment=10;curved=1;sourcePerimeterSpacing=0;targetPerimeterSpacing=0;" edge="1" parent="1" source="0ImZA-_981zlYSz6AfB6-81" target="0ImZA-_981zlYSz6AfB6-179">
          <mxGeometry relative="1" as="geometry" />
        </mxCell>
        <mxCell id="0ImZA-_981zlYSz6AfB6-81" value="&lt;ul style=&quot;box-sizing: inherit; margin-top: var(--size-300, var(--base-unit, calc(1rem * var(--base-ratio, 1)))); padding: 0 0 0 var(--size-700, calc(var(--base-unit, calc(1rem * var(--base-ratio, 1))) * 2)); white-space-collapse: preserve-breaks; list-style: none; color: rgba(0, 0, 0, 0.85); font-family: &amp;quot;YS Text&amp;quot;, sans-serif; font-size: 18px; text-align: start; background-color: rgb(255, 255, 255);&quot;&gt;&lt;li style=&quot;box-sizing: inherit; position: relative; margin: 0 0 var(--size-100, calc(var(--base-unit, calc(1rem * var(--base-ratio, 1))) * 0.5));&quot;&gt;Утечка данных&lt;/li&gt;&lt;/ul&gt;" style="whiteSpace=wrap;html=1;rounded=1;arcSize=50;align=center;verticalAlign=middle;strokeWidth=1;autosize=1;spacing=4;treeFolding=1;treeMoving=1;newEdgeStyle={&quot;edgeStyle&quot;:&quot;entityRelationEdgeStyle&quot;,&quot;startArrow&quot;:&quot;none&quot;,&quot;endArrow&quot;:&quot;none&quot;,&quot;segment&quot;:10,&quot;curved&quot;:1,&quot;sourcePerimeterSpacing&quot;:0,&quot;targetPerimeterSpacing&quot;:0};" vertex="1" parent="1">
          <mxGeometry x="1340" y="2280" width="200" height="70" as="geometry" />
        </mxCell>
        <mxCell id="0ImZA-_981zlYSz6AfB6-184" style="edgeStyle=entityRelationEdgeStyle;rounded=0;orthogonalLoop=1;jettySize=auto;html=1;startArrow=none;endArrow=none;segment=10;curved=1;sourcePerimeterSpacing=0;targetPerimeterSpacing=0;entryX=0;entryY=0.5;entryDx=0;entryDy=0;" edge="1" parent="1" source="0ImZA-_981zlYSz6AfB6-82" target="0ImZA-_981zlYSz6AfB6-183">
          <mxGeometry relative="1" as="geometry" />
        </mxCell>
        <mxCell id="0ImZA-_981zlYSz6AfB6-82" value="&lt;ul style=&quot;box-sizing: inherit; margin-top: var(--size-300, var(--base-unit, calc(1rem * var(--base-ratio, 1)))); padding: 0 0 0 var(--size-700, calc(var(--base-unit, calc(1rem * var(--base-ratio, 1))) * 2)); white-space-collapse: preserve-breaks; list-style: none; color: rgba(0, 0, 0, 0.85); font-family: &amp;quot;YS Text&amp;quot;, sans-serif; font-size: 18px; text-align: start; background-color: rgb(255, 255, 255);&quot;&gt;&lt;li style=&quot;box-sizing: inherit; position: relative; margin: 0 0 var(--size-100, calc(var(--base-unit, calc(1rem * var(--base-ratio, 1))) * 0.5));&quot;&gt;Потеря данных&lt;/li&gt;&lt;/ul&gt;" style="whiteSpace=wrap;html=1;rounded=1;arcSize=50;align=center;verticalAlign=middle;strokeWidth=1;autosize=1;spacing=4;treeFolding=1;treeMoving=1;newEdgeStyle={&quot;edgeStyle&quot;:&quot;entityRelationEdgeStyle&quot;,&quot;startArrow&quot;:&quot;none&quot;,&quot;endArrow&quot;:&quot;none&quot;,&quot;segment&quot;:10,&quot;curved&quot;:1,&quot;sourcePerimeterSpacing&quot;:0,&quot;targetPerimeterSpacing&quot;:0};" vertex="1" parent="1">
          <mxGeometry x="1330" y="2410" width="200" height="70" as="geometry" />
        </mxCell>
        <mxCell id="0ImZA-_981zlYSz6AfB6-188" style="edgeStyle=entityRelationEdgeStyle;rounded=0;orthogonalLoop=1;jettySize=auto;html=1;startArrow=none;endArrow=none;segment=10;curved=1;sourcePerimeterSpacing=0;targetPerimeterSpacing=0;entryX=0;entryY=0.5;entryDx=0;entryDy=0;" edge="1" parent="1" source="0ImZA-_981zlYSz6AfB6-85" target="0ImZA-_981zlYSz6AfB6-187">
          <mxGeometry relative="1" as="geometry" />
        </mxCell>
        <mxCell id="0ImZA-_981zlYSz6AfB6-85" value="&lt;ul style=&quot;box-sizing: inherit; margin-top: var(--size-300, var(--base-unit, calc(1rem * var(--base-ratio, 1)))); padding: 0 0 0 var(--size-700, calc(var(--base-unit, calc(1rem * var(--base-ratio, 1))) * 2)); white-space-collapse: preserve-breaks; list-style: none; color: rgba(0, 0, 0, 0.85); font-family: &amp;quot;YS Text&amp;quot;, sans-serif; font-size: 18px; text-align: start; background-color: rgb(255, 255, 255);&quot;&gt;&lt;li style=&quot;box-sizing: inherit; position: relative; margin: 0 0 var(--size-100, calc(var(--base-unit, calc(1rem * var(--base-ratio, 1))) * 0.5));&quot;&gt;Утечка данных&lt;/li&gt;&lt;/ul&gt;" style="whiteSpace=wrap;html=1;rounded=1;arcSize=50;align=center;verticalAlign=middle;strokeWidth=1;autosize=1;spacing=4;treeFolding=1;treeMoving=1;newEdgeStyle={&quot;edgeStyle&quot;:&quot;entityRelationEdgeStyle&quot;,&quot;startArrow&quot;:&quot;none&quot;,&quot;endArrow&quot;:&quot;none&quot;,&quot;segment&quot;:10,&quot;curved&quot;:1,&quot;sourcePerimeterSpacing&quot;:0,&quot;targetPerimeterSpacing&quot;:0};" vertex="1" parent="1">
          <mxGeometry x="1320" y="2540" width="200" height="70" as="geometry" />
        </mxCell>
        <mxCell id="0ImZA-_981zlYSz6AfB6-190" style="edgeStyle=entityRelationEdgeStyle;rounded=0;orthogonalLoop=1;jettySize=auto;html=1;startArrow=none;endArrow=none;segment=10;curved=1;sourcePerimeterSpacing=0;targetPerimeterSpacing=0;entryX=0;entryY=0.5;entryDx=0;entryDy=0;" edge="1" parent="1" source="0ImZA-_981zlYSz6AfB6-86" target="0ImZA-_981zlYSz6AfB6-189">
          <mxGeometry relative="1" as="geometry" />
        </mxCell>
        <mxCell id="0ImZA-_981zlYSz6AfB6-86" value="&lt;ul style=&quot;box-sizing: inherit; margin-top: var(--size-300, var(--base-unit, calc(1rem * var(--base-ratio, 1)))); padding: 0 0 0 var(--size-700, calc(var(--base-unit, calc(1rem * var(--base-ratio, 1))) * 2)); white-space-collapse: preserve-breaks; list-style: none; color: rgba(0, 0, 0, 0.85); font-family: &amp;quot;YS Text&amp;quot;, sans-serif; font-size: 18px; text-align: start; background-color: rgb(255, 255, 255);&quot;&gt;&lt;li style=&quot;box-sizing: inherit; position: relative; margin: 0 0 var(--size-100, calc(var(--base-unit, calc(1rem * var(--base-ratio, 1))) * 0.5));&quot;&gt;Потеря данных&lt;/li&gt;&lt;/ul&gt;" style="whiteSpace=wrap;html=1;rounded=1;arcSize=50;align=center;verticalAlign=middle;strokeWidth=1;autosize=1;spacing=4;treeFolding=1;treeMoving=1;newEdgeStyle={&quot;edgeStyle&quot;:&quot;entityRelationEdgeStyle&quot;,&quot;startArrow&quot;:&quot;none&quot;,&quot;endArrow&quot;:&quot;none&quot;,&quot;segment&quot;:10,&quot;curved&quot;:1,&quot;sourcePerimeterSpacing&quot;:0,&quot;targetPerimeterSpacing&quot;:0};" vertex="1" parent="1">
          <mxGeometry x="1310" y="2670" width="200" height="70" as="geometry" />
        </mxCell>
        <mxCell id="0ImZA-_981zlYSz6AfB6-89" value="&lt;ul style=&quot;box-sizing: inherit; margin-top: var(--size-300, var(--base-unit, calc(1rem * var(--base-ratio, 1)))); padding: 0 0 0 var(--size-700, calc(var(--base-unit, calc(1rem * var(--base-ratio, 1))) * 2)); white-space-collapse: preserve-breaks; list-style: none; color: rgba(0, 0, 0, 0.85); font-family: &amp;quot;YS Text&amp;quot;, sans-serif; font-size: 18px; text-align: start; background-color: rgb(255, 255, 255);&quot;&gt;&lt;li style=&quot;box-sizing: inherit; position: relative; margin: 0 0 var(--size-100, calc(var(--base-unit, calc(1rem * var(--base-ratio, 1))) * 0.5));&quot;&gt;Потеря данных&lt;/li&gt;&lt;/ul&gt;" style="whiteSpace=wrap;html=1;rounded=1;arcSize=50;align=center;verticalAlign=middle;strokeWidth=1;autosize=1;spacing=4;treeFolding=1;treeMoving=1;newEdgeStyle={&quot;edgeStyle&quot;:&quot;entityRelationEdgeStyle&quot;,&quot;startArrow&quot;:&quot;none&quot;,&quot;endArrow&quot;:&quot;none&quot;,&quot;segment&quot;:10,&quot;curved&quot;:1,&quot;sourcePerimeterSpacing&quot;:0,&quot;targetPerimeterSpacing&quot;:0};" vertex="1" parent="1">
          <mxGeometry x="1240" y="930" width="200" height="70" as="geometry" />
        </mxCell>
        <mxCell id="0ImZA-_981zlYSz6AfB6-95" style="edgeStyle=entityRelationEdgeStyle;rounded=0;orthogonalLoop=1;jettySize=auto;html=1;startArrow=none;endArrow=none;segment=10;curved=1;sourcePerimeterSpacing=0;targetPerimeterSpacing=0;entryX=0;entryY=0.5;entryDx=0;entryDy=0;" edge="1" parent="1" source="0ImZA-_981zlYSz6AfB6-92" target="0ImZA-_981zlYSz6AfB6-94">
          <mxGeometry relative="1" as="geometry" />
        </mxCell>
        <mxCell id="0ImZA-_981zlYSz6AfB6-92" value="&lt;ul style=&quot;box-sizing: inherit; margin-top: var(--size-300, var(--base-unit, calc(1rem * var(--base-ratio, 1)))); padding: 0 0 0 var(--size-700, calc(var(--base-unit, calc(1rem * var(--base-ratio, 1))) * 2)); list-style: none; color: rgba(0, 0, 0, 0.85); font-family: &amp;quot;YS Text&amp;quot;, sans-serif; font-size: 18px; text-align: start; background-color: rgb(255, 255, 255);&quot;&gt;&lt;li style=&quot;box-sizing: inherit; position: relative; margin: 0 0 var(--size-100, calc(var(--base-unit, calc(1rem * var(--base-ratio, 1))) * 0.5));&quot;&gt;&lt;span style=&quot;white-space-collapse: preserve-breaks;&quot;&gt;Риск: &lt;/span&gt;&lt;span style=&quot;white-space-collapse: preserve;&quot;&gt;незначительно&lt;/span&gt;&lt;/li&gt;&lt;/ul&gt;" style="whiteSpace=wrap;html=1;rounded=1;arcSize=50;align=center;verticalAlign=middle;strokeWidth=1;autosize=1;spacing=4;treeFolding=1;treeMoving=1;newEdgeStyle={&quot;edgeStyle&quot;:&quot;entityRelationEdgeStyle&quot;,&quot;startArrow&quot;:&quot;none&quot;,&quot;endArrow&quot;:&quot;none&quot;,&quot;segment&quot;:10,&quot;curved&quot;:1,&quot;sourcePerimeterSpacing&quot;:0,&quot;targetPerimeterSpacing&quot;:0};" vertex="1" parent="1">
          <mxGeometry x="1555" y="-60" width="250" height="70" as="geometry" />
        </mxCell>
        <mxCell id="0ImZA-_981zlYSz6AfB6-94" value="&lt;ul style=&quot;box-sizing: inherit; margin-top: var(--size-300, var(--base-unit, calc(1rem * var(--base-ratio, 1)))); padding: 0 0 0 var(--size-700, calc(var(--base-unit, calc(1rem * var(--base-ratio, 1))) * 2)); white-space-collapse: preserve-breaks; list-style: none; color: rgba(0, 0, 0, 0.85); font-family: &amp;quot;YS Text&amp;quot;, sans-serif; font-size: 18px; text-align: start; background-color: rgb(255, 255, 255);&quot;&gt;&lt;li style=&quot;box-sizing: inherit; position: relative; margin: 0 0 var(--size-100, calc(var(--base-unit, calc(1rem * var(--base-ratio, 1))) * 0.5));&quot;&gt;Репутационные потери, ухудшение сервиса&lt;/li&gt;&lt;/ul&gt;" style="whiteSpace=wrap;html=1;rounded=1;arcSize=50;align=center;verticalAlign=middle;strokeWidth=1;autosize=1;spacing=4;treeFolding=1;treeMoving=1;newEdgeStyle={&quot;edgeStyle&quot;:&quot;entityRelationEdgeStyle&quot;,&quot;startArrow&quot;:&quot;none&quot;,&quot;endArrow&quot;:&quot;none&quot;,&quot;segment&quot;:10,&quot;curved&quot;:1,&quot;sourcePerimeterSpacing&quot;:0,&quot;targetPerimeterSpacing&quot;:0};" vertex="1" parent="1">
          <mxGeometry x="1910" y="-60" width="440" height="70" as="geometry" />
        </mxCell>
        <mxCell id="0ImZA-_981zlYSz6AfB6-100" style="edgeStyle=entityRelationEdgeStyle;rounded=0;orthogonalLoop=1;jettySize=auto;html=1;startArrow=none;endArrow=none;segment=10;curved=1;sourcePerimeterSpacing=0;targetPerimeterSpacing=0;entryX=0;entryY=0.5;entryDx=0;entryDy=0;" edge="1" parent="1" source="0ImZA-_981zlYSz6AfB6-96" target="0ImZA-_981zlYSz6AfB6-98">
          <mxGeometry relative="1" as="geometry" />
        </mxCell>
        <mxCell id="0ImZA-_981zlYSz6AfB6-96" value="&lt;ul style=&quot;box-sizing: inherit; margin-top: var(--size-300, var(--base-unit, calc(1rem * var(--base-ratio, 1)))); padding: 0 0 0 var(--size-700, calc(var(--base-unit, calc(1rem * var(--base-ratio, 1))) * 2)); list-style: none; color: rgba(0, 0, 0, 0.85); font-family: &amp;quot;YS Text&amp;quot;, sans-serif; font-size: 18px; text-align: start; background-color: rgb(255, 255, 255);&quot;&gt;&lt;li style=&quot;box-sizing: inherit; position: relative; margin: 0 0 var(--size-100, calc(var(--base-unit, calc(1rem * var(--base-ratio, 1))) * 0.5));&quot;&gt;&lt;span style=&quot;white-space-collapse: preserve-breaks;&quot;&gt;Риск: &lt;/span&gt;&lt;span style=&quot;white-space-collapse: preserve;&quot;&gt;незначительный&lt;/span&gt;&lt;/li&gt;&lt;/ul&gt;" style="whiteSpace=wrap;html=1;rounded=1;arcSize=50;align=center;verticalAlign=middle;strokeWidth=1;autosize=1;spacing=4;treeFolding=1;treeMoving=1;newEdgeStyle={&quot;edgeStyle&quot;:&quot;entityRelationEdgeStyle&quot;,&quot;startArrow&quot;:&quot;none&quot;,&quot;endArrow&quot;:&quot;none&quot;,&quot;segment&quot;:10,&quot;curved&quot;:1,&quot;sourcePerimeterSpacing&quot;:0,&quot;targetPerimeterSpacing&quot;:0};" vertex="1" parent="1">
          <mxGeometry x="1560" y="40" width="260" height="70" as="geometry" />
        </mxCell>
        <mxCell id="0ImZA-_981zlYSz6AfB6-98" value="&lt;ul style=&quot;box-sizing: inherit; margin-top: var(--size-300, var(--base-unit, calc(1rem * var(--base-ratio, 1)))); padding: 0 0 0 var(--size-700, calc(var(--base-unit, calc(1rem * var(--base-ratio, 1))) * 2)); white-space-collapse: preserve-breaks; list-style: none; color: rgba(0, 0, 0, 0.85); font-family: &amp;quot;YS Text&amp;quot;, sans-serif; font-size: 18px; text-align: start; background-color: rgb(255, 255, 255);&quot;&gt;&lt;li style=&quot;box-sizing: inherit; position: relative; margin: 0 0 var(--size-100, calc(var(--base-unit, calc(1rem * var(--base-ratio, 1))) * 0.5));&quot;&gt;Репутационные потери&lt;/li&gt;&lt;/ul&gt;" style="whiteSpace=wrap;html=1;rounded=1;arcSize=50;align=center;verticalAlign=middle;strokeWidth=1;autosize=1;spacing=4;treeFolding=1;treeMoving=1;newEdgeStyle={&quot;edgeStyle&quot;:&quot;entityRelationEdgeStyle&quot;,&quot;startArrow&quot;:&quot;none&quot;,&quot;endArrow&quot;:&quot;none&quot;,&quot;segment&quot;:10,&quot;curved&quot;:1,&quot;sourcePerimeterSpacing&quot;:0,&quot;targetPerimeterSpacing&quot;:0};" vertex="1" parent="1">
          <mxGeometry x="1910" y="40" width="270" height="70" as="geometry" />
        </mxCell>
        <mxCell id="0ImZA-_981zlYSz6AfB6-101" value="&lt;ul style=&quot;box-sizing: inherit; margin-top: var(--size-300, var(--base-unit, calc(1rem * var(--base-ratio, 1)))); padding: 0 0 0 var(--size-700, calc(var(--base-unit, calc(1rem * var(--base-ratio, 1))) * 2)); list-style: none; color: rgba(0, 0, 0, 0.85); font-family: &amp;quot;YS Text&amp;quot;, sans-serif; font-size: 18px; text-align: start; background-color: rgb(255, 255, 255);&quot;&gt;&lt;li style=&quot;box-sizing: inherit; position: relative; margin: 0 0 var(--size-100, calc(var(--base-unit, calc(1rem * var(--base-ratio, 1))) * 0.5));&quot;&gt;&lt;span style=&quot;white-space-collapse: preserve-breaks;&quot;&gt;Риск: &lt;/span&gt;&lt;span style=&quot;white-space-collapse: preserve;&quot;&gt;незначительный&lt;/span&gt;&lt;/li&gt;&lt;/ul&gt;" style="whiteSpace=wrap;html=1;rounded=1;arcSize=50;align=center;verticalAlign=middle;strokeWidth=1;autosize=1;spacing=4;treeFolding=1;treeMoving=1;newEdgeStyle={&quot;edgeStyle&quot;:&quot;entityRelationEdgeStyle&quot;,&quot;startArrow&quot;:&quot;none&quot;,&quot;endArrow&quot;:&quot;none&quot;,&quot;segment&quot;:10,&quot;curved&quot;:1,&quot;sourcePerimeterSpacing&quot;:0,&quot;targetPerimeterSpacing&quot;:0};" vertex="1" parent="1">
          <mxGeometry x="1555" y="135" width="260" height="70" as="geometry" />
        </mxCell>
        <mxCell id="0ImZA-_981zlYSz6AfB6-103" value="&lt;ul style=&quot;box-sizing: inherit; margin-top: var(--size-300, var(--base-unit, calc(1rem * var(--base-ratio, 1)))); padding: 0 0 0 var(--size-700, calc(var(--base-unit, calc(1rem * var(--base-ratio, 1))) * 2)); white-space-collapse: preserve-breaks; list-style: none; color: rgba(0, 0, 0, 0.85); font-family: &amp;quot;YS Text&amp;quot;, sans-serif; font-size: 18px; text-align: start; background-color: rgb(255, 255, 255);&quot;&gt;&lt;li style=&quot;box-sizing: inherit; position: relative; margin: 0 0 var(--size-100, calc(var(--base-unit, calc(1rem * var(--base-ratio, 1))) * 0.5));&quot;&gt;ухудшение сервиса&lt;/li&gt;&lt;/ul&gt;" style="whiteSpace=wrap;html=1;rounded=1;arcSize=50;align=center;verticalAlign=middle;strokeWidth=1;autosize=1;spacing=4;treeFolding=1;treeMoving=1;newEdgeStyle={&quot;edgeStyle&quot;:&quot;entityRelationEdgeStyle&quot;,&quot;startArrow&quot;:&quot;none&quot;,&quot;endArrow&quot;:&quot;none&quot;,&quot;segment&quot;:10,&quot;curved&quot;:1,&quot;sourcePerimeterSpacing&quot;:0,&quot;targetPerimeterSpacing&quot;:0};" vertex="1" parent="1">
          <mxGeometry x="1910" y="140" width="240" height="70" as="geometry" />
        </mxCell>
        <mxCell id="0ImZA-_981zlYSz6AfB6-104" style="edgeStyle=entityRelationEdgeStyle;rounded=0;orthogonalLoop=1;jettySize=auto;html=1;startArrow=none;endArrow=none;segment=10;curved=1;sourcePerimeterSpacing=0;targetPerimeterSpacing=0;entryX=-0.013;entryY=0.414;entryDx=0;entryDy=0;entryPerimeter=0;" edge="1" parent="1" source="0ImZA-_981zlYSz6AfB6-101" target="0ImZA-_981zlYSz6AfB6-103">
          <mxGeometry relative="1" as="geometry" />
        </mxCell>
        <mxCell id="0ImZA-_981zlYSz6AfB6-108" style="edgeStyle=entityRelationEdgeStyle;rounded=0;orthogonalLoop=1;jettySize=auto;html=1;startArrow=none;endArrow=none;segment=10;curved=1;sourcePerimeterSpacing=0;targetPerimeterSpacing=0;entryX=0;entryY=0.5;entryDx=0;entryDy=0;" edge="1" parent="1" source="0ImZA-_981zlYSz6AfB6-105" target="0ImZA-_981zlYSz6AfB6-107">
          <mxGeometry relative="1" as="geometry" />
        </mxCell>
        <mxCell id="0ImZA-_981zlYSz6AfB6-105" value="&lt;ul style=&quot;box-sizing: inherit; margin-top: var(--size-300, var(--base-unit, calc(1rem * var(--base-ratio, 1)))); padding: 0 0 0 var(--size-700, calc(var(--base-unit, calc(1rem * var(--base-ratio, 1))) * 2)); list-style: none; color: rgba(0, 0, 0, 0.85); font-family: &amp;quot;YS Text&amp;quot;, sans-serif; font-size: 18px; text-align: start; background-color: rgb(255, 255, 255);&quot;&gt;&lt;li style=&quot;box-sizing: inherit; position: relative; margin: 0 0 var(--size-100, calc(var(--base-unit, calc(1rem * var(--base-ratio, 1))) * 0.5));&quot;&gt;&lt;span style=&quot;white-space-collapse: preserve-breaks;&quot;&gt;Риск: &lt;/span&gt;&lt;span style=&quot;white-space-collapse: preserve;&quot;&gt;значительный&lt;/span&gt;&lt;/li&gt;&lt;/ul&gt;" style="whiteSpace=wrap;html=1;rounded=1;arcSize=50;align=center;verticalAlign=middle;strokeWidth=1;autosize=1;spacing=4;treeFolding=1;treeMoving=1;newEdgeStyle={&quot;edgeStyle&quot;:&quot;entityRelationEdgeStyle&quot;,&quot;startArrow&quot;:&quot;none&quot;,&quot;endArrow&quot;:&quot;none&quot;,&quot;segment&quot;:10,&quot;curved&quot;:1,&quot;sourcePerimeterSpacing&quot;:0,&quot;targetPerimeterSpacing&quot;:0};" vertex="1" parent="1">
          <mxGeometry x="1570" y="230" width="240" height="70" as="geometry" />
        </mxCell>
        <mxCell id="0ImZA-_981zlYSz6AfB6-107" value="&lt;ul style=&quot;box-sizing: inherit; margin-top: var(--size-300, var(--base-unit, calc(1rem * var(--base-ratio, 1)))); padding: 0 0 0 var(--size-700, calc(var(--base-unit, calc(1rem * var(--base-ratio, 1))) * 2)); white-space-collapse: preserve-breaks; list-style: none; color: rgba(0, 0, 0, 0.85); font-family: &amp;quot;YS Text&amp;quot;, sans-serif; font-size: 18px; text-align: start; background-color: rgb(255, 255, 255);&quot;&gt;&lt;li style=&quot;box-sizing: inherit; position: relative; margin: 0 0 var(--size-100, calc(var(--base-unit, calc(1rem * var(--base-ratio, 1))) * 0.5));&quot;&gt;Репутационные потери, упростит злоумышленнику нахождение уязвимостей&lt;/li&gt;&lt;/ul&gt;" style="whiteSpace=wrap;html=1;rounded=1;arcSize=50;align=center;verticalAlign=middle;strokeWidth=1;autosize=1;spacing=4;treeFolding=1;treeMoving=1;newEdgeStyle={&quot;edgeStyle&quot;:&quot;entityRelationEdgeStyle&quot;,&quot;startArrow&quot;:&quot;none&quot;,&quot;endArrow&quot;:&quot;none&quot;,&quot;segment&quot;:10,&quot;curved&quot;:1,&quot;sourcePerimeterSpacing&quot;:0,&quot;targetPerimeterSpacing&quot;:0};" vertex="1" parent="1">
          <mxGeometry x="1900" y="230" width="720" height="70" as="geometry" />
        </mxCell>
        <mxCell id="0ImZA-_981zlYSz6AfB6-112" style="edgeStyle=entityRelationEdgeStyle;rounded=0;orthogonalLoop=1;jettySize=auto;html=1;startArrow=none;endArrow=none;segment=10;curved=1;sourcePerimeterSpacing=0;targetPerimeterSpacing=0;entryX=0;entryY=0.5;entryDx=0;entryDy=0;" edge="1" parent="1" source="0ImZA-_981zlYSz6AfB6-109" target="0ImZA-_981zlYSz6AfB6-111">
          <mxGeometry relative="1" as="geometry" />
        </mxCell>
        <mxCell id="0ImZA-_981zlYSz6AfB6-109" value="&lt;ul style=&quot;box-sizing: inherit; margin-top: var(--size-300, var(--base-unit, calc(1rem * var(--base-ratio, 1)))); padding: 0 0 0 var(--size-700, calc(var(--base-unit, calc(1rem * var(--base-ratio, 1))) * 2)); list-style: none; color: rgba(0, 0, 0, 0.85); font-family: &amp;quot;YS Text&amp;quot;, sans-serif; font-size: 18px; text-align: start; background-color: rgb(255, 255, 255);&quot;&gt;&lt;li style=&quot;box-sizing: inherit; position: relative; margin: 0 0 var(--size-100, calc(var(--base-unit, calc(1rem * var(--base-ratio, 1))) * 0.5));&quot;&gt;&lt;span style=&quot;white-space-collapse: preserve-breaks;&quot;&gt;Риск: &lt;/span&gt;&lt;span style=&quot;white-space-collapse: preserve;&quot;&gt;незначительный&lt;/span&gt;&lt;/li&gt;&lt;/ul&gt;" style="whiteSpace=wrap;html=1;rounded=1;arcSize=50;align=center;verticalAlign=middle;strokeWidth=1;autosize=1;spacing=4;treeFolding=1;treeMoving=1;newEdgeStyle={&quot;edgeStyle&quot;:&quot;entityRelationEdgeStyle&quot;,&quot;startArrow&quot;:&quot;none&quot;,&quot;endArrow&quot;:&quot;none&quot;,&quot;segment&quot;:10,&quot;curved&quot;:1,&quot;sourcePerimeterSpacing&quot;:0,&quot;targetPerimeterSpacing&quot;:0};" vertex="1" parent="1">
          <mxGeometry x="1555" y="340" width="260" height="70" as="geometry" />
        </mxCell>
        <mxCell id="0ImZA-_981zlYSz6AfB6-110" style="edgeStyle=entityRelationEdgeStyle;rounded=0;orthogonalLoop=1;jettySize=auto;html=1;startArrow=none;endArrow=none;segment=10;curved=1;sourcePerimeterSpacing=0;targetPerimeterSpacing=0;entryX=0.02;entryY=0.414;entryDx=0;entryDy=0;entryPerimeter=0;" edge="1" parent="1" source="0ImZA-_981zlYSz6AfB6-47" target="0ImZA-_981zlYSz6AfB6-109">
          <mxGeometry relative="1" as="geometry" />
        </mxCell>
        <mxCell id="0ImZA-_981zlYSz6AfB6-111" value="&lt;ul style=&quot;box-sizing: inherit; margin-top: var(--size-300, var(--base-unit, calc(1rem * var(--base-ratio, 1)))); padding: 0 0 0 var(--size-700, calc(var(--base-unit, calc(1rem * var(--base-ratio, 1))) * 2)); white-space-collapse: preserve-breaks; list-style: none; color: rgba(0, 0, 0, 0.85); font-family: &amp;quot;YS Text&amp;quot;, sans-serif; font-size: 18px; text-align: start; background-color: rgb(255, 255, 255);&quot;&gt;&lt;li style=&quot;box-sizing: inherit; position: relative; margin: 0 0 var(--size-100, calc(var(--base-unit, calc(1rem * var(--base-ratio, 1))) * 0.5));&quot;&gt;трата времени на восстановление&amp;nbsp;&amp;nbsp;&lt;/li&gt;&lt;/ul&gt;" style="whiteSpace=wrap;html=1;rounded=1;arcSize=50;align=center;verticalAlign=middle;strokeWidth=1;autosize=1;spacing=4;treeFolding=1;treeMoving=1;newEdgeStyle={&quot;edgeStyle&quot;:&quot;entityRelationEdgeStyle&quot;,&quot;startArrow&quot;:&quot;none&quot;,&quot;endArrow&quot;:&quot;none&quot;,&quot;segment&quot;:10,&quot;curved&quot;:1,&quot;sourcePerimeterSpacing&quot;:0,&quot;targetPerimeterSpacing&quot;:0};" vertex="1" parent="1">
          <mxGeometry x="1900" y="340" width="370" height="70" as="geometry" />
        </mxCell>
        <mxCell id="0ImZA-_981zlYSz6AfB6-116" style="edgeStyle=entityRelationEdgeStyle;rounded=0;orthogonalLoop=1;jettySize=auto;html=1;startArrow=none;endArrow=none;segment=10;curved=1;sourcePerimeterSpacing=0;targetPerimeterSpacing=0;entryX=0;entryY=0.5;entryDx=0;entryDy=0;" edge="1" parent="1" source="0ImZA-_981zlYSz6AfB6-113" target="0ImZA-_981zlYSz6AfB6-115">
          <mxGeometry relative="1" as="geometry" />
        </mxCell>
        <mxCell id="0ImZA-_981zlYSz6AfB6-113" value="&lt;ul style=&quot;box-sizing: inherit; margin-top: var(--size-300, var(--base-unit, calc(1rem * var(--base-ratio, 1)))); padding: 0 0 0 var(--size-700, calc(var(--base-unit, calc(1rem * var(--base-ratio, 1))) * 2)); list-style: none; color: rgba(0, 0, 0, 0.85); font-family: &amp;quot;YS Text&amp;quot;, sans-serif; font-size: 18px; text-align: start; background-color: rgb(255, 255, 255);&quot;&gt;&lt;li style=&quot;box-sizing: inherit; position: relative; margin: 0 0 var(--size-100, calc(var(--base-unit, calc(1rem * var(--base-ratio, 1))) * 0.5));&quot;&gt;&lt;span style=&quot;white-space-collapse: preserve-breaks;&quot;&gt;Риск: &lt;/span&gt;&lt;span style=&quot;white-space-collapse: preserve;&quot;&gt;незначительный&lt;/span&gt;&lt;/li&gt;&lt;/ul&gt;" style="whiteSpace=wrap;html=1;rounded=1;arcSize=50;align=center;verticalAlign=middle;strokeWidth=1;autosize=1;spacing=4;treeFolding=1;treeMoving=1;newEdgeStyle={&quot;edgeStyle&quot;:&quot;entityRelationEdgeStyle&quot;,&quot;startArrow&quot;:&quot;none&quot;,&quot;endArrow&quot;:&quot;none&quot;,&quot;segment&quot;:10,&quot;curved&quot;:1,&quot;sourcePerimeterSpacing&quot;:0,&quot;targetPerimeterSpacing&quot;:0};" vertex="1" parent="1">
          <mxGeometry x="1555" y="450" width="260" height="70" as="geometry" />
        </mxCell>
        <mxCell id="0ImZA-_981zlYSz6AfB6-115" value="&lt;ul style=&quot;box-sizing: inherit; margin-top: var(--size-300, var(--base-unit, calc(1rem * var(--base-ratio, 1)))); padding: 0 0 0 var(--size-700, calc(var(--base-unit, calc(1rem * var(--base-ratio, 1))) * 2)); white-space-collapse: preserve-breaks; list-style: none; color: rgba(0, 0, 0, 0.85); font-family: &amp;quot;YS Text&amp;quot;, sans-serif; font-size: 18px; text-align: start; background-color: rgb(255, 255, 255);&quot;&gt;&lt;li style=&quot;box-sizing: inherit; position: relative; margin: 0 0 var(--size-100, calc(var(--base-unit, calc(1rem * var(--base-ratio, 1))) * 0.5));&quot;&gt;Репутационные потери&lt;/li&gt;&lt;/ul&gt;" style="whiteSpace=wrap;html=1;rounded=1;arcSize=50;align=center;verticalAlign=middle;strokeWidth=1;autosize=1;spacing=4;treeFolding=1;treeMoving=1;newEdgeStyle={&quot;edgeStyle&quot;:&quot;entityRelationEdgeStyle&quot;,&quot;startArrow&quot;:&quot;none&quot;,&quot;endArrow&quot;:&quot;none&quot;,&quot;segment&quot;:10,&quot;curved&quot;:1,&quot;sourcePerimeterSpacing&quot;:0,&quot;targetPerimeterSpacing&quot;:0};" vertex="1" parent="1">
          <mxGeometry x="1950" y="450" width="270" height="70" as="geometry" />
        </mxCell>
        <mxCell id="0ImZA-_981zlYSz6AfB6-120" style="edgeStyle=entityRelationEdgeStyle;rounded=0;orthogonalLoop=1;jettySize=auto;html=1;startArrow=none;endArrow=none;segment=10;curved=1;sourcePerimeterSpacing=0;targetPerimeterSpacing=0;entryX=0;entryY=0.5;entryDx=0;entryDy=0;" edge="1" parent="1" source="0ImZA-_981zlYSz6AfB6-117" target="0ImZA-_981zlYSz6AfB6-119">
          <mxGeometry relative="1" as="geometry" />
        </mxCell>
        <mxCell id="0ImZA-_981zlYSz6AfB6-117" value="&lt;ul style=&quot;box-sizing: inherit; margin-top: var(--size-300, var(--base-unit, calc(1rem * var(--base-ratio, 1)))); padding: 0 0 0 var(--size-700, calc(var(--base-unit, calc(1rem * var(--base-ratio, 1))) * 2)); list-style: none; color: rgba(0, 0, 0, 0.85); font-family: &amp;quot;YS Text&amp;quot;, sans-serif; font-size: 18px; text-align: start; background-color: rgb(255, 255, 255);&quot;&gt;&lt;li style=&quot;box-sizing: inherit; position: relative; margin: 0 0 var(--size-100, calc(var(--base-unit, calc(1rem * var(--base-ratio, 1))) * 0.5));&quot;&gt;&lt;span style=&quot;white-space-collapse: preserve-breaks;&quot;&gt;Риск: &lt;/span&gt;&lt;span style=&quot;white-space-collapse: preserve;&quot;&gt;незначительный&lt;/span&gt;&lt;/li&gt;&lt;/ul&gt;" style="whiteSpace=wrap;html=1;rounded=1;arcSize=50;align=center;verticalAlign=middle;strokeWidth=1;autosize=1;spacing=4;treeFolding=1;treeMoving=1;newEdgeStyle={&quot;edgeStyle&quot;:&quot;entityRelationEdgeStyle&quot;,&quot;startArrow&quot;:&quot;none&quot;,&quot;endArrow&quot;:&quot;none&quot;,&quot;segment&quot;:10,&quot;curved&quot;:1,&quot;sourcePerimeterSpacing&quot;:0,&quot;targetPerimeterSpacing&quot;:0};" vertex="1" parent="1">
          <mxGeometry x="1550" y="570" width="260" height="70" as="geometry" />
        </mxCell>
        <mxCell id="0ImZA-_981zlYSz6AfB6-119" value="&lt;ul style=&quot;box-sizing: inherit; margin-top: var(--size-300, var(--base-unit, calc(1rem * var(--base-ratio, 1)))); padding: 0 0 0 var(--size-700, calc(var(--base-unit, calc(1rem * var(--base-ratio, 1))) * 2)); white-space-collapse: preserve-breaks; list-style: none; color: rgba(0, 0, 0, 0.85); font-family: &amp;quot;YS Text&amp;quot;, sans-serif; font-size: 18px; text-align: start; background-color: rgb(255, 255, 255);&quot;&gt;&lt;li style=&quot;box-sizing: inherit; position: relative; margin: 0 0 var(--size-100, calc(var(--base-unit, calc(1rem * var(--base-ratio, 1))) * 0.5));&quot;&gt;Покупателю придётся провести онлайн тур ещё раз&lt;/li&gt;&lt;/ul&gt;" style="whiteSpace=wrap;html=1;rounded=1;arcSize=50;align=center;verticalAlign=middle;strokeWidth=1;autosize=1;spacing=4;treeFolding=1;treeMoving=1;newEdgeStyle={&quot;edgeStyle&quot;:&quot;entityRelationEdgeStyle&quot;,&quot;startArrow&quot;:&quot;none&quot;,&quot;endArrow&quot;:&quot;none&quot;,&quot;segment&quot;:10,&quot;curved&quot;:1,&quot;sourcePerimeterSpacing&quot;:0,&quot;targetPerimeterSpacing&quot;:0};" vertex="1" parent="1">
          <mxGeometry x="1920" y="570" width="510" height="70" as="geometry" />
        </mxCell>
        <mxCell id="0ImZA-_981zlYSz6AfB6-124" style="edgeStyle=entityRelationEdgeStyle;rounded=0;orthogonalLoop=1;jettySize=auto;html=1;startArrow=none;endArrow=none;segment=10;curved=1;sourcePerimeterSpacing=0;targetPerimeterSpacing=0;entryX=0;entryY=0.5;entryDx=0;entryDy=0;" edge="1" parent="1" source="0ImZA-_981zlYSz6AfB6-121" target="0ImZA-_981zlYSz6AfB6-123">
          <mxGeometry relative="1" as="geometry" />
        </mxCell>
        <mxCell id="0ImZA-_981zlYSz6AfB6-121" value="&lt;ul style=&quot;box-sizing: inherit; margin-top: var(--size-300, var(--base-unit, calc(1rem * var(--base-ratio, 1)))); padding: 0 0 0 var(--size-700, calc(var(--base-unit, calc(1rem * var(--base-ratio, 1))) * 2)); list-style: none; color: rgba(0, 0, 0, 0.85); font-family: &amp;quot;YS Text&amp;quot;, sans-serif; font-size: 18px; text-align: start; background-color: rgb(255, 255, 255);&quot;&gt;&lt;li style=&quot;box-sizing: inherit; position: relative; margin: 0 0 var(--size-100, calc(var(--base-unit, calc(1rem * var(--base-ratio, 1))) * 0.5));&quot;&gt;&lt;span style=&quot;white-space-collapse: preserve-breaks;&quot;&gt;Риск: &lt;/span&gt;&lt;span style=&quot;white-space-collapse: preserve;&quot;&gt;незначительный&lt;/span&gt;&lt;/li&gt;&lt;/ul&gt;" style="whiteSpace=wrap;html=1;rounded=1;arcSize=50;align=center;verticalAlign=middle;strokeWidth=1;autosize=1;spacing=4;treeFolding=1;treeMoving=1;newEdgeStyle={&quot;edgeStyle&quot;:&quot;entityRelationEdgeStyle&quot;,&quot;startArrow&quot;:&quot;none&quot;,&quot;endArrow&quot;:&quot;none&quot;,&quot;segment&quot;:10,&quot;curved&quot;:1,&quot;sourcePerimeterSpacing&quot;:0,&quot;targetPerimeterSpacing&quot;:0};" vertex="1" parent="1">
          <mxGeometry x="1550" y="710" width="260" height="70" as="geometry" />
        </mxCell>
        <mxCell id="0ImZA-_981zlYSz6AfB6-123" value="&lt;ul style=&quot;box-sizing: inherit; margin-top: var(--size-300, var(--base-unit, calc(1rem * var(--base-ratio, 1)))); padding: 0 0 0 var(--size-700, calc(var(--base-unit, calc(1rem * var(--base-ratio, 1))) * 2)); white-space-collapse: preserve-breaks; list-style: none; color: rgba(0, 0, 0, 0.85); font-family: &amp;quot;YS Text&amp;quot;, sans-serif; font-size: 18px; text-align: start; background-color: rgb(255, 255, 255);&quot;&gt;&lt;li style=&quot;box-sizing: inherit; position: relative; margin: 0 0 var(--size-100, calc(var(--base-unit, calc(1rem * var(--base-ratio, 1))) * 0.5));&quot;&gt;Репутационные потери&lt;/li&gt;&lt;/ul&gt;" style="whiteSpace=wrap;html=1;rounded=1;arcSize=50;align=center;verticalAlign=middle;strokeWidth=1;autosize=1;spacing=4;treeFolding=1;treeMoving=1;newEdgeStyle={&quot;edgeStyle&quot;:&quot;entityRelationEdgeStyle&quot;,&quot;startArrow&quot;:&quot;none&quot;,&quot;endArrow&quot;:&quot;none&quot;,&quot;segment&quot;:10,&quot;curved&quot;:1,&quot;sourcePerimeterSpacing&quot;:0,&quot;targetPerimeterSpacing&quot;:0};" vertex="1" parent="1">
          <mxGeometry x="1920" y="700" width="270" height="70" as="geometry" />
        </mxCell>
        <mxCell id="0ImZA-_981zlYSz6AfB6-130" style="edgeStyle=entityRelationEdgeStyle;rounded=0;orthogonalLoop=1;jettySize=auto;html=1;startArrow=none;endArrow=none;segment=10;curved=1;sourcePerimeterSpacing=0;targetPerimeterSpacing=0;entryX=0;entryY=0.5;entryDx=0;entryDy=0;" edge="1" parent="1" source="0ImZA-_981zlYSz6AfB6-125" target="0ImZA-_981zlYSz6AfB6-129">
          <mxGeometry relative="1" as="geometry" />
        </mxCell>
        <mxCell id="0ImZA-_981zlYSz6AfB6-125" value="&lt;ul style=&quot;box-sizing: inherit; margin-top: var(--size-300, var(--base-unit, calc(1rem * var(--base-ratio, 1)))); padding: 0 0 0 var(--size-700, calc(var(--base-unit, calc(1rem * var(--base-ratio, 1))) * 2)); list-style: none; color: rgba(0, 0, 0, 0.85); font-family: &amp;quot;YS Text&amp;quot;, sans-serif; font-size: 18px; text-align: start; background-color: rgb(255, 255, 255);&quot;&gt;&lt;li style=&quot;box-sizing: inherit; position: relative; margin: 0 0 var(--size-100, calc(var(--base-unit, calc(1rem * var(--base-ratio, 1))) * 0.5));&quot;&gt;&lt;span style=&quot;white-space-collapse: preserve-breaks;&quot;&gt;Риск: &lt;/span&gt;&lt;span style=&quot;white-space-collapse: preserve;&quot;&gt;критический&lt;/span&gt;&lt;/li&gt;&lt;/ul&gt;" style="whiteSpace=wrap;html=1;rounded=1;arcSize=50;align=center;verticalAlign=middle;strokeWidth=1;autosize=1;spacing=4;treeFolding=1;treeMoving=1;newEdgeStyle={&quot;edgeStyle&quot;:&quot;entityRelationEdgeStyle&quot;,&quot;startArrow&quot;:&quot;none&quot;,&quot;endArrow&quot;:&quot;none&quot;,&quot;segment&quot;:10,&quot;curved&quot;:1,&quot;sourcePerimeterSpacing&quot;:0,&quot;targetPerimeterSpacing&quot;:0};" vertex="1" parent="1">
          <mxGeometry x="1580" y="930" width="230" height="70" as="geometry" />
        </mxCell>
        <mxCell id="0ImZA-_981zlYSz6AfB6-127" style="edgeStyle=entityRelationEdgeStyle;rounded=0;orthogonalLoop=1;jettySize=auto;html=1;startArrow=none;endArrow=none;segment=10;curved=1;sourcePerimeterSpacing=0;targetPerimeterSpacing=0;entryX=0.033;entryY=0.714;entryDx=0;entryDy=0;entryPerimeter=0;" edge="1" parent="1" source="0ImZA-_981zlYSz6AfB6-89" target="0ImZA-_981zlYSz6AfB6-125">
          <mxGeometry relative="1" as="geometry" />
        </mxCell>
        <mxCell id="0ImZA-_981zlYSz6AfB6-129" value="&lt;ul style=&quot;box-sizing: inherit; margin-top: var(--size-300, var(--base-unit, calc(1rem * var(--base-ratio, 1)))); padding: 0 0 0 var(--size-700, calc(var(--base-unit, calc(1rem * var(--base-ratio, 1))) * 2)); white-space-collapse: preserve-breaks; list-style: none; color: rgba(0, 0, 0, 0.85); font-family: &amp;quot;YS Text&amp;quot;, sans-serif; font-size: 18px; text-align: start; background-color: rgb(255, 255, 255);&quot;&gt;&lt;li style=&quot;box-sizing: inherit; position: relative; margin: 0 0 var(--size-100, calc(var(--base-unit, calc(1rem * var(--base-ratio, 1))) * 0.5));&quot;&gt;Проблемы функционирования организации&lt;/li&gt;&lt;/ul&gt;" style="whiteSpace=wrap;html=1;rounded=1;arcSize=50;align=center;verticalAlign=middle;strokeWidth=1;autosize=1;spacing=4;treeFolding=1;treeMoving=1;newEdgeStyle={&quot;edgeStyle&quot;:&quot;entityRelationEdgeStyle&quot;,&quot;startArrow&quot;:&quot;none&quot;,&quot;endArrow&quot;:&quot;none&quot;,&quot;segment&quot;:10,&quot;curved&quot;:1,&quot;sourcePerimeterSpacing&quot;:0,&quot;targetPerimeterSpacing&quot;:0};" vertex="1" parent="1">
          <mxGeometry x="1900" y="910" width="440" height="70" as="geometry" />
        </mxCell>
        <mxCell id="0ImZA-_981zlYSz6AfB6-134" style="edgeStyle=entityRelationEdgeStyle;rounded=0;orthogonalLoop=1;jettySize=auto;html=1;startArrow=none;endArrow=none;segment=10;curved=1;sourcePerimeterSpacing=0;targetPerimeterSpacing=0;entryX=0;entryY=0.5;entryDx=0;entryDy=0;" edge="1" parent="1" source="0ImZA-_981zlYSz6AfB6-131" target="0ImZA-_981zlYSz6AfB6-133">
          <mxGeometry relative="1" as="geometry" />
        </mxCell>
        <mxCell id="0ImZA-_981zlYSz6AfB6-131" value="&lt;ul style=&quot;box-sizing: inherit; margin-top: var(--size-300, var(--base-unit, calc(1rem * var(--base-ratio, 1)))); padding: 0 0 0 var(--size-700, calc(var(--base-unit, calc(1rem * var(--base-ratio, 1))) * 2)); list-style: none; color: rgba(0, 0, 0, 0.85); font-family: &amp;quot;YS Text&amp;quot;, sans-serif; font-size: 18px; text-align: start; background-color: rgb(255, 255, 255);&quot;&gt;&lt;li style=&quot;box-sizing: inherit; position: relative; margin: 0 0 var(--size-100, calc(var(--base-unit, calc(1rem * var(--base-ratio, 1))) * 0.5));&quot;&gt;&lt;span style=&quot;white-space-collapse: preserve-breaks;&quot;&gt;Риск: &lt;/span&gt;&lt;span style=&quot;white-space-collapse: preserve;&quot;&gt;значительный&lt;/span&gt;&lt;/li&gt;&lt;/ul&gt;" style="whiteSpace=wrap;html=1;rounded=1;arcSize=50;align=center;verticalAlign=middle;strokeWidth=1;autosize=1;spacing=4;treeFolding=1;treeMoving=1;newEdgeStyle={&quot;edgeStyle&quot;:&quot;entityRelationEdgeStyle&quot;,&quot;startArrow&quot;:&quot;none&quot;,&quot;endArrow&quot;:&quot;none&quot;,&quot;segment&quot;:10,&quot;curved&quot;:1,&quot;sourcePerimeterSpacing&quot;:0,&quot;targetPerimeterSpacing&quot;:0};" vertex="1" parent="1">
          <mxGeometry x="1570" y="830" width="240" height="70" as="geometry" />
        </mxCell>
        <mxCell id="0ImZA-_981zlYSz6AfB6-133" value="&lt;ul style=&quot;box-sizing: inherit; margin-top: var(--size-300, var(--base-unit, calc(1rem * var(--base-ratio, 1)))); padding: 0 0 0 var(--size-700, calc(var(--base-unit, calc(1rem * var(--base-ratio, 1))) * 2)); white-space-collapse: preserve-breaks; list-style: none; color: rgba(0, 0, 0, 0.85); font-family: &amp;quot;YS Text&amp;quot;, sans-serif; font-size: 18px; text-align: start; background-color: rgb(255, 255, 255);&quot;&gt;&lt;li style=&quot;box-sizing: inherit; position: relative; margin: 0 0 var(--size-100, calc(var(--base-unit, calc(1rem * var(--base-ratio, 1))) * 0.5));&quot;&gt;Репутационные потери&lt;/li&gt;&lt;/ul&gt;" style="whiteSpace=wrap;html=1;rounded=1;arcSize=50;align=center;verticalAlign=middle;strokeWidth=1;autosize=1;spacing=4;treeFolding=1;treeMoving=1;newEdgeStyle={&quot;edgeStyle&quot;:&quot;entityRelationEdgeStyle&quot;,&quot;startArrow&quot;:&quot;none&quot;,&quot;endArrow&quot;:&quot;none&quot;,&quot;segment&quot;:10,&quot;curved&quot;:1,&quot;sourcePerimeterSpacing&quot;:0,&quot;targetPerimeterSpacing&quot;:0};" vertex="1" parent="1">
          <mxGeometry x="1920" y="820" width="270" height="70" as="geometry" />
        </mxCell>
        <mxCell id="0ImZA-_981zlYSz6AfB6-138" style="edgeStyle=entityRelationEdgeStyle;rounded=0;orthogonalLoop=1;jettySize=auto;html=1;startArrow=none;endArrow=none;segment=10;curved=1;sourcePerimeterSpacing=0;targetPerimeterSpacing=0;entryX=0;entryY=0.5;entryDx=0;entryDy=0;" edge="1" parent="1" source="0ImZA-_981zlYSz6AfB6-135" target="0ImZA-_981zlYSz6AfB6-137">
          <mxGeometry relative="1" as="geometry" />
        </mxCell>
        <mxCell id="0ImZA-_981zlYSz6AfB6-135" value="&lt;ul style=&quot;box-sizing: inherit; margin-top: var(--size-300, var(--base-unit, calc(1rem * var(--base-ratio, 1)))); padding: 0 0 0 var(--size-700, calc(var(--base-unit, calc(1rem * var(--base-ratio, 1))) * 2)); list-style: none; color: rgba(0, 0, 0, 0.85); font-family: &amp;quot;YS Text&amp;quot;, sans-serif; font-size: 18px; text-align: start; background-color: rgb(255, 255, 255);&quot;&gt;&lt;li style=&quot;box-sizing: inherit; position: relative; margin: 0 0 var(--size-100, calc(var(--base-unit, calc(1rem * var(--base-ratio, 1))) * 0.5));&quot;&gt;&lt;span style=&quot;white-space-collapse: preserve-breaks;&quot;&gt;Риск: &lt;/span&gt;&lt;span style=&quot;white-space-collapse: preserve;&quot;&gt;значительный&lt;/span&gt;&lt;/li&gt;&lt;/ul&gt;" style="whiteSpace=wrap;html=1;rounded=1;arcSize=50;align=center;verticalAlign=middle;strokeWidth=1;autosize=1;spacing=4;treeFolding=1;treeMoving=1;newEdgeStyle={&quot;edgeStyle&quot;:&quot;entityRelationEdgeStyle&quot;,&quot;startArrow&quot;:&quot;none&quot;,&quot;endArrow&quot;:&quot;none&quot;,&quot;segment&quot;:10,&quot;curved&quot;:1,&quot;sourcePerimeterSpacing&quot;:0,&quot;targetPerimeterSpacing&quot;:0};" vertex="1" parent="1">
          <mxGeometry x="1570" y="1020" width="240" height="70" as="geometry" />
        </mxCell>
        <mxCell id="0ImZA-_981zlYSz6AfB6-137" value="&lt;ul style=&quot;box-sizing: inherit; margin-top: var(--size-300, var(--base-unit, calc(1rem * var(--base-ratio, 1)))); padding: 0 0 0 var(--size-700, calc(var(--base-unit, calc(1rem * var(--base-ratio, 1))) * 2)); white-space-collapse: preserve-breaks; list-style: none; color: rgba(0, 0, 0, 0.85); font-family: &amp;quot;YS Text&amp;quot;, sans-serif; font-size: 18px; text-align: start; background-color: rgb(255, 255, 255);&quot;&gt;&lt;li style=&quot;box-sizing: inherit; position: relative; margin: 0 0 var(--size-100, calc(var(--base-unit, calc(1rem * var(--base-ratio, 1))) * 0.5));&quot;&gt;Финансовые потери&lt;/li&gt;&lt;/ul&gt;" style="whiteSpace=wrap;html=1;rounded=1;arcSize=50;align=center;verticalAlign=middle;strokeWidth=1;autosize=1;spacing=4;treeFolding=1;treeMoving=1;newEdgeStyle={&quot;edgeStyle&quot;:&quot;entityRelationEdgeStyle&quot;,&quot;startArrow&quot;:&quot;none&quot;,&quot;endArrow&quot;:&quot;none&quot;,&quot;segment&quot;:10,&quot;curved&quot;:1,&quot;sourcePerimeterSpacing&quot;:0,&quot;targetPerimeterSpacing&quot;:0};" vertex="1" parent="1">
          <mxGeometry x="1935" y="1020" width="240" height="70" as="geometry" />
        </mxCell>
        <mxCell id="0ImZA-_981zlYSz6AfB6-150" style="edgeStyle=entityRelationEdgeStyle;rounded=0;orthogonalLoop=1;jettySize=auto;html=1;startArrow=none;endArrow=none;segment=10;curved=1;sourcePerimeterSpacing=0;targetPerimeterSpacing=0;" edge="1" parent="1" source="0ImZA-_981zlYSz6AfB6-139" target="0ImZA-_981zlYSz6AfB6-149">
          <mxGeometry relative="1" as="geometry" />
        </mxCell>
        <mxCell id="0ImZA-_981zlYSz6AfB6-139" value="&lt;ul style=&quot;box-sizing: inherit; margin-top: var(--size-300, var(--base-unit, calc(1rem * var(--base-ratio, 1)))); padding: 0 0 0 var(--size-700, calc(var(--base-unit, calc(1rem * var(--base-ratio, 1))) * 2)); list-style: none; color: rgba(0, 0, 0, 0.85); font-family: &amp;quot;YS Text&amp;quot;, sans-serif; font-size: 18px; text-align: start; background-color: rgb(255, 255, 255);&quot;&gt;&lt;li style=&quot;box-sizing: inherit; position: relative; margin: 0 0 var(--size-100, calc(var(--base-unit, calc(1rem * var(--base-ratio, 1))) * 0.5));&quot;&gt;&lt;span style=&quot;white-space-collapse: preserve-breaks;&quot;&gt;Риск: &lt;/span&gt;&lt;span style=&quot;white-space-collapse: preserve;&quot;&gt;значительный&lt;/span&gt;&lt;/li&gt;&lt;/ul&gt;" style="whiteSpace=wrap;html=1;rounded=1;arcSize=50;align=center;verticalAlign=middle;strokeWidth=1;autosize=1;spacing=4;treeFolding=1;treeMoving=1;newEdgeStyle={&quot;edgeStyle&quot;:&quot;entityRelationEdgeStyle&quot;,&quot;startArrow&quot;:&quot;none&quot;,&quot;endArrow&quot;:&quot;none&quot;,&quot;segment&quot;:10,&quot;curved&quot;:1,&quot;sourcePerimeterSpacing&quot;:0,&quot;targetPerimeterSpacing&quot;:0};" vertex="1" parent="1">
          <mxGeometry x="1575" y="1120" width="240" height="70" as="geometry" />
        </mxCell>
        <mxCell id="0ImZA-_981zlYSz6AfB6-148" style="edgeStyle=entityRelationEdgeStyle;rounded=0;orthogonalLoop=1;jettySize=auto;html=1;startArrow=none;endArrow=none;segment=10;curved=1;sourcePerimeterSpacing=0;targetPerimeterSpacing=0;entryX=0;entryY=0.5;entryDx=0;entryDy=0;" edge="1" parent="1" source="0ImZA-_981zlYSz6AfB6-141" target="0ImZA-_981zlYSz6AfB6-147">
          <mxGeometry relative="1" as="geometry" />
        </mxCell>
        <mxCell id="0ImZA-_981zlYSz6AfB6-141" value="&lt;ul style=&quot;box-sizing: inherit; margin-top: var(--size-300, var(--base-unit, calc(1rem * var(--base-ratio, 1)))); padding: 0 0 0 var(--size-700, calc(var(--base-unit, calc(1rem * var(--base-ratio, 1))) * 2)); list-style: none; color: rgba(0, 0, 0, 0.85); font-family: &amp;quot;YS Text&amp;quot;, sans-serif; font-size: 18px; text-align: start; background-color: rgb(255, 255, 255);&quot;&gt;&lt;li style=&quot;box-sizing: inherit; position: relative; margin: 0 0 var(--size-100, calc(var(--base-unit, calc(1rem * var(--base-ratio, 1))) * 0.5));&quot;&gt;&lt;span style=&quot;white-space-collapse: preserve-breaks;&quot;&gt;Риск: &lt;/span&gt;&lt;span style=&quot;white-space-collapse: preserve;&quot;&gt;критический&lt;/span&gt;&lt;/li&gt;&lt;/ul&gt;" style="whiteSpace=wrap;html=1;rounded=1;arcSize=50;align=center;verticalAlign=middle;strokeWidth=1;autosize=1;spacing=4;treeFolding=1;treeMoving=1;newEdgeStyle={&quot;edgeStyle&quot;:&quot;entityRelationEdgeStyle&quot;,&quot;startArrow&quot;:&quot;none&quot;,&quot;endArrow&quot;:&quot;none&quot;,&quot;segment&quot;:10,&quot;curved&quot;:1,&quot;sourcePerimeterSpacing&quot;:0,&quot;targetPerimeterSpacing&quot;:0};" vertex="1" parent="1">
          <mxGeometry x="1580" y="1220" width="230" height="70" as="geometry" />
        </mxCell>
        <mxCell id="0ImZA-_981zlYSz6AfB6-152" style="edgeStyle=entityRelationEdgeStyle;rounded=0;orthogonalLoop=1;jettySize=auto;html=1;startArrow=none;endArrow=none;segment=10;curved=1;sourcePerimeterSpacing=0;targetPerimeterSpacing=0;entryX=0;entryY=0.5;entryDx=0;entryDy=0;" edge="1" parent="1" source="0ImZA-_981zlYSz6AfB6-143" target="0ImZA-_981zlYSz6AfB6-151">
          <mxGeometry relative="1" as="geometry" />
        </mxCell>
        <mxCell id="0ImZA-_981zlYSz6AfB6-143" value="&lt;ul style=&quot;box-sizing: inherit; margin-top: var(--size-300, var(--base-unit, calc(1rem * var(--base-ratio, 1)))); padding: 0 0 0 var(--size-700, calc(var(--base-unit, calc(1rem * var(--base-ratio, 1))) * 2)); list-style: none; color: rgba(0, 0, 0, 0.85); font-family: &amp;quot;YS Text&amp;quot;, sans-serif; font-size: 18px; text-align: start; background-color: rgb(255, 255, 255);&quot;&gt;&lt;li style=&quot;box-sizing: inherit; position: relative; margin: 0 0 var(--size-100, calc(var(--base-unit, calc(1rem * var(--base-ratio, 1))) * 0.5));&quot;&gt;&lt;span style=&quot;white-space-collapse: preserve-breaks;&quot;&gt;Риск: &lt;/span&gt;&lt;span style=&quot;white-space-collapse: preserve;&quot;&gt;незначительный&lt;/span&gt;&lt;/li&gt;&lt;/ul&gt;" style="whiteSpace=wrap;html=1;rounded=1;arcSize=50;align=center;verticalAlign=middle;strokeWidth=1;autosize=1;spacing=4;treeFolding=1;treeMoving=1;newEdgeStyle={&quot;edgeStyle&quot;:&quot;entityRelationEdgeStyle&quot;,&quot;startArrow&quot;:&quot;none&quot;,&quot;endArrow&quot;:&quot;none&quot;,&quot;segment&quot;:10,&quot;curved&quot;:1,&quot;sourcePerimeterSpacing&quot;:0,&quot;targetPerimeterSpacing&quot;:0};" vertex="1" parent="1">
          <mxGeometry x="1580" y="1310" width="260" height="70" as="geometry" />
        </mxCell>
        <mxCell id="0ImZA-_981zlYSz6AfB6-153" style="edgeStyle=entityRelationEdgeStyle;rounded=0;orthogonalLoop=1;jettySize=auto;html=1;startArrow=none;endArrow=none;segment=10;curved=1;sourcePerimeterSpacing=0;targetPerimeterSpacing=0;entryX=0;entryY=0.5;entryDx=0;entryDy=0;" edge="1" parent="1" source="0ImZA-_981zlYSz6AfB6-145" target="0ImZA-_981zlYSz6AfB6-151">
          <mxGeometry relative="1" as="geometry" />
        </mxCell>
        <mxCell id="0ImZA-_981zlYSz6AfB6-145" value="&lt;ul style=&quot;box-sizing: inherit; margin-top: var(--size-300, var(--base-unit, calc(1rem * var(--base-ratio, 1)))); padding: 0 0 0 var(--size-700, calc(var(--base-unit, calc(1rem * var(--base-ratio, 1))) * 2)); list-style: none; color: rgba(0, 0, 0, 0.85); font-family: &amp;quot;YS Text&amp;quot;, sans-serif; font-size: 18px; text-align: start; background-color: rgb(255, 255, 255);&quot;&gt;&lt;li style=&quot;box-sizing: inherit; position: relative; margin: 0 0 var(--size-100, calc(var(--base-unit, calc(1rem * var(--base-ratio, 1))) * 0.5));&quot;&gt;&lt;span style=&quot;white-space-collapse: preserve-breaks;&quot;&gt;Риск: &lt;/span&gt;&lt;span style=&quot;white-space-collapse: preserve;&quot;&gt;незначительный&lt;/span&gt;&lt;/li&gt;&lt;/ul&gt;" style="whiteSpace=wrap;html=1;rounded=1;arcSize=50;align=center;verticalAlign=middle;strokeWidth=1;autosize=1;spacing=4;treeFolding=1;treeMoving=1;newEdgeStyle={&quot;edgeStyle&quot;:&quot;entityRelationEdgeStyle&quot;,&quot;startArrow&quot;:&quot;none&quot;,&quot;endArrow&quot;:&quot;none&quot;,&quot;segment&quot;:10,&quot;curved&quot;:1,&quot;sourcePerimeterSpacing&quot;:0,&quot;targetPerimeterSpacing&quot;:0};" vertex="1" parent="1">
          <mxGeometry x="1590" y="1410" width="260" height="70" as="geometry" />
        </mxCell>
        <mxCell id="0ImZA-_981zlYSz6AfB6-147" value="&lt;ul style=&quot;box-sizing: inherit; margin-top: var(--size-300, var(--base-unit, calc(1rem * var(--base-ratio, 1)))); padding: 0 0 0 var(--size-700, calc(var(--base-unit, calc(1rem * var(--base-ratio, 1))) * 2)); white-space-collapse: preserve-breaks; list-style: none; color: rgba(0, 0, 0, 0.85); font-family: &amp;quot;YS Text&amp;quot;, sans-serif; font-size: 18px; text-align: start; background-color: rgb(255, 255, 255);&quot;&gt;&lt;li style=&quot;box-sizing: inherit; position: relative; margin: 0 0 var(--size-100, calc(var(--base-unit, calc(1rem * var(--base-ratio, 1))) * 0.5));&quot;&gt;Проблемы функционирования организации&lt;/li&gt;&lt;/ul&gt;" style="whiteSpace=wrap;html=1;rounded=1;arcSize=50;align=center;verticalAlign=middle;strokeWidth=1;autosize=1;spacing=4;treeFolding=1;treeMoving=1;newEdgeStyle={&quot;edgeStyle&quot;:&quot;entityRelationEdgeStyle&quot;,&quot;startArrow&quot;:&quot;none&quot;,&quot;endArrow&quot;:&quot;none&quot;,&quot;segment&quot;:10,&quot;curved&quot;:1,&quot;sourcePerimeterSpacing&quot;:0,&quot;targetPerimeterSpacing&quot;:0};" vertex="1" parent="1">
          <mxGeometry x="1920" y="1220" width="440" height="70" as="geometry" />
        </mxCell>
        <mxCell id="0ImZA-_981zlYSz6AfB6-149" value="&lt;ul style=&quot;box-sizing: inherit; margin-top: var(--size-300, var(--base-unit, calc(1rem * var(--base-ratio, 1)))); padding: 0 0 0 var(--size-700, calc(var(--base-unit, calc(1rem * var(--base-ratio, 1))) * 2)); white-space-collapse: preserve-breaks; list-style: none; color: rgba(0, 0, 0, 0.85); font-family: &amp;quot;YS Text&amp;quot;, sans-serif; font-size: 18px; text-align: start; background-color: rgb(255, 255, 255);&quot;&gt;&lt;li style=&quot;box-sizing: inherit; position: relative; margin: 0 0 var(--size-100, calc(var(--base-unit, calc(1rem * var(--base-ratio, 1))) * 0.5));&quot;&gt;Репутационные потери, снижение конкурентоспособности на рынке&lt;/li&gt;&lt;/ul&gt;" style="whiteSpace=wrap;html=1;rounded=1;arcSize=50;align=center;verticalAlign=middle;strokeWidth=1;autosize=1;spacing=4;treeFolding=1;treeMoving=1;newEdgeStyle={&quot;edgeStyle&quot;:&quot;entityRelationEdgeStyle&quot;,&quot;startArrow&quot;:&quot;none&quot;,&quot;endArrow&quot;:&quot;none&quot;,&quot;segment&quot;:10,&quot;curved&quot;:1,&quot;sourcePerimeterSpacing&quot;:0,&quot;targetPerimeterSpacing&quot;:0};" vertex="1" parent="1">
          <mxGeometry x="1920" y="1120" width="650" height="70" as="geometry" />
        </mxCell>
        <mxCell id="0ImZA-_981zlYSz6AfB6-151" value="&lt;ul style=&quot;box-sizing: inherit; margin-top: var(--size-300, var(--base-unit, calc(1rem * var(--base-ratio, 1)))); padding: 0 0 0 var(--size-700, calc(var(--base-unit, calc(1rem * var(--base-ratio, 1))) * 2)); white-space-collapse: preserve-breaks; list-style: none; color: rgba(0, 0, 0, 0.85); font-family: &amp;quot;YS Text&amp;quot;, sans-serif; font-size: 18px; text-align: start; background-color: rgb(255, 255, 255);&quot;&gt;&lt;li style=&quot;box-sizing: inherit; position: relative; margin: 0 0 var(--size-100, calc(var(--base-unit, calc(1rem * var(--base-ratio, 1))) * 0.5));&quot;&gt;Репутационные потери&lt;/li&gt;&lt;/ul&gt;" style="whiteSpace=wrap;html=1;rounded=1;arcSize=50;align=center;verticalAlign=middle;strokeWidth=1;autosize=1;spacing=4;treeFolding=1;treeMoving=1;newEdgeStyle={&quot;edgeStyle&quot;:&quot;entityRelationEdgeStyle&quot;,&quot;startArrow&quot;:&quot;none&quot;,&quot;endArrow&quot;:&quot;none&quot;,&quot;segment&quot;:10,&quot;curved&quot;:1,&quot;sourcePerimeterSpacing&quot;:0,&quot;targetPerimeterSpacing&quot;:0};" vertex="1" parent="1">
          <mxGeometry x="1930" y="1350" width="270" height="70" as="geometry" />
        </mxCell>
        <mxCell id="0ImZA-_981zlYSz6AfB6-157" style="edgeStyle=entityRelationEdgeStyle;rounded=0;orthogonalLoop=1;jettySize=auto;html=1;startArrow=none;endArrow=none;segment=10;curved=1;sourcePerimeterSpacing=0;targetPerimeterSpacing=0;entryX=0;entryY=0.5;entryDx=0;entryDy=0;" edge="1" parent="1" source="0ImZA-_981zlYSz6AfB6-154" target="0ImZA-_981zlYSz6AfB6-156">
          <mxGeometry relative="1" as="geometry" />
        </mxCell>
        <mxCell id="0ImZA-_981zlYSz6AfB6-154" value="&lt;ul style=&quot;box-sizing: inherit; margin-top: var(--size-300, var(--base-unit, calc(1rem * var(--base-ratio, 1)))); padding: 0 0 0 var(--size-700, calc(var(--base-unit, calc(1rem * var(--base-ratio, 1))) * 2)); list-style: none; color: rgba(0, 0, 0, 0.85); font-family: &amp;quot;YS Text&amp;quot;, sans-serif; font-size: 18px; text-align: start; background-color: rgb(255, 255, 255);&quot;&gt;&lt;li style=&quot;box-sizing: inherit; position: relative; margin: 0 0 var(--size-100, calc(var(--base-unit, calc(1rem * var(--base-ratio, 1))) * 0.5));&quot;&gt;&lt;span style=&quot;white-space-collapse: preserve-breaks;&quot;&gt;Риск: &lt;/span&gt;&lt;span style=&quot;white-space-collapse: preserve;&quot;&gt;значительный&lt;/span&gt;&lt;/li&gt;&lt;/ul&gt;" style="whiteSpace=wrap;html=1;rounded=1;arcSize=50;align=center;verticalAlign=middle;strokeWidth=1;autosize=1;spacing=4;treeFolding=1;treeMoving=1;newEdgeStyle={&quot;edgeStyle&quot;:&quot;entityRelationEdgeStyle&quot;,&quot;startArrow&quot;:&quot;none&quot;,&quot;endArrow&quot;:&quot;none&quot;,&quot;segment&quot;:10,&quot;curved&quot;:1,&quot;sourcePerimeterSpacing&quot;:0,&quot;targetPerimeterSpacing&quot;:0};" vertex="1" parent="1">
          <mxGeometry x="1650" y="1510" width="240" height="70" as="geometry" />
        </mxCell>
        <mxCell id="0ImZA-_981zlYSz6AfB6-156" value="&lt;ul style=&quot;box-sizing: inherit; margin-top: var(--size-300, var(--base-unit, calc(1rem * var(--base-ratio, 1)))); padding: 0 0 0 var(--size-700, calc(var(--base-unit, calc(1rem * var(--base-ratio, 1))) * 2)); white-space-collapse: preserve-breaks; list-style: none; color: rgba(0, 0, 0, 0.85); font-family: &amp;quot;YS Text&amp;quot;, sans-serif; font-size: 18px; text-align: start; background-color: rgb(255, 255, 255);&quot;&gt;&lt;li style=&quot;box-sizing: inherit; position: relative; margin: 0 0 var(--size-100, calc(var(--base-unit, calc(1rem * var(--base-ratio, 1))) * 0.5));&quot;&gt;Репутационные проблемы, штафы&amp;nbsp;&lt;/li&gt;&lt;/ul&gt;" style="whiteSpace=wrap;html=1;rounded=1;arcSize=50;align=center;verticalAlign=middle;strokeWidth=1;autosize=1;spacing=4;treeFolding=1;treeMoving=1;newEdgeStyle={&quot;edgeStyle&quot;:&quot;entityRelationEdgeStyle&quot;,&quot;startArrow&quot;:&quot;none&quot;,&quot;endArrow&quot;:&quot;none&quot;,&quot;segment&quot;:10,&quot;curved&quot;:1,&quot;sourcePerimeterSpacing&quot;:0,&quot;targetPerimeterSpacing&quot;:0};" vertex="1" parent="1">
          <mxGeometry x="1995" y="1500" width="370" height="70" as="geometry" />
        </mxCell>
        <mxCell id="0ImZA-_981zlYSz6AfB6-161" style="edgeStyle=entityRelationEdgeStyle;rounded=0;orthogonalLoop=1;jettySize=auto;html=1;startArrow=none;endArrow=none;segment=10;curved=1;sourcePerimeterSpacing=0;targetPerimeterSpacing=0;entryX=0;entryY=0.5;entryDx=0;entryDy=0;" edge="1" parent="1" source="0ImZA-_981zlYSz6AfB6-158" target="0ImZA-_981zlYSz6AfB6-160">
          <mxGeometry relative="1" as="geometry" />
        </mxCell>
        <mxCell id="0ImZA-_981zlYSz6AfB6-158" value="&lt;ul style=&quot;box-sizing: inherit; margin-top: var(--size-300, var(--base-unit, calc(1rem * var(--base-ratio, 1)))); padding: 0 0 0 var(--size-700, calc(var(--base-unit, calc(1rem * var(--base-ratio, 1))) * 2)); list-style: none; color: rgba(0, 0, 0, 0.85); font-family: &amp;quot;YS Text&amp;quot;, sans-serif; font-size: 18px; text-align: start; background-color: rgb(255, 255, 255);&quot;&gt;&lt;li style=&quot;box-sizing: inherit; position: relative; margin: 0 0 var(--size-100, calc(var(--base-unit, calc(1rem * var(--base-ratio, 1))) * 0.5));&quot;&gt;&lt;span style=&quot;white-space-collapse: preserve-breaks;&quot;&gt;Риск: &lt;/span&gt;&lt;span style=&quot;white-space-collapse: preserve;&quot;&gt;значительный&lt;/span&gt;&lt;/li&gt;&lt;/ul&gt;" style="whiteSpace=wrap;html=1;rounded=1;arcSize=50;align=center;verticalAlign=middle;strokeWidth=1;autosize=1;spacing=4;treeFolding=1;treeMoving=1;newEdgeStyle={&quot;edgeStyle&quot;:&quot;entityRelationEdgeStyle&quot;,&quot;startArrow&quot;:&quot;none&quot;,&quot;endArrow&quot;:&quot;none&quot;,&quot;segment&quot;:10,&quot;curved&quot;:1,&quot;sourcePerimeterSpacing&quot;:0,&quot;targetPerimeterSpacing&quot;:0};" vertex="1" parent="1">
          <mxGeometry x="1650" y="1630" width="240" height="70" as="geometry" />
        </mxCell>
        <mxCell id="0ImZA-_981zlYSz6AfB6-160" value="&lt;ul style=&quot;box-sizing: inherit; margin-top: var(--size-300, var(--base-unit, calc(1rem * var(--base-ratio, 1)))); padding: 0 0 0 var(--size-700, calc(var(--base-unit, calc(1rem * var(--base-ratio, 1))) * 2)); white-space-collapse: preserve-breaks; list-style: none; color: rgba(0, 0, 0, 0.85); font-family: &amp;quot;YS Text&amp;quot;, sans-serif; font-size: 18px; text-align: start; background-color: rgb(255, 255, 255);&quot;&gt;&lt;li style=&quot;box-sizing: inherit; position: relative; margin: 0 0 var(--size-100, calc(var(--base-unit, calc(1rem * var(--base-ratio, 1))) * 0.5));&quot;&gt;Проблемы функционирования организации&lt;/li&gt;&lt;/ul&gt;" style="whiteSpace=wrap;html=1;rounded=1;arcSize=50;align=center;verticalAlign=middle;strokeWidth=1;autosize=1;spacing=4;treeFolding=1;treeMoving=1;newEdgeStyle={&quot;edgeStyle&quot;:&quot;entityRelationEdgeStyle&quot;,&quot;startArrow&quot;:&quot;none&quot;,&quot;endArrow&quot;:&quot;none&quot;,&quot;segment&quot;:10,&quot;curved&quot;:1,&quot;sourcePerimeterSpacing&quot;:0,&quot;targetPerimeterSpacing&quot;:0};" vertex="1" parent="1">
          <mxGeometry x="1980" y="1630" width="440" height="70" as="geometry" />
        </mxCell>
        <mxCell id="0ImZA-_981zlYSz6AfB6-165" style="edgeStyle=entityRelationEdgeStyle;rounded=0;orthogonalLoop=1;jettySize=auto;html=1;startArrow=none;endArrow=none;segment=10;curved=1;sourcePerimeterSpacing=0;targetPerimeterSpacing=0;entryX=0;entryY=0.5;entryDx=0;entryDy=0;" edge="1" parent="1" source="0ImZA-_981zlYSz6AfB6-162" target="0ImZA-_981zlYSz6AfB6-164">
          <mxGeometry relative="1" as="geometry" />
        </mxCell>
        <mxCell id="0ImZA-_981zlYSz6AfB6-162" value="&lt;ul style=&quot;box-sizing: inherit; margin-top: var(--size-300, var(--base-unit, calc(1rem * var(--base-ratio, 1)))); padding: 0 0 0 var(--size-700, calc(var(--base-unit, calc(1rem * var(--base-ratio, 1))) * 2)); list-style: none; color: rgba(0, 0, 0, 0.85); font-family: &amp;quot;YS Text&amp;quot;, sans-serif; font-size: 18px; text-align: start; background-color: rgb(255, 255, 255);&quot;&gt;&lt;li style=&quot;box-sizing: inherit; position: relative; margin: 0 0 var(--size-100, calc(var(--base-unit, calc(1rem * var(--base-ratio, 1))) * 0.5));&quot;&gt;&lt;span style=&quot;white-space-collapse: preserve-breaks;&quot;&gt;Риск: &lt;/span&gt;&lt;span style=&quot;white-space-collapse: preserve;&quot;&gt;незначительный&lt;/span&gt;&lt;/li&gt;&lt;/ul&gt;" style="whiteSpace=wrap;html=1;rounded=1;arcSize=50;align=center;verticalAlign=middle;strokeWidth=1;autosize=1;spacing=4;treeFolding=1;treeMoving=1;newEdgeStyle={&quot;edgeStyle&quot;:&quot;entityRelationEdgeStyle&quot;,&quot;startArrow&quot;:&quot;none&quot;,&quot;endArrow&quot;:&quot;none&quot;,&quot;segment&quot;:10,&quot;curved&quot;:1,&quot;sourcePerimeterSpacing&quot;:0,&quot;targetPerimeterSpacing&quot;:0};" vertex="1" parent="1">
          <mxGeometry x="1660" y="1780" width="260" height="70" as="geometry" />
        </mxCell>
        <mxCell id="0ImZA-_981zlYSz6AfB6-164" value="&lt;ul style=&quot;box-sizing: inherit; margin-top: var(--size-300, var(--base-unit, calc(1rem * var(--base-ratio, 1)))); padding: 0 0 0 var(--size-700, calc(var(--base-unit, calc(1rem * var(--base-ratio, 1))) * 2)); white-space-collapse: preserve-breaks; list-style: none; color: rgba(0, 0, 0, 0.85); font-family: &amp;quot;YS Text&amp;quot;, sans-serif; font-size: 18px; text-align: start; background-color: rgb(255, 255, 255);&quot;&gt;&lt;li style=&quot;box-sizing: inherit; position: relative; margin: 0 0 var(--size-100, calc(var(--base-unit, calc(1rem * var(--base-ratio, 1))) * 0.5));&quot;&gt;Риски небольшие из за небольшого числа сотрудников&lt;/li&gt;&lt;/ul&gt;" style="whiteSpace=wrap;html=1;rounded=1;arcSize=50;align=center;verticalAlign=middle;strokeWidth=1;autosize=1;spacing=4;treeFolding=1;treeMoving=1;newEdgeStyle={&quot;edgeStyle&quot;:&quot;entityRelationEdgeStyle&quot;,&quot;startArrow&quot;:&quot;none&quot;,&quot;endArrow&quot;:&quot;none&quot;,&quot;segment&quot;:10,&quot;curved&quot;:1,&quot;sourcePerimeterSpacing&quot;:0,&quot;targetPerimeterSpacing&quot;:0};" vertex="1" parent="1">
          <mxGeometry x="1975" y="1780" width="540" height="70" as="geometry" />
        </mxCell>
        <mxCell id="0ImZA-_981zlYSz6AfB6-170" style="edgeStyle=entityRelationEdgeStyle;rounded=0;orthogonalLoop=1;jettySize=auto;html=1;startArrow=none;endArrow=none;segment=10;curved=1;sourcePerimeterSpacing=0;targetPerimeterSpacing=0;entryX=0;entryY=0.5;entryDx=0;entryDy=0;" edge="1" parent="1" source="0ImZA-_981zlYSz6AfB6-167" target="0ImZA-_981zlYSz6AfB6-169">
          <mxGeometry relative="1" as="geometry" />
        </mxCell>
        <mxCell id="0ImZA-_981zlYSz6AfB6-167" value="&lt;ul style=&quot;box-sizing: inherit; margin-top: var(--size-300, var(--base-unit, calc(1rem * var(--base-ratio, 1)))); padding: 0 0 0 var(--size-700, calc(var(--base-unit, calc(1rem * var(--base-ratio, 1))) * 2)); list-style: none; color: rgba(0, 0, 0, 0.85); font-family: &amp;quot;YS Text&amp;quot;, sans-serif; font-size: 18px; text-align: start; background-color: rgb(255, 255, 255);&quot;&gt;&lt;li style=&quot;box-sizing: inherit; position: relative; margin: 0 0 var(--size-100, calc(var(--base-unit, calc(1rem * var(--base-ratio, 1))) * 0.5));&quot;&gt;&lt;span style=&quot;white-space-collapse: preserve-breaks;&quot;&gt;Риск: &lt;/span&gt;&lt;span style=&quot;white-space-collapse: preserve;&quot;&gt;значительный&lt;/span&gt;&lt;/li&gt;&lt;/ul&gt;" style="whiteSpace=wrap;html=1;rounded=1;arcSize=50;align=center;verticalAlign=middle;strokeWidth=1;autosize=1;spacing=4;treeFolding=1;treeMoving=1;newEdgeStyle={&quot;edgeStyle&quot;:&quot;entityRelationEdgeStyle&quot;,&quot;startArrow&quot;:&quot;none&quot;,&quot;endArrow&quot;:&quot;none&quot;,&quot;segment&quot;:10,&quot;curved&quot;:1,&quot;sourcePerimeterSpacing&quot;:0,&quot;targetPerimeterSpacing&quot;:0};" vertex="1" parent="1">
          <mxGeometry x="1654" y="1950" width="240" height="70" as="geometry" />
        </mxCell>
        <mxCell id="0ImZA-_981zlYSz6AfB6-169" value="&lt;ul style=&quot;box-sizing: inherit; margin-top: var(--size-300, var(--base-unit, calc(1rem * var(--base-ratio, 1)))); padding: 0 0 0 var(--size-700, calc(var(--base-unit, calc(1rem * var(--base-ratio, 1))) * 2)); white-space-collapse: preserve-breaks; list-style: none; color: rgba(0, 0, 0, 0.85); font-family: &amp;quot;YS Text&amp;quot;, sans-serif; font-size: 18px; text-align: start; background-color: rgb(255, 255, 255);&quot;&gt;&lt;li style=&quot;box-sizing: inherit; position: relative; margin: 0 0 var(--size-100, calc(var(--base-unit, calc(1rem * var(--base-ratio, 1))) * 0.5));&quot;&gt;Репутационные потери&amp;nbsp;&lt;/li&gt;&lt;/ul&gt;" style="whiteSpace=wrap;html=1;rounded=1;arcSize=50;align=center;verticalAlign=middle;strokeWidth=1;autosize=1;spacing=4;treeFolding=1;treeMoving=1;newEdgeStyle={&quot;edgeStyle&quot;:&quot;entityRelationEdgeStyle&quot;,&quot;startArrow&quot;:&quot;none&quot;,&quot;endArrow&quot;:&quot;none&quot;,&quot;segment&quot;:10,&quot;curved&quot;:1,&quot;sourcePerimeterSpacing&quot;:0,&quot;targetPerimeterSpacing&quot;:0};" vertex="1" parent="1">
          <mxGeometry x="1975" y="1950" width="280" height="70" as="geometry" />
        </mxCell>
        <mxCell id="0ImZA-_981zlYSz6AfB6-174" style="edgeStyle=entityRelationEdgeStyle;rounded=0;orthogonalLoop=1;jettySize=auto;html=1;startArrow=none;endArrow=none;segment=10;curved=1;sourcePerimeterSpacing=0;targetPerimeterSpacing=0;" edge="1" parent="1" source="0ImZA-_981zlYSz6AfB6-171" target="0ImZA-_981zlYSz6AfB6-173">
          <mxGeometry relative="1" as="geometry" />
        </mxCell>
        <mxCell id="0ImZA-_981zlYSz6AfB6-171" value="&lt;ul style=&quot;box-sizing: inherit; margin-top: var(--size-300, var(--base-unit, calc(1rem * var(--base-ratio, 1)))); padding: 0 0 0 var(--size-700, calc(var(--base-unit, calc(1rem * var(--base-ratio, 1))) * 2)); list-style: none; color: rgba(0, 0, 0, 0.85); font-family: &amp;quot;YS Text&amp;quot;, sans-serif; font-size: 18px; text-align: start; background-color: rgb(255, 255, 255);&quot;&gt;&lt;li style=&quot;box-sizing: inherit; position: relative; margin: 0 0 var(--size-100, calc(var(--base-unit, calc(1rem * var(--base-ratio, 1))) * 0.5));&quot;&gt;&lt;span style=&quot;white-space-collapse: preserve-breaks;&quot;&gt;Риск: &lt;/span&gt;&lt;span style=&quot;white-space-collapse: preserve;&quot;&gt;значительный&lt;/span&gt;&lt;/li&gt;&lt;/ul&gt;" style="whiteSpace=wrap;html=1;rounded=1;arcSize=50;align=center;verticalAlign=middle;strokeWidth=1;autosize=1;spacing=4;treeFolding=1;treeMoving=1;newEdgeStyle={&quot;edgeStyle&quot;:&quot;entityRelationEdgeStyle&quot;,&quot;startArrow&quot;:&quot;none&quot;,&quot;endArrow&quot;:&quot;none&quot;,&quot;segment&quot;:10,&quot;curved&quot;:1,&quot;sourcePerimeterSpacing&quot;:0,&quot;targetPerimeterSpacing&quot;:0};" vertex="1" parent="1">
          <mxGeometry x="1654" y="2060" width="240" height="70" as="geometry" />
        </mxCell>
        <mxCell id="0ImZA-_981zlYSz6AfB6-173" value="&lt;ul style=&quot;box-sizing: inherit; margin-top: var(--size-300, var(--base-unit, calc(1rem * var(--base-ratio, 1)))); padding: 0 0 0 var(--size-700, calc(var(--base-unit, calc(1rem * var(--base-ratio, 1))) * 2)); white-space-collapse: preserve-breaks; list-style: none; color: rgba(0, 0, 0, 0.85); font-family: &amp;quot;YS Text&amp;quot;, sans-serif; font-size: 18px; text-align: start; background-color: rgb(255, 255, 255);&quot;&gt;&lt;li style=&quot;box-sizing: inherit; position: relative; margin: 0 0 var(--size-100, calc(var(--base-unit, calc(1rem * var(--base-ratio, 1))) * 0.5));&quot;&gt;Репутационные потери&amp;nbsp;&lt;/li&gt;&lt;/ul&gt;" style="whiteSpace=wrap;html=1;rounded=1;arcSize=50;align=center;verticalAlign=middle;strokeWidth=1;autosize=1;spacing=4;treeFolding=1;treeMoving=1;newEdgeStyle={&quot;edgeStyle&quot;:&quot;entityRelationEdgeStyle&quot;,&quot;startArrow&quot;:&quot;none&quot;,&quot;endArrow&quot;:&quot;none&quot;,&quot;segment&quot;:10,&quot;curved&quot;:1,&quot;sourcePerimeterSpacing&quot;:0,&quot;targetPerimeterSpacing&quot;:0};" vertex="1" parent="1">
          <mxGeometry x="1975" y="2060" width="280" height="70" as="geometry" />
        </mxCell>
        <mxCell id="0ImZA-_981zlYSz6AfB6-178" style="edgeStyle=entityRelationEdgeStyle;rounded=0;orthogonalLoop=1;jettySize=auto;html=1;startArrow=none;endArrow=none;segment=10;curved=1;sourcePerimeterSpacing=0;targetPerimeterSpacing=0;entryX=0;entryY=0.5;entryDx=0;entryDy=0;" edge="1" parent="1" source="0ImZA-_981zlYSz6AfB6-175" target="0ImZA-_981zlYSz6AfB6-177">
          <mxGeometry relative="1" as="geometry" />
        </mxCell>
        <mxCell id="0ImZA-_981zlYSz6AfB6-175" value="&lt;ul style=&quot;box-sizing: inherit; margin-top: var(--size-300, var(--base-unit, calc(1rem * var(--base-ratio, 1)))); padding: 0 0 0 var(--size-700, calc(var(--base-unit, calc(1rem * var(--base-ratio, 1))) * 2)); list-style: none; color: rgba(0, 0, 0, 0.85); font-family: &amp;quot;YS Text&amp;quot;, sans-serif; font-size: 18px; text-align: start; background-color: rgb(255, 255, 255);&quot;&gt;&lt;li style=&quot;box-sizing: inherit; position: relative; margin: 0 0 var(--size-100, calc(var(--base-unit, calc(1rem * var(--base-ratio, 1))) * 0.5));&quot;&gt;&lt;span style=&quot;white-space-collapse: preserve-breaks;&quot;&gt;Риск: &lt;/span&gt;&lt;span style=&quot;white-space-collapse: preserve;&quot;&gt;незначительный&lt;/span&gt;&lt;/li&gt;&lt;/ul&gt;" style="whiteSpace=wrap;html=1;rounded=1;arcSize=50;align=center;verticalAlign=middle;strokeWidth=1;autosize=1;spacing=4;treeFolding=1;treeMoving=1;newEdgeStyle={&quot;edgeStyle&quot;:&quot;entityRelationEdgeStyle&quot;,&quot;startArrow&quot;:&quot;none&quot;,&quot;endArrow&quot;:&quot;none&quot;,&quot;segment&quot;:10,&quot;curved&quot;:1,&quot;sourcePerimeterSpacing&quot;:0,&quot;targetPerimeterSpacing&quot;:0};" vertex="1" parent="1">
          <mxGeometry x="1644" y="2170" width="260" height="70" as="geometry" />
        </mxCell>
        <mxCell id="0ImZA-_981zlYSz6AfB6-177" value="&lt;ul style=&quot;box-sizing: inherit; margin-top: var(--size-300, var(--base-unit, calc(1rem * var(--base-ratio, 1)))); padding: 0 0 0 var(--size-700, calc(var(--base-unit, calc(1rem * var(--base-ratio, 1))) * 2)); white-space-collapse: preserve-breaks; list-style: none; color: rgba(0, 0, 0, 0.85); font-family: &amp;quot;YS Text&amp;quot;, sans-serif; font-size: 18px; text-align: start; background-color: rgb(255, 255, 255);&quot;&gt;&lt;li style=&quot;box-sizing: inherit; position: relative; margin: 0 0 var(--size-100, calc(var(--base-unit, calc(1rem * var(--base-ratio, 1))) * 0.5));&quot;&gt;Репутационные потери&amp;nbsp;&lt;/li&gt;&lt;/ul&gt;" style="whiteSpace=wrap;html=1;rounded=1;arcSize=50;align=center;verticalAlign=middle;strokeWidth=1;autosize=1;spacing=4;treeFolding=1;treeMoving=1;newEdgeStyle={&quot;edgeStyle&quot;:&quot;entityRelationEdgeStyle&quot;,&quot;startArrow&quot;:&quot;none&quot;,&quot;endArrow&quot;:&quot;none&quot;,&quot;segment&quot;:10,&quot;curved&quot;:1,&quot;sourcePerimeterSpacing&quot;:0,&quot;targetPerimeterSpacing&quot;:0};" vertex="1" parent="1">
          <mxGeometry x="1975" y="2170" width="280" height="70" as="geometry" />
        </mxCell>
        <mxCell id="0ImZA-_981zlYSz6AfB6-182" style="edgeStyle=entityRelationEdgeStyle;rounded=0;orthogonalLoop=1;jettySize=auto;html=1;startArrow=none;endArrow=none;segment=10;curved=1;sourcePerimeterSpacing=0;targetPerimeterSpacing=0;entryX=0;entryY=0.5;entryDx=0;entryDy=0;" edge="1" parent="1" source="0ImZA-_981zlYSz6AfB6-179" target="0ImZA-_981zlYSz6AfB6-181">
          <mxGeometry relative="1" as="geometry" />
        </mxCell>
        <mxCell id="0ImZA-_981zlYSz6AfB6-179" value="&lt;ul style=&quot;box-sizing: inherit; margin-top: var(--size-300, var(--base-unit, calc(1rem * var(--base-ratio, 1)))); padding: 0 0 0 var(--size-700, calc(var(--base-unit, calc(1rem * var(--base-ratio, 1))) * 2)); list-style: none; color: rgba(0, 0, 0, 0.85); font-family: &amp;quot;YS Text&amp;quot;, sans-serif; font-size: 18px; text-align: start; background-color: rgb(255, 255, 255);&quot;&gt;&lt;li style=&quot;box-sizing: inherit; position: relative; margin: 0 0 var(--size-100, calc(var(--base-unit, calc(1rem * var(--base-ratio, 1))) * 0.5));&quot;&gt;&lt;span style=&quot;white-space-collapse: preserve-breaks;&quot;&gt;Риск: &lt;/span&gt;&lt;span style=&quot;white-space-collapse: preserve;&quot;&gt;значительный&lt;/span&gt;&lt;/li&gt;&lt;/ul&gt;" style="whiteSpace=wrap;html=1;rounded=1;arcSize=50;align=center;verticalAlign=middle;strokeWidth=1;autosize=1;spacing=4;treeFolding=1;treeMoving=1;newEdgeStyle={&quot;edgeStyle&quot;:&quot;entityRelationEdgeStyle&quot;,&quot;startArrow&quot;:&quot;none&quot;,&quot;endArrow&quot;:&quot;none&quot;,&quot;segment&quot;:10,&quot;curved&quot;:1,&quot;sourcePerimeterSpacing&quot;:0,&quot;targetPerimeterSpacing&quot;:0};" vertex="1" parent="1">
          <mxGeometry x="1644" y="2280" width="240" height="70" as="geometry" />
        </mxCell>
        <mxCell id="0ImZA-_981zlYSz6AfB6-181" value="&lt;ul style=&quot;box-sizing: inherit; margin-top: var(--size-300, var(--base-unit, calc(1rem * var(--base-ratio, 1)))); padding: 0 0 0 var(--size-700, calc(var(--base-unit, calc(1rem * var(--base-ratio, 1))) * 2)); white-space-collapse: preserve-breaks; list-style: none; color: rgba(0, 0, 0, 0.85); font-family: &amp;quot;YS Text&amp;quot;, sans-serif; font-size: 18px; text-align: start; background-color: rgb(255, 255, 255);&quot;&gt;&lt;li style=&quot;box-sizing: inherit; position: relative; margin: 0 0 var(--size-100, calc(var(--base-unit, calc(1rem * var(--base-ratio, 1))) * 0.5));&quot;&gt;Репутационные потери, упростит нахождение уязвимостей&lt;/li&gt;&lt;/ul&gt;" style="whiteSpace=wrap;html=1;rounded=1;arcSize=50;align=center;verticalAlign=middle;strokeWidth=1;autosize=1;spacing=4;treeFolding=1;treeMoving=1;newEdgeStyle={&quot;edgeStyle&quot;:&quot;entityRelationEdgeStyle&quot;,&quot;startArrow&quot;:&quot;none&quot;,&quot;endArrow&quot;:&quot;none&quot;,&quot;segment&quot;:10,&quot;curved&quot;:1,&quot;sourcePerimeterSpacing&quot;:0,&quot;targetPerimeterSpacing&quot;:0};" vertex="1" parent="1">
          <mxGeometry x="1960" y="2280" width="570" height="70" as="geometry" />
        </mxCell>
        <mxCell id="0ImZA-_981zlYSz6AfB6-186" style="edgeStyle=entityRelationEdgeStyle;rounded=0;orthogonalLoop=1;jettySize=auto;html=1;startArrow=none;endArrow=none;segment=10;curved=1;sourcePerimeterSpacing=0;targetPerimeterSpacing=0;entryX=0;entryY=0.5;entryDx=0;entryDy=0;" edge="1" parent="1" source="0ImZA-_981zlYSz6AfB6-183" target="0ImZA-_981zlYSz6AfB6-185">
          <mxGeometry relative="1" as="geometry" />
        </mxCell>
        <mxCell id="0ImZA-_981zlYSz6AfB6-183" value="&lt;ul style=&quot;box-sizing: inherit; margin-top: var(--size-300, var(--base-unit, calc(1rem * var(--base-ratio, 1)))); padding: 0 0 0 var(--size-700, calc(var(--base-unit, calc(1rem * var(--base-ratio, 1))) * 2)); list-style: none; color: rgba(0, 0, 0, 0.85); font-family: &amp;quot;YS Text&amp;quot;, sans-serif; font-size: 18px; text-align: start; background-color: rgb(255, 255, 255);&quot;&gt;&lt;li style=&quot;box-sizing: inherit; position: relative; margin: 0 0 var(--size-100, calc(var(--base-unit, calc(1rem * var(--base-ratio, 1))) * 0.5));&quot;&gt;&lt;span style=&quot;white-space-collapse: preserve-breaks;&quot;&gt;Риск: &lt;/span&gt;&lt;span style=&quot;white-space-collapse: preserve;&quot;&gt;значительный&lt;/span&gt;&lt;/li&gt;&lt;/ul&gt;" style="whiteSpace=wrap;html=1;rounded=1;arcSize=50;align=center;verticalAlign=middle;strokeWidth=1;autosize=1;spacing=4;treeFolding=1;treeMoving=1;newEdgeStyle={&quot;edgeStyle&quot;:&quot;entityRelationEdgeStyle&quot;,&quot;startArrow&quot;:&quot;none&quot;,&quot;endArrow&quot;:&quot;none&quot;,&quot;segment&quot;:10,&quot;curved&quot;:1,&quot;sourcePerimeterSpacing&quot;:0,&quot;targetPerimeterSpacing&quot;:0};" vertex="1" parent="1">
          <mxGeometry x="1644" y="2410" width="240" height="70" as="geometry" />
        </mxCell>
        <mxCell id="0ImZA-_981zlYSz6AfB6-185" value="&lt;ul style=&quot;box-sizing: inherit; margin-top: var(--size-300, var(--base-unit, calc(1rem * var(--base-ratio, 1)))); padding: 0 0 0 var(--size-700, calc(var(--base-unit, calc(1rem * var(--base-ratio, 1))) * 2)); white-space-collapse: preserve-breaks; list-style: none; color: rgba(0, 0, 0, 0.85); font-family: &amp;quot;YS Text&amp;quot;, sans-serif; font-size: 18px; text-align: start; background-color: rgb(255, 255, 255);&quot;&gt;&lt;li style=&quot;box-sizing: inherit; position: relative; margin: 0 0 var(--size-100, calc(var(--base-unit, calc(1rem * var(--base-ratio, 1))) * 0.5));&quot;&gt;Ухудшение функционала приложения&lt;/li&gt;&lt;/ul&gt;" style="whiteSpace=wrap;html=1;rounded=1;arcSize=50;align=center;verticalAlign=middle;strokeWidth=1;autosize=1;spacing=4;treeFolding=1;treeMoving=1;newEdgeStyle={&quot;edgeStyle&quot;:&quot;entityRelationEdgeStyle&quot;,&quot;startArrow&quot;:&quot;none&quot;,&quot;endArrow&quot;:&quot;none&quot;,&quot;segment&quot;:10,&quot;curved&quot;:1,&quot;sourcePerimeterSpacing&quot;:0,&quot;targetPerimeterSpacing&quot;:0};" vertex="1" parent="1">
          <mxGeometry x="1925" y="2410" width="390" height="70" as="geometry" />
        </mxCell>
        <mxCell id="0ImZA-_981zlYSz6AfB6-194" style="edgeStyle=entityRelationEdgeStyle;rounded=0;orthogonalLoop=1;jettySize=auto;html=1;startArrow=none;endArrow=none;segment=10;curved=1;sourcePerimeterSpacing=0;targetPerimeterSpacing=0;" edge="1" parent="1" source="0ImZA-_981zlYSz6AfB6-187" target="0ImZA-_981zlYSz6AfB6-193">
          <mxGeometry relative="1" as="geometry" />
        </mxCell>
        <mxCell id="0ImZA-_981zlYSz6AfB6-187" value="&lt;ul style=&quot;box-sizing: inherit; margin-top: var(--size-300, var(--base-unit, calc(1rem * var(--base-ratio, 1)))); padding: 0 0 0 var(--size-700, calc(var(--base-unit, calc(1rem * var(--base-ratio, 1))) * 2)); list-style: none; color: rgba(0, 0, 0, 0.85); font-family: &amp;quot;YS Text&amp;quot;, sans-serif; font-size: 18px; text-align: start; background-color: rgb(255, 255, 255);&quot;&gt;&lt;li style=&quot;box-sizing: inherit; position: relative; margin: 0 0 var(--size-100, calc(var(--base-unit, calc(1rem * var(--base-ratio, 1))) * 0.5));&quot;&gt;&lt;span style=&quot;white-space-collapse: preserve-breaks;&quot;&gt;Риск: &lt;/span&gt;&lt;span style=&quot;white-space-collapse: preserve;&quot;&gt;значительный&lt;/span&gt;&lt;/li&gt;&lt;/ul&gt;" style="whiteSpace=wrap;html=1;rounded=1;arcSize=50;align=center;verticalAlign=middle;strokeWidth=1;autosize=1;spacing=4;treeFolding=1;treeMoving=1;newEdgeStyle={&quot;edgeStyle&quot;:&quot;entityRelationEdgeStyle&quot;,&quot;startArrow&quot;:&quot;none&quot;,&quot;endArrow&quot;:&quot;none&quot;,&quot;segment&quot;:10,&quot;curved&quot;:1,&quot;sourcePerimeterSpacing&quot;:0,&quot;targetPerimeterSpacing&quot;:0};" vertex="1" parent="1">
          <mxGeometry x="1650" y="2540" width="240" height="70" as="geometry" />
        </mxCell>
        <mxCell id="0ImZA-_981zlYSz6AfB6-192" style="edgeStyle=entityRelationEdgeStyle;rounded=0;orthogonalLoop=1;jettySize=auto;html=1;startArrow=none;endArrow=none;segment=10;curved=1;sourcePerimeterSpacing=0;targetPerimeterSpacing=0;entryX=0;entryY=0.5;entryDx=0;entryDy=0;" edge="1" parent="1" source="0ImZA-_981zlYSz6AfB6-189" target="0ImZA-_981zlYSz6AfB6-191">
          <mxGeometry relative="1" as="geometry" />
        </mxCell>
        <mxCell id="0ImZA-_981zlYSz6AfB6-189" value="&lt;ul style=&quot;box-sizing: inherit; margin-top: var(--size-300, var(--base-unit, calc(1rem * var(--base-ratio, 1)))); padding: 0 0 0 var(--size-700, calc(var(--base-unit, calc(1rem * var(--base-ratio, 1))) * 2)); list-style: none; color: rgba(0, 0, 0, 0.85); font-family: &amp;quot;YS Text&amp;quot;, sans-serif; font-size: 18px; text-align: start; background-color: rgb(255, 255, 255);&quot;&gt;&lt;li style=&quot;box-sizing: inherit; position: relative; margin: 0 0 var(--size-100, calc(var(--base-unit, calc(1rem * var(--base-ratio, 1))) * 0.5));&quot;&gt;&lt;span style=&quot;white-space-collapse: preserve-breaks;&quot;&gt;Риск: &lt;/span&gt;&lt;span style=&quot;white-space-collapse: preserve;&quot;&gt;критический&lt;/span&gt;&lt;/li&gt;&lt;/ul&gt;" style="whiteSpace=wrap;html=1;rounded=1;arcSize=50;align=center;verticalAlign=middle;strokeWidth=1;autosize=1;spacing=4;treeFolding=1;treeMoving=1;newEdgeStyle={&quot;edgeStyle&quot;:&quot;entityRelationEdgeStyle&quot;,&quot;startArrow&quot;:&quot;none&quot;,&quot;endArrow&quot;:&quot;none&quot;,&quot;segment&quot;:10,&quot;curved&quot;:1,&quot;sourcePerimeterSpacing&quot;:0,&quot;targetPerimeterSpacing&quot;:0};" vertex="1" parent="1">
          <mxGeometry x="1649" y="2670" width="230" height="70" as="geometry" />
        </mxCell>
        <mxCell id="0ImZA-_981zlYSz6AfB6-191" value="&lt;ul style=&quot;box-sizing: inherit; margin-top: var(--size-300, var(--base-unit, calc(1rem * var(--base-ratio, 1)))); padding: 0 0 0 var(--size-700, calc(var(--base-unit, calc(1rem * var(--base-ratio, 1))) * 2)); white-space-collapse: preserve-breaks; list-style: none; color: rgba(0, 0, 0, 0.85); font-family: &amp;quot;YS Text&amp;quot;, sans-serif; font-size: 18px; text-align: start; background-color: rgb(255, 255, 255);&quot;&gt;&lt;li style=&quot;box-sizing: inherit; position: relative; margin: 0 0 var(--size-100, calc(var(--base-unit, calc(1rem * var(--base-ratio, 1))) * 0.5));&quot;&gt;Проблемы функционирования организации&lt;/li&gt;&lt;/ul&gt;" style="whiteSpace=wrap;html=1;rounded=1;arcSize=50;align=center;verticalAlign=middle;strokeWidth=1;autosize=1;spacing=4;treeFolding=1;treeMoving=1;newEdgeStyle={&quot;edgeStyle&quot;:&quot;entityRelationEdgeStyle&quot;,&quot;startArrow&quot;:&quot;none&quot;,&quot;endArrow&quot;:&quot;none&quot;,&quot;segment&quot;:10,&quot;curved&quot;:1,&quot;sourcePerimeterSpacing&quot;:0,&quot;targetPerimeterSpacing&quot;:0};" vertex="1" parent="1">
          <mxGeometry x="1950" y="2670" width="440" height="70" as="geometry" />
        </mxCell>
        <mxCell id="0ImZA-_981zlYSz6AfB6-193" value="&lt;ul style=&quot;box-sizing: inherit; margin-top: var(--size-300, var(--base-unit, calc(1rem * var(--base-ratio, 1)))); padding: 0 0 0 var(--size-700, calc(var(--base-unit, calc(1rem * var(--base-ratio, 1))) * 2)); white-space-collapse: preserve-breaks; list-style: none; color: rgba(0, 0, 0, 0.85); font-family: &amp;quot;YS Text&amp;quot;, sans-serif; font-size: 18px; text-align: start; background-color: rgb(255, 255, 255);&quot;&gt;&lt;li style=&quot;box-sizing: inherit; position: relative; margin: 0 0 var(--size-100, calc(var(--base-unit, calc(1rem * var(--base-ratio, 1))) * 0.5));&quot;&gt;Репутационные потери, упростит нахождение уязвимостей&lt;/li&gt;&lt;/ul&gt;" style="whiteSpace=wrap;html=1;rounded=1;arcSize=50;align=center;verticalAlign=middle;strokeWidth=1;autosize=1;spacing=4;treeFolding=1;treeMoving=1;newEdgeStyle={&quot;edgeStyle&quot;:&quot;entityRelationEdgeStyle&quot;,&quot;startArrow&quot;:&quot;none&quot;,&quot;endArrow&quot;:&quot;none&quot;,&quot;segment&quot;:10,&quot;curved&quot;:1,&quot;sourcePerimeterSpacing&quot;:0,&quot;targetPerimeterSpacing&quot;:0};" vertex="1" parent="1">
          <mxGeometry x="1935" y="2540" width="570" height="70" as="geometry" />
        </mxCell>
        <mxCell id="0ImZA-_981zlYSz6AfB6-198" style="edgeStyle=entityRelationEdgeStyle;rounded=0;orthogonalLoop=1;jettySize=auto;html=1;startArrow=none;endArrow=none;segment=10;curved=1;sourcePerimeterSpacing=0;targetPerimeterSpacing=0;entryX=0;entryY=0.5;entryDx=0;entryDy=0;" edge="1" parent="1" source="0ImZA-_981zlYSz6AfB6-195" target="0ImZA-_981zlYSz6AfB6-197">
          <mxGeometry relative="1" as="geometry" />
        </mxCell>
        <mxCell id="0ImZA-_981zlYSz6AfB6-195" value="&lt;ul style=&quot;box-sizing: inherit; margin-top: var(--size-300, var(--base-unit, calc(1rem * var(--base-ratio, 1)))); padding: 0 0 0 var(--size-700, calc(var(--base-unit, calc(1rem * var(--base-ratio, 1))) * 2)); list-style: none; color: rgba(0, 0, 0, 0.85); font-family: &amp;quot;YS Text&amp;quot;, sans-serif; font-size: 18px; text-align: start; background-color: rgb(255, 255, 255);&quot;&gt;&lt;li style=&quot;box-sizing: inherit; position: relative; margin: 0 0 var(--size-100, calc(var(--base-unit, calc(1rem * var(--base-ratio, 1))) * 0.5));&quot;&gt;&lt;span style=&quot;white-space-collapse: preserve-breaks;&quot;&gt;Риск: &lt;/span&gt;&lt;span style=&quot;white-space-collapse: preserve;&quot;&gt;значительный&lt;/span&gt;&lt;/li&gt;&lt;/ul&gt;" style="whiteSpace=wrap;html=1;rounded=1;arcSize=50;align=center;verticalAlign=middle;strokeWidth=1;autosize=1;spacing=4;treeFolding=1;treeMoving=1;newEdgeStyle={&quot;edgeStyle&quot;:&quot;entityRelationEdgeStyle&quot;,&quot;startArrow&quot;:&quot;none&quot;,&quot;endArrow&quot;:&quot;none&quot;,&quot;segment&quot;:10,&quot;curved&quot;:1,&quot;sourcePerimeterSpacing&quot;:0,&quot;targetPerimeterSpacing&quot;:0};" vertex="1" parent="1">
          <mxGeometry x="1615" y="2860" width="240" height="70" as="geometry" />
        </mxCell>
        <mxCell id="0ImZA-_981zlYSz6AfB6-197" value="&lt;ul style=&quot;box-sizing: inherit; margin-top: var(--size-300, var(--base-unit, calc(1rem * var(--base-ratio, 1)))); padding: 0 0 0 var(--size-700, calc(var(--base-unit, calc(1rem * var(--base-ratio, 1))) * 2)); white-space-collapse: preserve-breaks; list-style: none; color: rgba(0, 0, 0, 0.85); font-family: &amp;quot;YS Text&amp;quot;, sans-serif; font-size: 18px; text-align: start; background-color: rgb(255, 255, 255);&quot;&gt;&lt;li style=&quot;box-sizing: inherit; position: relative; margin: 0 0 var(--size-100, calc(var(--base-unit, calc(1rem * var(--base-ratio, 1))) * 0.5));&quot;&gt;Репутационные потери, потеря времени на отзыв и генерацию новых, возможные мошеннические действия до отзыва&lt;/li&gt;&lt;/ul&gt;" style="whiteSpace=wrap;html=1;rounded=1;arcSize=50;align=center;verticalAlign=middle;strokeWidth=1;autosize=1;spacing=4;treeFolding=1;treeMoving=1;newEdgeStyle={&quot;edgeStyle&quot;:&quot;entityRelationEdgeStyle&quot;,&quot;startArrow&quot;:&quot;none&quot;,&quot;endArrow&quot;:&quot;none&quot;,&quot;segment&quot;:10,&quot;curved&quot;:1,&quot;sourcePerimeterSpacing&quot;:0,&quot;targetPerimeterSpacing&quot;:0};" vertex="1" parent="1">
          <mxGeometry x="1910" y="2860" width="1070" height="70" as="geometry" />
        </mxCell>
        <mxCell id="0ImZA-_981zlYSz6AfB6-202" style="edgeStyle=entityRelationEdgeStyle;rounded=0;orthogonalLoop=1;jettySize=auto;html=1;startArrow=none;endArrow=none;segment=10;curved=1;sourcePerimeterSpacing=0;targetPerimeterSpacing=0;entryX=0;entryY=0.5;entryDx=0;entryDy=0;" edge="1" parent="1" source="0ImZA-_981zlYSz6AfB6-199" target="0ImZA-_981zlYSz6AfB6-201">
          <mxGeometry relative="1" as="geometry" />
        </mxCell>
        <mxCell id="0ImZA-_981zlYSz6AfB6-199" value="&lt;ul style=&quot;box-sizing: inherit; margin-top: var(--size-300, var(--base-unit, calc(1rem * var(--base-ratio, 1)))); padding: 0 0 0 var(--size-700, calc(var(--base-unit, calc(1rem * var(--base-ratio, 1))) * 2)); list-style: none; color: rgba(0, 0, 0, 0.85); font-family: &amp;quot;YS Text&amp;quot;, sans-serif; font-size: 18px; text-align: start; background-color: rgb(255, 255, 255);&quot;&gt;&lt;li style=&quot;box-sizing: inherit; position: relative; margin: 0 0 var(--size-100, calc(var(--base-unit, calc(1rem * var(--base-ratio, 1))) * 0.5));&quot;&gt;&lt;span style=&quot;white-space-collapse: preserve-breaks;&quot;&gt;Риск: &lt;/span&gt;&lt;span style=&quot;white-space-collapse: preserve;&quot;&gt;критический&lt;/span&gt;&lt;/li&gt;&lt;/ul&gt;" style="whiteSpace=wrap;html=1;rounded=1;arcSize=50;align=center;verticalAlign=middle;strokeWidth=1;autosize=1;spacing=4;treeFolding=1;treeMoving=1;newEdgeStyle={&quot;edgeStyle&quot;:&quot;entityRelationEdgeStyle&quot;,&quot;startArrow&quot;:&quot;none&quot;,&quot;endArrow&quot;:&quot;none&quot;,&quot;segment&quot;:10,&quot;curved&quot;:1,&quot;sourcePerimeterSpacing&quot;:0,&quot;targetPerimeterSpacing&quot;:0};" vertex="1" parent="1">
          <mxGeometry x="1615" y="2970" width="230" height="70" as="geometry" />
        </mxCell>
        <mxCell id="0ImZA-_981zlYSz6AfB6-201" value="&lt;ul style=&quot;box-sizing: inherit; margin-top: var(--size-300, var(--base-unit, calc(1rem * var(--base-ratio, 1)))); padding: 0 0 0 var(--size-700, calc(var(--base-unit, calc(1rem * var(--base-ratio, 1))) * 2)); white-space-collapse: preserve-breaks; list-style: none; color: rgba(0, 0, 0, 0.85); font-family: &amp;quot;YS Text&amp;quot;, sans-serif; font-size: 18px; text-align: start; background-color: rgb(255, 255, 255);&quot;&gt;&lt;li style=&quot;box-sizing: inherit; position: relative; margin: 0 0 var(--size-100, calc(var(--base-unit, calc(1rem * var(--base-ratio, 1))) * 0.5));&quot;&gt;Возможность реализации угроз для других типов данных&lt;/li&gt;&lt;/ul&gt;" style="whiteSpace=wrap;html=1;rounded=1;arcSize=50;align=center;verticalAlign=middle;strokeWidth=1;autosize=1;spacing=4;treeFolding=1;treeMoving=1;newEdgeStyle={&quot;edgeStyle&quot;:&quot;entityRelationEdgeStyle&quot;,&quot;startArrow&quot;:&quot;none&quot;,&quot;endArrow&quot;:&quot;none&quot;,&quot;segment&quot;:10,&quot;curved&quot;:1,&quot;sourcePerimeterSpacing&quot;:0,&quot;targetPerimeterSpacing&quot;:0};" vertex="1" parent="1">
          <mxGeometry x="1925" y="2970" width="560" height="70" as="geometry" />
        </mxCell>
      </root>
    </mxGraphModel>
  </diagram>
</mxfile>
